<svg width="202" height="82" viewBox="0 0 202 82" fill="none" xmlns="http://www.w3.org/2000/svg">
<path fill-rule="evenodd" clip-rule="evenodd" d="M17.3443 80.0943L17.3583 80.1001L17.3725 80.1055C20.6469 81.3649 23.9679 81.9997 27.3289 81.9997C31.0007 81.9997 34.4407 81.2705 37.6326 79.8022L37.6422 79.7978L37.6518 79.7932C39.7462 78.7878 41.6029 77.5423 43.2147 76.0555V80.9148H58.0028V25.4435H43.2147V29.9251C41.6101 28.5404 39.7735 27.3863 37.7123 26.4608C34.5797 25.0544 31.173 24.3586 27.5097 24.3586C24.028 24.3586 20.6143 25.0237 17.276 26.3455C13.9833 27.6129 11.0382 29.4826 8.44758 31.9468L8.43617 31.958C5.8935 34.4371 3.84441 37.4727 2.2785 41.043L2.2742 41.053C0.746551 44.6176 0 48.6836 0 53.2244C0 57.7147 0.780025 61.783 2.36892 65.4057L2.37237 65.4134C3.94211 68.9296 6.02522 71.9351 8.62846 74.4114C11.2122 76.8691 14.119 78.7662 17.3443 80.0943ZM42.6845 58.9581L42.6779 58.9735L42.6718 58.9891C41.9439 60.8367 40.9421 62.4471 39.6683 63.8317C38.4068 65.2028 36.898 66.2747 35.1287 67.0487C33.3771 67.815 31.4458 68.2062 29.3178 68.2062C27.2578 68.2062 25.3226 67.8179 23.5002 67.0458C21.7217 66.2667 20.1746 65.2158 18.849 63.8925C17.5245 62.5104 16.471 60.9061 15.6891 59.0699C14.9698 57.1807 14.6073 55.1751 14.6073 53.0435C14.6073 50.9097 14.9706 48.9369 15.6866 47.1136C16.4686 45.2753 17.5207 43.7037 18.8398 42.3846C20.1674 41.057 21.7175 40.003 23.5002 39.2221C25.3226 38.45 27.2578 38.0617 29.3178 38.0617C31.4458 38.0617 33.3771 38.4529 35.1287 39.2192C36.898 39.9932 38.4068 41.0651 39.6683 42.4362L39.6772 42.4459L39.6863 42.4554C40.9487 43.7727 41.9456 45.3451 42.6718 47.1884L42.6779 47.204L42.6845 47.2194C43.4584 49.0437 43.8476 50.9811 43.8476 53.0435C43.8476 55.1711 43.4566 57.1381 42.6845 58.9581ZM30.7923 36.8306C30.3094 36.7903 29.8179 36.7702 29.3178 36.7702C28.7603 36.7702 28.2103 36.7966 27.6679 36.8493C28.2103 36.7966 28.7603 36.7702 29.3178 36.7702C29.8179 36.7702 30.3094 36.7903 30.7923 36.8306ZM93.5864 25.4435H78.0623L99.2078 80.9148H113.287L134.148 25.4435H118.808L106.324 60.1964L93.5864 25.4435ZM75.0603 25.4435H60.1819V80.9148H75.0603V25.4435ZM154.167 80.0943L154.181 80.1001L154.195 80.1055C157.469 81.3649 160.79 81.9997 164.151 81.9997C167.823 81.9997 171.263 81.2705 174.455 79.8022L174.465 79.7978L174.474 79.7932C176.569 78.7878 178.425 77.5423 180.037 76.0555V80.9148H194.825V25.4435H180.037V29.9251C178.433 28.5404 176.596 27.3863 174.535 26.4608C171.402 25.0544 167.995 24.3586 164.332 24.3586C160.85 24.3586 157.437 25.0237 154.098 26.3455C150.806 27.6129 147.861 29.4826 145.27 31.9468L145.259 31.958C142.716 34.4371 140.667 37.4728 139.101 41.043L139.097 41.053C137.569 44.6176 136.822 48.6836 136.822 53.2244C136.822 57.7147 137.602 61.783 139.191 65.4057L139.195 65.4134C140.765 68.9296 142.848 71.9351 145.451 74.4114C148.035 76.8691 150.941 78.7662 154.167 80.0943ZM179.507 58.9581L179.5 58.9735L179.494 58.9891C178.766 60.8367 177.765 62.4471 176.491 63.8317C175.229 65.2028 173.72 66.2747 171.951 67.0487C170.2 67.815 168.268 68.2062 166.14 68.2062C164.08 68.2062 162.145 67.8179 160.323 67.0458C158.544 66.2668 156.997 65.2158 155.671 63.8926C154.347 62.5104 153.293 60.9061 152.511 59.0698C151.792 57.1806 151.43 55.175 151.43 53.0435C151.43 50.9098 151.793 48.9371 152.509 47.1138C153.291 45.2754 154.343 43.7037 155.662 42.3846C156.99 41.057 158.54 40.003 160.323 39.2221C162.145 38.45 164.08 38.0617 166.14 38.0617C168.268 38.0617 170.2 38.4529 171.951 39.2192C173.72 39.9932 175.229 41.065 176.491 42.4362L176.5 42.4459L176.509 42.4554C177.771 43.7727 178.768 45.3451 179.494 47.1884L179.5 47.204L179.507 47.2194C180.281 49.0437 180.67 50.9811 180.67 53.0435C180.67 55.1711 180.279 57.1381 179.507 58.9581ZM67.6211 22.6925C70.2829 22.6925 72.5216 21.9205 74.1497 20.2248C75.8119 18.5569 76.5973 16.3722 76.5973 13.8067C76.5973 11.2462 75.815 9.06505 74.1593 7.39839C72.5358 5.64009 70.2943 4.83057 67.6211 4.83057C64.9897 4.83057 62.7641 5.65026 61.093 7.3882C59.4304 9.05615 58.6449 11.241 58.6449 13.8067C58.6449 16.361 59.3928 18.5423 60.9921 20.2143C62.6269 21.9234 64.9044 22.6925 67.6211 22.6925Z" fill="url(#paint0_linear_125:786)"/>
<path d="M156.094 20.0598C154.862 20.0598 153.733 19.8472 152.706 19.4218C151.694 18.9818 150.829 18.3952 150.11 17.6618C149.392 16.9138 148.834 16.0412 148.438 15.0438C148.042 14.0318 147.844 12.9538 147.844 11.8098C147.844 10.6072 148.057 9.50718 148.482 8.50984C148.908 7.49784 149.487 6.62518 150.22 5.89184C150.968 5.15851 151.841 4.58651 152.838 4.17584C153.85 3.76518 154.936 3.55984 156.094 3.55984C156.842 3.55984 157.561 3.65518 158.25 3.84584C158.954 4.03651 159.607 4.30784 160.208 4.65984C160.824 4.99718 161.374 5.41518 161.858 5.91384C162.357 6.39784 162.782 6.94051 163.134 7.54184L160.516 9.21384C160.047 8.37784 159.453 7.71784 158.734 7.23384C158.016 6.74984 157.136 6.50784 156.094 6.50784C155.332 6.50784 154.628 6.64718 153.982 6.92584C153.337 7.18984 152.78 7.56384 152.31 8.04784C151.841 8.51718 151.474 9.07451 151.21 9.71984C150.946 10.3652 150.814 11.0618 150.814 11.8098C150.814 12.5432 150.946 13.2325 151.21 13.8778C151.474 14.5085 151.834 15.0658 152.288 15.5498C152.758 16.0192 153.308 16.3932 153.938 16.6718C154.584 16.9358 155.28 17.0678 156.028 17.0678C157.143 17.0678 158.082 16.7892 158.844 16.2318C159.622 15.6598 160.223 14.9338 160.648 14.0538L163.376 15.4838C163.024 16.1585 162.592 16.7818 162.078 17.3538C161.58 17.9112 161.015 18.3952 160.384 18.8058C159.768 19.2018 159.094 19.5098 158.36 19.7298C157.642 19.9498 156.886 20.0598 156.094 20.0598ZM164.967 19.8398V3.77984H170.115C171.068 3.77984 171.911 3.91918 172.645 4.19784C173.393 4.46184 174.023 4.84318 174.537 5.34184C175.05 5.82584 175.439 6.41251 175.703 7.10184C175.981 7.77651 176.121 8.53184 176.121 9.36784C176.121 10.3358 175.886 11.2452 175.417 12.0958C174.962 12.9318 174.295 13.5845 173.415 14.0538L176.627 19.8398H173.217L170.643 14.9338H167.959V19.8398H164.967ZM169.851 12.1838C170.467 12.1838 170.98 12.1105 171.391 11.9638C171.816 11.8025 172.153 11.5898 172.403 11.3258C172.667 11.0472 172.85 10.7318 172.953 10.3798C173.07 10.0278 173.129 9.65384 173.129 9.25784C173.129 8.43651 172.865 7.78384 172.337 7.29984C171.823 6.81584 170.995 6.57384 169.851 6.57384H167.959V12.1838H169.851ZM178.254 3.77984H181.224L186.086 10.5338L191.146 3.77984H193.984V19.8398H190.992V8.57584L186.064 15.2198L181.246 8.68584V19.8398H178.254V3.77984Z" fill="#001538"/>
<path d="M152.706 19.4218L152.607 19.6511L152.611 19.6528L152.706 19.4218ZM150.11 17.6618L149.93 17.8351L149.932 17.8368L150.11 17.6618ZM148.438 15.0438L148.206 15.1349L148.206 15.1361L148.438 15.0438ZM148.482 8.50984L148.712 8.60792L148.713 8.60671L148.482 8.50984ZM150.22 5.89184L150.045 5.71332L150.044 5.71507L150.22 5.89184ZM152.838 4.17584L152.744 3.94419L152.743 3.94467L152.838 4.17584ZM158.25 3.84584L158.184 4.0868L158.185 4.08715L158.25 3.84584ZM160.208 4.65984L160.082 4.87568L160.088 4.87912L160.208 4.65984ZM161.858 5.91384L161.679 6.08804L161.684 6.09324L161.858 5.91384ZM163.134 7.54184L163.269 7.75254L163.472 7.6231L163.35 7.41555L163.134 7.54184ZM160.516 9.21384L160.298 9.33623L160.428 9.56697L160.651 9.42454L160.516 9.21384ZM158.734 7.23384L158.595 7.4412L158.734 7.23384ZM153.982 6.92584L154.077 7.15727L154.081 7.15536L153.982 6.92584ZM152.31 8.04784L152.487 8.22464L152.49 8.22188L152.31 8.04784ZM151.21 9.71984L151.442 9.8145L151.21 9.71984ZM151.21 13.8778L150.979 13.9725L150.98 13.9744L151.21 13.8778ZM152.288 15.5498L152.106 15.7211L152.112 15.7266L152.288 15.5498ZM153.938 16.6718L153.837 16.9006L153.844 16.9032L153.938 16.6718ZM158.844 16.2318L158.992 16.4337L158.993 16.4332L158.844 16.2318ZM160.648 14.0538L160.764 13.8324L160.536 13.7125L160.423 13.9451L160.648 14.0538ZM163.376 15.4838L163.598 15.5995L163.713 15.3783L163.492 15.2624L163.376 15.4838ZM162.078 17.3538L161.892 17.1869L161.892 17.1871L162.078 17.3538ZM160.384 18.8058L160.52 19.0161L160.521 19.0153L160.384 18.8058ZM158.36 19.7298L158.289 19.4904L158.287 19.4908L158.36 19.7298ZM156.094 19.8098C154.892 19.8098 153.795 19.6023 152.802 19.1909L152.611 19.6528C153.671 20.092 154.833 20.3098 156.094 20.3098V19.8098ZM152.806 19.1926C151.821 18.7645 150.983 18.1955 150.289 17.4869L149.932 17.8368C150.675 18.5948 151.567 19.1992 152.607 19.6511L152.806 19.1926ZM150.291 17.4886C149.595 16.7648 149.055 15.9199 148.671 14.9516L148.206 15.1361C148.614 16.1625 149.188 17.0629 149.93 17.8351L150.291 17.4886ZM148.671 14.9527C148.287 13.9713 148.094 12.9243 148.094 11.8098H147.594C147.594 12.9834 147.798 14.0924 148.206 15.1349L148.671 14.9527ZM148.094 11.8098C148.094 10.6372 148.302 9.57102 148.712 8.60791L148.252 8.41177C147.812 9.44334 147.594 10.5772 147.594 11.8098H148.094ZM148.713 8.60671C149.126 7.6228 149.688 6.77773 150.397 6.06862L150.044 5.71507C149.286 6.47263 148.689 7.37288 148.252 8.41298L148.713 8.60671ZM150.395 6.07036C151.12 5.36022 151.965 4.8058 152.934 4.40701L152.743 3.94467C151.717 4.36722 150.817 4.9568 150.045 5.71333L150.395 6.07036ZM152.932 4.4075C153.913 4.00967 154.966 3.80984 156.094 3.80984V3.30984C154.905 3.30984 153.788 3.52068 152.744 3.94419L152.932 4.4075ZM156.094 3.80984C156.821 3.80984 157.517 3.9024 158.184 4.0868L158.317 3.60489C157.605 3.40795 156.864 3.30984 156.094 3.30984V3.80984ZM158.185 4.08715C158.869 4.2723 159.501 4.53528 160.082 4.8756L160.335 4.44409C159.713 4.0804 159.04 3.80072 158.316 3.60454L158.185 4.08715ZM160.088 4.87912C160.683 5.20458 161.213 5.60742 161.679 6.08796L162.038 5.73972C161.536 5.22293 160.966 4.78977 160.328 4.44057L160.088 4.87912ZM161.684 6.09324C162.167 6.56146 162.578 7.08625 162.919 7.66814L163.35 7.41555C162.987 6.79477 162.547 6.23423 162.032 5.73445L161.684 6.09324ZM163 7.33115L160.382 9.00315L160.651 9.42454L163.269 7.75254L163 7.33115ZM160.734 9.09146C160.248 8.22508 159.628 7.53454 158.874 7.02648L158.595 7.4412C159.278 7.90114 159.846 8.5306 160.298 9.33623L160.734 9.09146ZM158.874 7.02648C158.106 6.50949 157.175 6.25784 156.094 6.25784V6.75784C157.096 6.75784 157.925 6.99019 158.595 7.4412L158.874 7.02648ZM156.094 6.25784C155.301 6.25784 154.562 6.40303 153.883 6.69633L154.081 7.15536C154.693 6.89132 155.363 6.75784 156.094 6.75784V6.25784ZM153.888 6.69446C153.212 6.97106 152.625 7.36419 152.131 7.87381L152.49 8.22188C152.934 7.7635 153.462 7.40863 154.077 7.15723L153.888 6.69446ZM152.134 7.87107C151.64 8.36505 151.255 8.9507 150.979 9.62519L151.442 9.8145C151.694 9.19832 152.042 8.6693 152.487 8.22462L152.134 7.87107ZM150.979 9.62519C150.702 10.3027 150.564 11.0318 150.564 11.8098H151.064C151.064 11.0919 151.191 10.4277 151.442 9.8145L150.979 9.62519ZM150.564 11.8098C150.564 12.5739 150.702 13.2956 150.979 13.9725L151.442 13.7832C151.191 13.1694 151.064 12.5124 151.064 11.8098H150.564ZM150.98 13.9744C151.255 14.6318 151.63 15.2146 152.106 15.721L152.471 15.3787C152.037 14.9171 151.694 14.3852 151.441 13.7813L150.98 13.9744ZM152.112 15.7266C152.604 16.2186 153.18 16.6099 153.837 16.9005L154.039 16.4432C153.436 16.1765 152.912 15.8197 152.465 15.3731L152.112 15.7266ZM153.844 16.9032C154.521 17.1804 155.25 17.3178 156.028 17.3178V16.8178C155.31 16.8178 154.646 16.6913 154.033 16.4405L153.844 16.9032ZM156.028 17.3178C157.186 17.3178 158.179 17.0277 158.992 16.4337L158.697 16.03C157.984 16.5507 157.1 16.8178 156.028 16.8178V17.3178ZM158.993 16.4332C159.803 15.8368 160.431 15.0788 160.873 14.1626L160.423 13.9451C160.015 14.7889 159.44 15.4829 158.696 16.0305L158.993 16.4332ZM160.532 14.2753L163.26 15.7053L163.492 15.2624L160.764 13.8324L160.532 14.2753ZM163.155 15.3682C162.812 16.0242 162.392 16.6303 161.892 17.1869L162.264 17.5208C162.792 16.9334 163.236 16.2929 163.598 15.5995L163.155 15.3682ZM161.892 17.1871C161.408 17.728 160.86 18.1976 160.248 18.5963L160.521 19.0153C161.17 18.5927 161.751 18.0944 162.265 17.5205L161.892 17.1871ZM160.249 18.5955C159.654 18.9784 159 19.2768 158.289 19.4904L158.432 19.9693C159.187 19.7429 159.883 19.4253 160.52 19.0161L160.249 18.5955ZM158.287 19.4908C157.593 19.7032 156.863 19.8098 156.094 19.8098V20.3098C156.91 20.3098 157.69 20.1965 158.434 19.9689L158.287 19.4908ZM164.967 19.8398H164.717V20.0898H164.967V19.8398ZM164.967 3.77984V3.52984H164.717V3.77984H164.967ZM172.645 4.19784L172.556 4.43161L172.561 4.43359L172.645 4.19784ZM174.537 5.34184L174.362 5.52118L174.365 5.52374L174.537 5.34184ZM175.703 7.10184L175.469 7.19128L175.471 7.19728L175.703 7.10184ZM175.417 12.0958L175.198 11.9751L175.197 11.9764L175.417 12.0958ZM173.415 14.0538L173.297 13.8333L173.073 13.9529L173.196 14.1752L173.415 14.0538ZM176.627 19.8398V20.0898H177.051L176.845 19.7185L176.627 19.8398ZM173.217 19.8398L172.995 19.956L173.065 20.0898H173.217V19.8398ZM170.643 14.9338L170.864 14.8177L170.794 14.6838H170.643V14.9338ZM167.959 14.9338V14.6838H167.709V14.9338H167.959ZM167.959 19.8398V20.0898H168.209V19.8398H167.959ZM171.391 11.9638L171.475 12.1993L171.479 12.1976L171.391 11.9638ZM172.403 11.3258L172.221 11.1539L172.221 11.1542L172.403 11.3258ZM172.953 10.3798L172.715 10.3007L172.713 10.3098L172.953 10.3798ZM172.337 7.29984L172.165 7.48176L172.168 7.48413L172.337 7.29984ZM167.959 6.57384V6.32384H167.709V6.57384H167.959ZM167.959 12.1838H167.709V12.4338H167.959V12.1838ZM165.217 19.8398V3.77984H164.717V19.8398H165.217ZM164.967 4.02984H170.115V3.52984H164.967V4.02984ZM170.115 4.02984C171.044 4.02984 171.856 4.16569 172.556 4.43154L172.733 3.96415C171.966 3.67266 171.092 3.52984 170.115 3.52984V4.02984ZM172.561 4.43359C173.279 4.68689 173.878 5.05027 174.362 5.52116L174.711 5.16252C174.169 4.63609 173.506 4.2368 172.728 3.9621L172.561 4.43359ZM174.365 5.52374C174.85 5.98076 175.218 6.53535 175.469 7.19125L175.936 7.01243C175.659 6.28967 175.25 5.67092 174.708 5.15995L174.365 5.52374ZM175.471 7.19728C175.736 7.83761 175.871 8.55987 175.871 9.36784H176.371C176.371 8.50382 176.226 7.71541 175.934 7.0064L175.471 7.19728ZM175.871 9.36784C175.871 10.2934 175.647 11.1612 175.198 11.9751L175.635 12.2166C176.125 11.3291 176.371 10.3782 176.371 9.36784H175.871ZM175.197 11.9764C174.767 12.7673 174.136 13.3858 173.297 13.8333L173.532 14.2744C174.453 13.7832 175.157 13.0964 175.636 12.2153L175.197 11.9764ZM173.196 14.1752L176.408 19.9612L176.845 19.7185L173.633 13.9325L173.196 14.1752ZM176.627 19.5898H173.217V20.0898H176.627V19.5898ZM173.438 19.7237L170.864 14.8177L170.421 15.05L172.995 19.956L173.438 19.7237ZM170.643 14.6838H167.959V15.1838H170.643V14.6838ZM167.709 14.9338V19.8398H168.209V14.9338H167.709ZM167.959 19.5898H164.967V20.0898H167.959V19.5898ZM169.851 12.4338C170.484 12.4338 171.028 12.3587 171.475 12.1993L171.306 11.7284C170.931 11.8624 170.449 11.9338 169.851 11.9338V12.4338ZM171.479 12.1976C171.931 12.0262 172.303 11.795 172.584 11.4975L172.221 11.1542C172.003 11.3847 171.701 11.5789 171.302 11.7301L171.479 12.1976ZM172.584 11.4978C172.874 11.1917 173.078 10.8418 173.193 10.4498L172.713 10.3098C172.622 10.6219 172.459 10.9027 172.221 11.1539L172.584 11.4978ZM173.19 10.4589C173.316 10.0797 173.379 9.6789 173.379 9.25784H172.879C172.879 9.62879 172.824 9.97594 172.715 10.3008L173.19 10.4589ZM173.379 9.25784C173.379 8.37775 173.093 7.65405 172.505 7.11555L172.168 7.48413C172.636 7.91364 172.879 8.49527 172.879 9.25784H173.379ZM172.508 7.11795C171.927 6.56987 171.021 6.32384 169.851 6.32384V6.82384C170.968 6.82384 171.72 7.06181 172.165 7.48174L172.508 7.11795ZM169.851 6.32384H167.959V6.82384H169.851V6.32384ZM167.709 6.57384V12.1838H168.209V6.57384H167.709ZM167.959 12.4338H169.851V11.9338H167.959V12.4338ZM178.254 3.77984V3.52984H178.004V3.77984H178.254ZM181.224 3.77984L181.427 3.63378L181.352 3.52984H181.224V3.77984ZM186.086 10.5338L185.883 10.6799L186.082 10.9562L186.286 10.6837L186.086 10.5338ZM191.146 3.77984V3.52984H191.021L190.946 3.62995L191.146 3.77984ZM193.984 3.77984H194.234V3.52984H193.984V3.77984ZM193.984 19.8398V20.0898H194.234V19.8398H193.984ZM190.992 19.8398H190.742V20.0898H190.992V19.8398ZM190.992 8.57584H191.242V7.81914L190.791 8.42691L190.992 8.57584ZM186.064 15.2198L185.863 15.3682L186.064 15.6403L186.265 15.3688L186.064 15.2198ZM181.246 8.68584L181.447 8.53747L180.996 7.92556V8.68584H181.246ZM181.246 19.8398V20.0898H181.496V19.8398H181.246ZM178.254 19.8398H178.004V20.0898H178.254V19.8398ZM178.254 4.02984H181.224V3.52984H178.254V4.02984ZM181.021 3.9259L185.883 10.6799L186.289 10.3878L181.427 3.63378L181.021 3.9259ZM186.286 10.6837L191.346 3.92974L190.946 3.62995L185.886 10.3839L186.286 10.6837ZM191.146 4.02984H193.984V3.52984H191.146V4.02984ZM193.734 3.77984V19.8398H194.234V3.77984H193.734ZM193.984 19.5898H190.992V20.0898H193.984V19.5898ZM191.242 19.8398V8.57584H190.742V19.8398H191.242ZM190.791 8.42691L185.863 15.0709L186.265 15.3688L191.193 8.72478L190.791 8.42691ZM186.265 15.0715L181.447 8.53747L181.045 8.83421L185.863 15.3682L186.265 15.0715ZM180.996 8.68584V19.8398H181.496V8.68584H180.996ZM181.246 19.5898H178.254V20.0898H181.246V19.5898ZM178.504 19.8398V3.77984H178.004V19.8398H178.504Z" fill="#001538"/>
<defs>
<linearGradient id="paint0_linear_125:786" x1="-0.516606" y1="57.6672" x2="194.505" y2="62.1876" gradientUnits="userSpaceOnUse">
<stop stop-color="#00D6D0"/>
<stop offset="1" stop-color="#5792FF"/>
</linearGradient>
</defs>
</svg>
