<svg width="27" height="23" viewBox="0 0 27 23" fill="none" xmlns="http://www.w3.org/2000/svg">
<path d="M18.2541 11.3367C18.2541 13.8084 16.2568 15.8058 13.7851 15.8058C11.3134 15.8058 9.31604 13.8084 9.31604 11.3367C9.31604 8.86502 11.3134 6.86768 13.7851 6.86768C16.2568 6.86768 18.2541 8.86502 18.2541 11.3367Z" stroke="#001538" stroke-width="2" stroke-linecap="round" stroke-linejoin="round"/>
<path d="M13.7849 21.66C18.1916 21.66 22.2986 19.0635 25.1573 14.5694C26.2808 12.8093 26.2808 9.85072 25.1573 8.09057C22.2986 3.59655 18.1916 1 13.7849 1C9.37831 1 5.27127 3.59655 2.41258 8.09057C1.28907 9.85072 1.28907 12.8093 2.41258 14.5694C5.27127 19.0635 9.37831 21.66 13.7849 21.66Z" stroke="#001538" stroke-width="2" stroke-linecap="round" stroke-linejoin="round"/>
</svg>
