<svg width="26" height="26" viewBox="0 0 26 26" fill="none" xmlns="http://www.w3.org/2000/svg">
<path d="M5.79999 10.6V8.2C5.79999 4.228 6.99999 1 13 1C19 1 20.2 4.228 20.2 8.2V10.6" stroke="#001538" stroke-width="2" stroke-linecap="round" stroke-linejoin="round"/>
<path d="M19 25.0001H7C2.2 25.0001 1 23.8001 1 19.0001V16.6001C1 11.8001 2.2 10.6001 7 10.6001H19C23.8 10.6001 25 11.8001 25 16.6001V19.0001C25 23.8001 23.8 25.0001 19 25.0001Z" stroke="#001538" stroke-width="2" stroke-linecap="round" stroke-linejoin="round"/>
<path d="M17.7957 17.8002H17.8065" stroke="#001538" stroke-width="2.5" stroke-linecap="round" stroke-linejoin="round"/>
<path d="M12.9946 17.8002H13.0054" stroke="#001538" stroke-width="2.5" stroke-linecap="round" stroke-linejoin="round"/>
<path d="M5.80005 10.6V8.2C5.80005 4.228 7.00005 1 13 1C19 1 20.2 4.228 20.2 8.2V10.6" stroke="#001538" stroke-width="2" stroke-linecap="round" stroke-linejoin="round"/>
<path d="M12.9945 17.8002H13.0053" stroke="#001538" stroke-width="2.5" stroke-linecap="round" stroke-linejoin="round"/>
<path d="M8.19338 17.8002H8.20416" stroke="#001538" stroke-width="2.5" stroke-linecap="round" stroke-linejoin="round"/>
</svg>
