<svg width="23" height="19" viewBox="0 0 23 19" fill="none" xmlns="http://www.w3.org/2000/svg">
<path d="M0.600098 6.76702C0.600098 6.62479 0.600098 6.48257 0.600098 6.34035C0.896649 5.85701 1.31149 5.83455 1.79503 6.03238C1.90623 6.07783 2.02671 6.1345 2.17117 6.11686C1.75142 5.25925 1.57152 4.37651 1.68763 3.4387C1.7754 2.72491 2.02453 2.07583 2.45354 1.49624C2.75555 1.08829 3.29686 1.10807 3.58088 1.52993C3.65229 1.63633 3.71171 1.75075 3.77876 1.85982C5.42069 4.54065 7.77839 6.17835 10.9669 6.60555C11.2291 6.64083 11.2274 6.64083 11.2253 6.38259C11.2122 4.78393 11.7311 3.39272 12.8841 2.23943C14.2267 0.896345 16.4514 0.495343 18.1833 1.30964C18.3539 1.38984 18.4799 1.38396 18.6439 1.30323C19.4638 0.899018 20.2908 0.508175 21.1134 0.109311C21.3538 -0.00724666 21.5942 -0.0526936 21.8384 0.0847165C22.1595 0.2649 22.2571 0.627406 22.075 0.993655C21.7746 1.59944 21.465 2.2004 21.1625 2.80512C21.1297 2.87034 21.0654 2.92916 21.0938 3.027C21.3974 3.00294 21.7016 2.99011 22.0025 2.95268C22.3154 2.91365 22.5874 2.97033 22.7668 3.23873C22.9543 3.51943 22.8753 3.78998 22.703 4.05517C22.4037 4.51606 22.1148 4.98336 21.8177 5.44585C21.7654 5.52765 21.7348 5.60518 21.7517 5.70409C21.8221 6.12488 21.8608 6.54941 21.8935 6.975C22.0145 8.57206 21.7861 10.1194 21.2295 11.6218C20.7193 12.9991 19.9446 14.223 18.9699 15.3276C18.2983 16.089 17.5537 16.7701 16.6755 17.3027C14.8673 18.3988 12.8715 18.8559 10.7766 18.9725C9.77629 19.0281 8.77707 18.9992 7.78111 18.8885C6.08357 18.7003 4.43019 18.3362 2.8504 17.6882C2.28891 17.4577 1.74869 17.1834 1.30168 16.7632C1.17194 16.6413 1.08254 16.5007 1.06891 16.3205C1.03729 15.8938 1.33657 15.5998 1.81792 15.6078C2.73156 15.6227 3.64411 15.6324 4.54848 15.4714C5.47957 15.3062 6.32943 14.9608 7.09261 14.3679C7.01793 14.3465 6.96342 14.3299 6.9089 14.3149C5.38199 13.9033 3.96792 13.2868 2.82587 12.1688C2.62799 11.9752 2.50806 11.7614 2.58056 11.4833C2.6547 11.1994 2.85749 11.0508 3.14259 10.9845C3.34538 10.9374 3.55416 10.9011 3.76349 10.799C3.62612 10.723 3.51219 10.6615 3.39989 10.5979C2.18807 9.91034 1.33112 8.93296 0.86067 7.63158C0.757641 7.34713 0.736926 7.04077 0.600098 6.76702Z" fill="white"/>
</svg>
