<svg width="32" height="28" viewBox="0 0 32 28" fill="none" xmlns="http://www.w3.org/2000/svg">
<path d="M15.3825 0.0349754C16.5181 -0.0956495 17.6931 0.14185 18.6856 0.709975C19.7356 1.30185 20.5737 2.25623 21.0287 3.37122C21.4937 4.49685 21.5631 5.77997 21.2225 6.94935C20.8919 8.10372 20.1619 9.13747 19.1887 9.8406C18.2712 10.51 17.1381 10.8762 16.0031 10.8731C14.985 10.8775 13.9687 10.5837 13.1087 10.04C12.1262 9.42497 11.3494 8.48872 10.9319 7.40747C10.4044 6.06372 10.445 4.5081 11.0456 3.19497C11.8075 1.47998 13.5131 0.228725 15.3825 0.0349754Z" fill="#fff"/>
<path d="M4.5125 4.03627C5.29125 3.92502 6.1075 4.08565 6.77937 4.49752C7.61375 4.99752 8.215 5.8694 8.38062 6.82877C8.53375 7.67252 8.35812 8.57252 7.89125 9.29252C7.43312 10.0081 6.70187 10.5469 5.8775 10.7581C5.04625 10.9788 4.13188 10.8744 3.37625 10.4625C2.49438 9.99627 1.84 9.12565 1.63875 8.14877C1.45813 7.30002 1.61125 6.38377 2.06875 5.64565C2.59125 4.7819 3.5125 4.1744 4.5125 4.03627Z" fill="#fff"/>
<path d="M26.5112 4.03618C27.2881 3.92493 28.1031 4.08431 28.7737 4.49431C29.595 4.98493 30.1919 5.83368 30.3706 6.77368C30.5312 7.58806 30.3869 8.45993 29.9631 9.17493C29.5119 9.94806 28.7475 10.5356 27.8781 10.7581C27.0456 10.9793 26.1306 10.8743 25.3744 10.4612C24.5712 10.0356 23.9556 9.27493 23.7025 8.40243C23.4369 7.50306 23.5594 6.49556 24.0419 5.68993C24.5594 4.80368 25.4944 4.17743 26.5112 4.03618Z" fill="#fff"/>
<path d="M14.5969 13.0113C15.56 12.9138 16.5306 12.9494 17.4944 13.0231C18.9625 13.0419 20.3681 13.6713 21.5031 14.575C22.9656 15.7388 24.0144 17.4325 24.3262 19.2819C24.4675 20.0406 24.4337 20.8144 24.4394 21.5819C24.4412 22.6881 24.4462 23.7938 24.4444 24.9C24.4306 25.3644 24.4675 25.84 24.355 26.295C24.1837 26.7631 23.9556 27.2713 23.4894 27.5125C22.9337 27.7925 22.2962 27.8156 21.6881 27.8669C20.2719 27.9419 18.8525 27.915 17.435 27.9138C14.8594 27.8881 12.2831 27.885 9.70749 27.8719C8.8125 27.8681 7.96999 27.2488 7.68499 26.4025C7.52687 25.9813 7.56687 25.5256 7.55749 25.0856C7.54812 23.6488 7.47 22.2106 7.545 20.7744C7.60625 19.5594 7.80062 18.3281 8.32187 17.2188C8.94437 15.8694 10.0525 14.7913 11.3144 14.0338C12.31 13.4425 13.4494 13.125 14.5969 13.0113Z" fill="#fff"/>
<path d="M1.525 13.9819C2.28125 13.3481 3.2625 12.9956 4.24875 12.9988C5.10375 13.0063 5.97437 12.9381 6.8125 13.1494C7.39187 13.2919 7.92625 13.5838 8.38625 13.9606C7.47187 14.8925 6.72625 16.0019 6.2925 17.2381C5.76562 18.7081 5.66437 20.2856 5.65125 21.8338C5.65625 23.1719 5.66875 24.51 5.70312 25.8475C5.3875 25.8988 5.0675 25.8806 4.74937 25.8856C3.75 25.8763 2.75062 25.8838 1.75187 25.8706C0.85625 25.8488 0.075625 25.0875 0 24.2V16.98C0.07375 15.8275 0.629375 14.7144 1.525 13.9819Z" fill="#fff"/>
<path d="M25.0969 13.173C25.6944 13.0049 26.3194 12.9924 26.9356 12.9943C27.4494 13.0068 27.9681 12.9693 28.4769 13.0605C29.4875 13.2299 30.4262 13.7824 31.0669 14.5824C31.625 15.2649 31.9444 16.1274 32 17.0055V24.1218C31.9412 24.7537 31.5644 25.3499 30.9981 25.6449C30.6944 25.8137 30.3437 25.8805 29.9987 25.8755C29.0606 25.8774 28.1231 25.8805 27.1856 25.8855C26.8912 25.8812 26.5937 25.8974 26.3031 25.8437C26.3287 24.4862 26.3406 23.1287 26.3437 21.7712C26.3312 19.9955 26.1969 18.1624 25.4306 16.5324C24.9894 15.5737 24.35 14.7168 23.6156 13.963C24.0487 13.603 24.5525 13.3218 25.0969 13.173Z" fill="#fff"/>
</svg>
