<svg width="30" height="24" viewBox="0 0 30 24" fill="none" xmlns="http://www.w3.org/2000/svg">
<path d="M0 13.6C0.126485 13.2979 0.106247 12.9712 0.153227 12.656C1.00971 6.96134 4.95458 2.33128 10.4592 0.660241C13.9531 -0.400784 17.3985 -0.17528 20.7536 1.2811C21.4084 1.56515 21.6809 2.20552 21.4214 2.81337C21.167 3.41038 20.5252 3.67636 19.8834 3.41038C18.8961 3.00201 17.8893 2.66954 16.8333 2.49607C16.5398 2.44765 16.2435 2.41874 15.9197 2.37754C15.9197 2.97599 15.9298 3.56144 15.9168 4.14543C15.9053 4.64414 15.5858 5.05179 15.1225 5.20212C14.6607 5.35174 14.1583 5.19779 13.8577 4.81183C13.6791 4.58271 13.6112 4.3189 13.6134 4.03124C13.617 3.48482 13.6141 2.93841 13.6141 2.37682C11.0548 2.63557 8.80261 3.56722 6.83595 5.18478C5.83419 6.00873 4.99072 6.97507 4.27807 8.05995C4.14364 8.26449 4.18917 8.32521 4.3901 8.41483C4.87074 8.62949 5.34849 8.855 5.81179 9.1058C6.23967 9.33708 6.44132 9.72738 6.39145 10.2095C6.3423 10.6879 6.07343 11.024 5.61158 11.1859C5.28489 11.3008 4.96904 11.2495 4.66403 11.1028C4.20652 10.8824 3.74684 10.6663 3.29366 10.4371C3.15633 10.3678 3.10646 10.388 3.05587 10.5347C1.86258 14.012 2.08736 17.3837 3.79092 20.6513C3.87332 20.8096 3.9362 20.8349 4.0916 20.7532C4.46527 20.5574 4.84544 20.3752 5.22634 20.1945C5.88768 19.8801 6.56419 20.081 6.85691 20.6744C7.15758 21.2837 6.90317 21.9371 6.22882 22.271C5.49883 22.6324 4.76883 22.9945 4.03305 23.3436C3.39774 23.6457 2.81735 23.4665 2.43718 22.8803C1.22943 21.0185 0.45679 18.9933 0.140217 16.7946C0.100465 16.5171 0.13299 16.2272 0 15.9656C0 15.1763 0 14.3885 0 13.6Z" fill="#fff"/>
<path d="M14.7163 18.2374C13.364 18.236 12.1266 17.4127 11.5787 16.1182C11.0439 14.8541 11.3084 13.35 12.2834 12.3844C12.8848 11.7896 13.5953 11.3205 14.2805 10.8269C17.3334 8.62747 20.445 6.51264 23.5406 4.37469C23.9547 4.0892 24.3877 4.01403 24.8379 4.25905C25.2543 4.48528 25.4487 4.85533 25.4357 5.32947C25.4292 5.56726 25.3338 5.77686 25.2008 5.96912C22.7701 9.48033 20.3879 13.0262 17.8452 16.4594C17.2727 17.232 16.6237 17.8869 15.6487 18.1268C15.3574 18.1984 15.0639 18.2295 14.7163 18.2374ZM19.5892 9.90098C19.0334 10.2913 18.4834 10.6751 17.9362 11.0632C16.6454 11.9797 15.3314 12.8636 14.0925 13.8524C13.7138 14.1545 13.5425 14.5412 13.6444 15.0189C13.7434 15.4815 14.0383 15.7901 14.4973 15.8964C14.9649 16.004 15.3733 15.8682 15.6768 15.4822C17.0552 13.7324 18.2817 11.8727 19.5776 10.0629C19.6065 10.0239 19.6391 9.98699 19.5892 9.90098Z" fill="#fff"/>
<path d="M29.5396 14.635C29.463 17.8969 28.6369 20.514 27.0815 22.9028C26.7222 23.4543 26.1534 23.6371 25.5564 23.3646C24.7549 22.9989 23.9576 22.6224 23.1684 22.2299C22.5627 21.9292 22.3386 21.2787 22.6104 20.6976C22.8836 20.1122 23.5449 19.8794 24.1723 20.1599C24.6009 20.3514 25.0252 20.5531 25.4437 20.7641C25.586 20.8357 25.6511 20.8248 25.7292 20.6774C26.8632 18.5387 27.3626 16.2685 27.187 13.8494C27.0829 12.4183 26.7302 11.0544 26.1657 9.739C25.8896 9.09573 26.0739 8.49511 26.6138 8.18866C27.2282 7.83884 27.9582 8.09687 28.2617 8.77844C28.6166 9.57637 28.9007 10.3996 29.1081 11.2489C29.4138 12.4956 29.5555 13.7612 29.5396 14.635Z" fill="#fff"/>
</svg>
