<svg width="32" height="32" viewBox="0 0 32 32" fill="none" xmlns="http://www.w3.org/2000/svg">
<path d="M4.45625 0H4.62063C4.84562 0.055 5.08063 0.19875 5.12375 0.444375C5.18188 0.895 5.11125 1.35125 5.15625 1.80313C5.18375 2.06625 5.42625 2.27625 5.68813 2.28187C6.06313 2.30687 6.44063 2.29125 6.81563 2.32687C8.70438 2.45 10.6138 2.96938 12.1613 4.0925C13.8294 5.29 14.95 7.16563 15.3444 9.17C14.5012 9.245 13.6737 9.465 12.9038 9.81563C12.7181 9.06125 12.4362 8.32563 12.0194 7.6675C11.4419 6.7425 10.6037 5.98875 9.63625 5.48875C8.44062 4.87 7.08563 4.5875 5.74438 4.575C5.475 4.56 5.20625 4.75375 5.16125 5.02437C5.10375 5.49062 5.18875 5.96438 5.12063 6.43C5.02313 6.83562 4.4675 6.98688 4.15312 6.72875C2.95562 5.8625 1.76187 4.99062 0.565 4.12313C0.34375 3.96125 0.07125 3.81375 0 3.52562V3.355C0.039375 3.19438 0.129375 3.05 0.266875 2.95688C1.53313 2.03375 2.80562 1.11812 4.06812 0.19C4.18562 0.104375 4.31687 0.04 4.45625 0Z" fill="#fff"/>
<path d="M27.3925 0H27.5537C27.8237 0.079375 28.035 0.269375 28.2587 0.43C29.4062 1.25938 30.5487 2.09625 31.6962 2.92563C31.8562 3.02938 31.9719 3.19 32 3.38063V3.5075C31.94 3.80562 31.6606 3.95625 31.4369 4.12125C30.3244 4.925 29.2156 5.735 28.1062 6.5425C27.92 6.67312 27.7356 6.84688 27.4962 6.855C27.2112 6.87375 26.9031 6.67375 26.8694 6.3775C26.8256 5.9425 26.8837 5.50437 26.8456 5.06938C26.8212 4.77812 26.5394 4.55687 26.2531 4.575C25.5125 4.57562 24.7731 4.675 24.055 4.85375C22.6175 5.20438 21.2525 5.97625 20.3387 7.15688C19.7275 7.93188 19.3275 8.85625 19.0975 9.8125C18.325 9.46562 17.4975 9.24063 16.6525 9.17C17.0244 7.25 18.0612 5.44312 19.6212 4.24687C21.0925 3.09812 22.9412 2.535 24.7806 2.35938C25.2837 2.30437 25.7894 2.30125 26.2944 2.28375C26.5625 2.2825 26.8144 2.07438 26.8431 1.80375C26.8887 1.35125 26.8181 0.89375 26.8756 0.441875C26.9206 0.1925 27.1612 0.046875 27.3925 0Z" fill="#fff"/>
<path d="M12.425 11.42C13.5119 10.6038 14.8987 10.2444 16.2462 10.2938C17.505 10.3381 18.7731 10.7469 19.7494 11.5575C20.4144 12.1056 20.9237 12.8625 21.0894 13.7156C20.7006 13.7175 20.3125 13.7163 19.9244 13.7163C19.6637 12.82 18.8925 12.1688 18.0531 11.8238C16.8469 11.3306 15.4587 11.3038 14.2262 11.7169C13.275 12.0381 12.3631 12.7169 12.0719 13.7163C11.685 13.7169 11.2975 13.7175 10.9106 13.7156C11.0887 12.7869 11.6769 11.9794 12.425 11.42Z" fill="#fff"/>
<path d="M4.06374 15.6263C4.21874 15.1613 4.69499 14.8344 5.18499 14.8581C12.4144 14.86 19.6431 14.8563 26.8719 14.86C27.4762 14.8494 28.0112 15.3938 27.9969 15.9963C28 17.0394 28.0006 18.0831 27.9962 19.1263C28.0106 19.6906 27.5537 20.2013 26.9969 20.2681C24.4744 20.7144 21.9519 21.1638 19.4281 21.6031C19.4231 21.2913 19.4637 20.9613 19.3256 20.67C19.1431 20.2575 18.7019 19.9831 18.2512 20C16.7525 20 15.2531 20 13.7537 20C13.3 19.9806 12.855 20.2569 12.6731 20.6725C12.5344 20.9638 12.5775 21.2932 12.5719 21.6044C10.1762 21.1775 7.77937 20.7588 5.38374 20.3363C5.08124 20.2788 4.75499 20.2563 4.49687 20.0713C4.18937 19.8619 3.99874 19.4969 4.00312 19.1244C3.99749 18.1875 4.00437 17.2506 3.99999 16.3131C4.00187 16.0838 3.98624 15.8463 4.06374 15.6263Z" fill="#fff"/>
<path d="M13.7144 21.1425C15.2381 21.1425 16.7625 21.1425 18.2863 21.1425C18.2863 21.9043 18.2863 22.6662 18.2863 23.4275C16.7625 23.4281 15.2381 23.4287 13.7144 23.4275C13.7144 22.6662 13.7144 21.9043 13.7144 21.1425Z" fill="#fff"/>
<path d="M5.71563 21.5537C8.00126 21.9556 10.2875 22.3581 12.5725 22.7643C12.5856 23.14 12.5156 23.5368 12.6706 23.8925C12.8519 24.3112 13.2988 24.5881 13.7544 24.57C15.2525 24.5712 16.7513 24.5712 18.2494 24.57C18.7781 24.5925 19.2894 24.2062 19.3963 23.6856C19.4544 23.3825 19.4213 23.0718 19.4275 22.765C21.7138 22.3643 23.9988 21.96 26.2844 21.5562C26.2831 24.6631 26.2881 27.7706 26.2819 30.8775C26.2869 31.445 25.8131 31.9356 25.2575 32H6.75876C6.33188 31.9512 5.93626 31.6675 5.78938 31.2593C5.67751 30.9562 5.72313 30.6275 5.71501 30.3118C5.71626 27.3925 5.71501 24.4731 5.71563 21.5537Z" fill="#fff"/>
</svg>
