<svg width="26" height="26" viewBox="0 0 26 26" fill="none" xmlns="http://www.w3.org/2000/svg">
<path d="M25.4968 13.0014C25.4968 15.5355 25.4977 18.0695 25.4968 20.6036C25.4949 23.4192 23.4241 25.4966 20.615 25.4985C19.4351 25.5003 18.2543 25.5003 17.0743 25.4994C16.3047 25.4985 15.7851 25.0391 15.7768 24.3583C15.7685 23.6637 16.2899 23.1978 17.0836 23.196C18.2404 23.1941 19.3981 23.1969 20.5548 23.195C22.1478 23.1923 23.1916 22.1586 23.1925 20.5693C23.1953 15.5243 23.1953 10.4785 23.1925 5.43353C23.1916 3.84419 22.1497 2.81149 20.5548 2.80778C19.386 2.80501 18.2172 2.80964 17.0484 2.80593C16.2853 2.80408 15.7685 2.32802 15.7768 1.64449C15.7851 0.973928 16.3001 0.504351 17.0401 0.503426C18.2783 0.500646 19.5166 0.496942 20.7549 0.504352C23.3815 0.520097 25.4866 2.62625 25.4959 5.26033C25.5042 7.84069 25.4968 10.421 25.4968 13.0014Z" fill="#fff"/>
<path d="M14.7098 14.1647C14.5857 14.1647 14.4616 14.1647 14.3385 14.1647C10.1726 14.1647 6.0077 14.1647 1.84186 14.1647C1.16855 14.1647 0.742515 13.897 0.560988 13.3663C0.347973 12.7467 0.712878 12.0604 1.34544 11.89C1.53715 11.8381 1.7335 11.8372 1.93077 11.8372C6.06142 11.8381 10.1921 11.8381 14.3227 11.8381C14.4561 11.8381 14.5885 11.8381 14.7367 11.8381C14.6959 11.6557 14.5774 11.5918 14.4922 11.5066C13.1604 10.171 11.8277 8.83635 10.4912 7.50635C10.1541 7.17014 9.99201 6.783 10.1207 6.31249C10.3421 5.50115 11.2868 5.19273 11.9518 5.70862C12.0518 5.78642 12.1407 5.87904 12.2305 5.96888C14.244 7.98056 16.2565 9.99316 18.2691 12.0067C18.9701 12.7078 18.9655 13.2978 18.257 14.0063C16.2121 16.0523 14.168 18.0992 12.1194 20.1414C11.422 20.837 10.3532 20.5869 10.1161 19.6765C9.99294 19.2041 10.1661 18.8207 10.5023 18.4863C11.8304 17.1637 13.153 15.8356 14.4811 14.513C14.5691 14.425 14.6895 14.3685 14.7941 14.2972C14.7663 14.2527 14.7386 14.2082 14.7098 14.1647Z" fill="#fff"/>
</svg>
