<svg width="30" height="30" viewBox="0 0 30 30" fill="none" xmlns="http://www.w3.org/2000/svg">
<path d="M17.3856 0H28.5394C29.2969 0.045 29.9425 0.691875 30 1.44625V12.6125C28.4756 12.6125 26.9512 12.6125 25.4269 12.6125C25.9812 13.2425 26.1756 14.1669 25.8894 14.96C25.575 15.8994 24.6175 16.5694 23.6262 16.5375C22.57 16.5369 21.5906 15.7325 21.3706 14.7025C21.1981 13.9706 21.4119 13.1725 21.91 12.6125C20.4019 12.6125 18.8944 12.6131 17.3862 12.6119C17.3856 11.1056 17.3856 9.59938 17.3862 8.09313C18.0406 8.675 19.0212 8.85437 19.8325 8.5175C20.7369 8.16812 21.3575 7.215 21.3075 6.24687C21.2862 5.2225 20.5131 4.28125 19.5181 4.04688C18.7756 3.85688 17.9581 4.06875 17.3856 4.57375C17.3862 3.04938 17.3862 1.52437 17.3856 0Z" fill="#fff"/>
<path d="M0.831875 4.95627C1.09125 4.81377 1.39063 4.76314 1.68438 4.77002C5.3275 4.77189 8.97062 4.77002 12.6131 4.77127C12.615 6.29627 12.6138 7.82127 12.6138 9.34627C13.2456 8.78252 14.1844 8.59439 14.9806 8.88939C15.9038 9.20814 16.5619 10.1494 16.5375 11.1275C16.545 12.1644 15.7769 13.135 14.7738 13.3831C14.0244 13.5869 13.1938 13.3744 12.6138 12.8644C12.6138 13.7469 12.6144 14.6288 12.6138 15.5113C11.9275 15.5131 11.2413 15.5125 10.555 15.5119C10.4794 14.5013 10.03 13.525 9.3075 12.8144C8.53875 12.0475 7.46625 11.59 6.37875 11.5869C5.20687 11.5675 4.04375 12.0756 3.2475 12.9338C2.58812 13.6306 2.1875 14.5569 2.11063 15.5113C1.4075 15.5138 0.70375 15.5119 0 15.5125V6.24439C0.035625 5.71002 0.35625 5.20564 0.831875 4.95627Z" fill="#fff"/>
<path d="M4.05312 15.2282C4.26937 14.3707 5.00625 13.6713 5.87625 13.5063C6.6125 13.3563 7.41375 13.5863 7.95375 14.1088C8.44938 14.5738 8.7225 15.2619 8.68312 15.94C8.66062 16.4732 8.4375 16.985 8.09188 17.3875C8.97375 17.3875 9.85625 17.3869 10.7388 17.3882C10.7394 18.0738 10.7394 18.7594 10.7381 19.445C9.57062 19.5357 8.45437 20.1263 7.73125 21.0488C7.05812 21.89 6.72625 22.9957 6.8325 24.0688C6.92375 25.1088 7.42625 26.1044 8.20625 26.7988C8.89938 27.4294 9.80625 27.8094 10.7388 27.8863C10.74 28.5907 10.7388 29.2957 10.7394 30H1.46375C0.708125 29.9538 0.058125 29.3125 0 28.5575V17.3875C1.52562 17.3875 3.05125 17.3875 4.5775 17.3875C4.06312 16.81 3.8525 15.9782 4.05312 15.2282Z" fill="#fff"/>
<path d="M12.6144 17.3881C14.1212 17.3862 15.6281 17.3881 17.135 17.3868C16.5737 18.0175 16.3831 18.9543 16.6794 19.7487C17.0094 20.6981 17.9975 21.3706 19.0044 21.3068C20.0281 21.2756 20.9662 20.4962 21.1856 19.4962C21.3675 18.76 21.1537 17.955 20.6569 17.3875C22.1806 17.3881 23.7044 17.3862 25.2281 17.3881C25.2275 21.0725 25.23 24.7568 25.2269 28.4412C25.2394 29.235 24.5675 29.9456 23.7787 30H12.6144C12.6144 28.4756 12.6131 26.9506 12.615 25.4262C11.9675 26 11.0037 26.185 10.1975 25.8631C9.27187 25.52 8.63249 24.5462 8.69249 23.56C8.72312 22.535 9.50687 21.5981 10.5056 21.375C11.2425 21.1937 12.0462 21.4093 12.6144 21.9062C12.6137 20.4006 12.6131 18.8943 12.6144 17.3881Z" fill="#fff"/>
</svg>
