<svg width="34" height="30" viewBox="0 0 34 30" fill="none" xmlns="http://www.w3.org/2000/svg">
<path d="M0 15.1976C0.263085 14.6261 0.711305 14.4262 1.33048 14.4598C1.99218 14.4961 2.65831 14.4642 3.32178 14.4713C3.483 14.4731 3.61056 14.4386 3.74786 14.343C6.88362 12.1473 11.2604 13.277 12.9558 16.7201C13.0586 16.928 13.1791 17.0253 13.4182 17.0651C14.7797 17.2943 16.1412 17.5287 17.4956 17.7968C18.8934 18.0737 19.8864 19.2352 20.0228 20.7454C20.0529 21.0762 20.1442 21.017 20.3656 20.9285C22.2489 20.1739 24.1339 19.4237 26.0233 18.685C28.3459 17.7773 30.9112 18.8283 31.9033 21.0833C32.2328 21.8326 32.0875 22.2741 31.3709 22.6801C27.2023 25.0387 23.0337 27.3954 18.866 29.7548C18.5471 29.9353 18.2353 30.0211 17.857 29.9433C14.2978 29.2134 10.7369 28.4915 7.17328 27.7811C6.51955 27.6511 5.849 27.7519 5.1873 27.7351C4.92421 27.7281 4.57875 27.652 4.42107 27.7847C4.25543 27.9245 4.38387 28.281 4.37058 28.5428C4.36349 28.6862 4.37412 28.8304 4.36792 28.9737C4.33869 29.5779 3.92679 29.9804 3.32355 29.9857C2.6592 29.9919 1.99396 29.9592 1.33226 29.9955C0.713076 30.0291 0.265743 29.8265 0.00177162 29.2577C0.00177162 29.0807 0.00177162 28.9038 0.00177162 28.7269C0.265743 28.1589 0.713076 27.9324 1.33137 27.9935C1.56168 28.0165 1.79819 27.9749 2.02673 28.0023C2.32348 28.0377 2.38637 27.9333 2.38548 27.644C2.37485 24.0328 2.3784 20.4207 2.3784 16.8095C2.3784 16.7546 2.37308 16.698 2.37928 16.644C2.397 16.4998 2.33765 16.4494 2.19326 16.4538C1.90626 16.4627 1.6166 16.4353 1.33137 16.4609C0.714848 16.5167 0.266628 16.2946 0.00177162 15.7266C0 15.5515 0 15.3745 0 15.1976ZM4.36881 21.0621C4.36881 22.2997 4.36438 23.5374 4.37147 24.775C4.37324 25.0909 4.23151 25.5111 4.43082 25.6916C4.60443 25.8473 5.01811 25.7358 5.32637 25.7437C5.98984 25.7597 6.66483 25.6526 7.31412 25.7809C10.8131 26.4692 14.3058 27.1866 17.8003 27.9006C17.9527 27.9315 18.074 27.92 18.2078 27.844C21.9698 25.7101 25.7327 23.5781 29.4992 21.4522C29.6994 21.339 29.7277 21.2717 29.5532 21.109C28.7932 20.3977 27.9154 20.1756 26.9224 20.4835C26.46 20.6268 26.0144 20.825 25.5636 21.0037C23.1037 21.9768 20.6464 22.957 18.1839 23.924C17.5727 24.1637 16.9473 24.3009 16.2741 24.1752C14.4936 23.8426 12.7078 23.5365 10.9247 23.2207C10.3489 23.1189 9.95738 22.6164 10.0433 22.0901C10.1372 21.5115 10.666 21.147 11.2648 21.2541C13.0152 21.5672 14.7655 21.8804 16.515 22.1989C17.2618 22.3351 17.8668 21.9406 18.0156 21.2072C18.1582 20.5047 17.7171 19.8545 16.9898 19.7218C15.4901 19.4484 13.9922 19.168 12.4872 18.9256C11.8982 18.8309 11.5536 18.5594 11.3392 17.9923C10.2887 15.2153 6.82161 14.3121 4.57875 16.207C4.41753 16.3433 4.36172 16.4804 4.36261 16.6865C4.37324 18.1444 4.36881 19.6033 4.36881 21.0621Z" fill="#fff"/>
<path d="M34 7.57091C33.8884 7.63814 33.9114 7.76465 33.8822 7.86285C33.5066 9.13058 32.3816 9.99667 31.0574 10.0232C30.8138 10.0285 30.5693 10.0409 30.3274 10.0206C30.0794 10.0002 29.99 10.0621 29.997 10.3355C30.0174 11.175 30.0059 12.0155 30.0041 12.855C30.0024 13.6043 29.6055 14.0033 28.8614 14.0042C27.6222 14.006 26.3821 14.006 25.1428 14.0042C24.4253 14.0033 24.0302 13.615 24.0276 12.9055C24.024 12.0429 24.0196 11.1812 24.032 10.3196C24.0355 10.0984 23.9957 10.0091 23.7494 10.0197C23.2746 10.0409 22.7981 10.0347 22.3224 10.0214C22.1355 10.0161 22.0327 10.0701 21.9397 10.2426C20.8245 12.2977 19.1025 13.53 16.802 13.9219C13.2269 14.5306 9.65532 12.0783 8.89973 8.52724C8.05378 4.55153 10.6262 0.772228 14.6407 0.0928027C17.531 -0.396419 20.572 1.11725 21.9158 3.73145C22.0451 3.98269 22.1815 4.06585 22.465 4.06497C25.2314 4.05258 27.9987 4.057 30.765 4.057C32.4436 4.057 33.4614 4.82578 33.9371 6.44915C33.9442 6.47392 33.9787 6.49073 34 6.51108C34 6.86317 34 7.21704 34 7.57091ZM23.1852 8.03536C23.7494 8.03536 24.3137 8.03448 24.878 8.03536C25.6229 8.03713 26.018 8.43346 26.0198 9.18366C26.0224 10.0347 26.0304 10.8858 26.0136 11.7359C26.0091 11.9766 26.0818 12.0288 26.3085 12.0199C26.7727 12.0013 27.2386 11.9943 27.7019 12.0217C27.9827 12.0385 28.0208 11.9297 28.0173 11.6873C28.004 10.8256 28.0084 9.96305 28.0137 9.10139C28.0173 8.43435 28.4212 8.0389 29.0944 8.03536C29.7251 8.03271 30.3558 8.0389 30.9865 8.03271C31.4347 8.02828 31.789 7.78234 31.9396 7.39044C32.2018 6.70747 31.6996 6.04574 30.9121 6.04574C27.8578 6.04397 24.8044 6.04485 21.7502 6.04485C20.8945 6.04485 20.7164 5.90419 20.3807 5.13188C19.5596 3.24045 18.1033 2.16293 16.0526 2.01961C13.1968 1.81968 10.8334 4.01189 10.7298 6.87025C10.6138 10.0613 13.6211 12.5887 16.7329 11.9067C18.4895 11.521 19.7128 10.4868 20.4028 8.82714C20.6562 8.2176 20.9237 8.03624 21.5916 8.03536C22.1231 8.03448 22.6537 8.03536 23.1852 8.03536Z" fill="#fff"/>
<path d="M15.732 3.92347C17.4106 3.9279 18.7942 5.32036 18.78 6.9915C18.7659 8.67149 17.3769 10.0365 15.6957 10.0241C14.0241 10.0118 12.6733 8.64672 12.6742 6.97204C12.6751 5.28232 14.0427 3.91905 15.732 3.92347Z" fill="#fff"/>
</svg>
