<svg viewBox="0 0 27 27" fill="none" xmlns="http://www.w3.org/2000/svg">
<g opacity="0.5">
<path d="M16.6624 10.3374L10.3374 16.6624C9.5249 15.8499 9.0249 14.7374 9.0249 13.4999C9.0249 11.0249 11.0249 9.0249 13.4999 9.0249C14.7374 9.0249 15.8499 9.5249 16.6624 10.3374Z" stroke="#001538" stroke-width="2" stroke-linecap="round" stroke-linejoin="round"/>
<path d="M20.7748 5.71259C18.5873 4.0626 16.0873 3.1626 13.4998 3.1626C9.08729 3.1626 4.9748 5.76259 2.1123 10.2626C0.987305 12.0251 0.987305 14.9876 2.1123 16.7501C3.0998 18.3001 4.2498 19.6376 5.4998 20.7126" stroke="#001538" stroke-width="2" stroke-linecap="round" stroke-linejoin="round"/>
<path d="M9.0249 22.9126C10.4499 23.5126 11.9624 23.8376 13.4999 23.8376C17.9124 23.8376 22.0249 21.2376 24.8874 16.7376C26.0124 14.9751 26.0124 12.0126 24.8874 10.2501C24.4749 9.6001 24.0249 8.9876 23.5624 8.4126" stroke="#001538" stroke-width="2" stroke-linecap="round" stroke-linejoin="round"/>
<path d="M17.8873 14.375C17.5623 16.1375 16.1248 17.575 14.3623 17.9" stroke="#001538" stroke-width="2" stroke-linecap="round" stroke-linejoin="round"/>
<path d="M10.3375 16.6626L1 26.0001" stroke="#001538" stroke-width="2" stroke-linecap="round" stroke-linejoin="round"/>
<path d="M26.0001 1L16.6626 10.3375" stroke="#001538" stroke-width="2" stroke-linecap="round" stroke-linejoin="round"/>
</g>
</svg>
