<svg viewBox="0 0 27 20" fill="none" xmlns="http://www.w3.org/2000/svg">
<g opacity="0.5">
<path d="M3.25 6.625C4.49264 6.625 5.5 5.61764 5.5 4.375C5.5 3.13236 4.49264 2.125 3.25 2.125C2.00736 2.125 1 3.13236 1 4.375C1 5.61764 2.00736 6.625 3.25 6.625Z" stroke="#001538" stroke-width="2" stroke-miterlimit="10" stroke-linecap="round" stroke-linejoin="round"/>
<path d="M23.5 6.625C24.7426 6.625 25.75 5.61764 25.75 4.375C25.75 3.13236 24.7426 2.125 23.5 2.125C22.2574 2.125 21.25 3.13236 21.25 4.375C21.25 5.61764 22.2574 6.625 23.5 6.625Z" stroke="#001538" stroke-width="2" stroke-miterlimit="10" stroke-linecap="round" stroke-linejoin="round"/>
<path d="M21.25 4.375H16.75" stroke="#001538" stroke-width="2" stroke-miterlimit="10" stroke-linecap="round" stroke-linejoin="round"/>
<path d="M10 4.375H5.5" stroke="#001538" stroke-width="2" stroke-miterlimit="10" stroke-linecap="round" stroke-linejoin="round"/>
<path d="M8.3125 15.0625V17.3125C8.3125 17.9988 7.89625 18.595 7.31125 18.8425C7.0975 18.9437 6.8725 19 6.625 19H4.375C3.44125 19 2.6875 18.2462 2.6875 17.3125V15.0625C2.6875 14.1288 3.44125 13.375 4.375 13.375H6.625C7.55875 13.375 8.3125 14.1288 8.3125 15.0625Z" stroke="#001538" stroke-width="2" stroke-miterlimit="10" stroke-linecap="round" stroke-linejoin="round"/>
<path d="M24.0625 15.0625V17.3125C24.0625 18.2462 23.3087 19 22.375 19H20.125C19.8775 19 19.6525 18.9437 19.4387 18.8425C18.8537 18.595 18.4375 17.9988 18.4375 17.3125V15.0625C18.4375 14.1288 19.1913 13.375 20.125 13.375H22.375C23.3087 13.375 24.0625 14.1288 24.0625 15.0625Z" stroke="#001538" stroke-width="2" stroke-miterlimit="10" stroke-linecap="round" stroke-linejoin="round"/>
<path d="M16.75 2.6875V6.0625C16.75 6.985 15.985 7.75 15.0625 7.75H11.6875C10.765 7.75 10 6.985 10 6.0625V2.6875C10 1.765 10.765 1 11.6875 1H15.0625C15.985 1 16.75 1.765 16.75 2.6875Z" stroke="#001538" stroke-width="2" stroke-miterlimit="10" stroke-linecap="round" stroke-linejoin="round"/>
<path d="M16.75 5.19629C19.4162 6.54629 21.25 9.44881 21.25 12.8126C21.25 13.0038 21.2387 13.1838 21.2162 13.3751" stroke="#001538" stroke-width="2" stroke-miterlimit="10" stroke-linecap="round" stroke-linejoin="round"/>
<path d="M5.53375 13.3751C5.51125 13.1838 5.5 13.0038 5.5 12.8126C5.5 9.44881 7.33375 6.54629 10 5.19629" stroke="#001538" stroke-width="2" stroke-miterlimit="10" stroke-linecap="round" stroke-linejoin="round"/>
</g>
</svg>
