<svg width="22" height="24" viewBox="0 0 22 24" fill="none" xmlns="http://www.w3.org/2000/svg">
<path d="M17.8141 23H18.0849C18.6849 22.9639 19.2709 22.7336 19.7126 22.3421C20.1857 21.9254 20.4862 21.335 20.5343 20.7218C20.5928 20.0506 20.3445 19.3627 19.8687 18.8664C19.4112 18.3817 18.7447 18.0861 18.0619 18.0616C17.6441 18.0423 17.2271 18.1329 16.8471 18.2966C15.827 16.9208 14.8065 15.5458 13.7891 14.1682C14.385 13.5821 14.7219 12.773 14.7295 11.9575C15.5162 11.8066 16.3033 11.6588 17.0904 11.5084C17.327 12.0021 17.775 12.4009 18.3178 12.5689C18.8585 12.7404 19.4747 12.6815 19.969 12.4104C20.5168 12.1164 20.9085 11.5673 20.9827 10.9696C21.0372 10.5726 20.9625 10.1584 20.7637 9.80516C20.5091 9.33981 20.0477 8.98273 19.5178 8.84223C19.033 8.71074 18.4959 8.75543 18.0462 8.975C17.546 9.21176 17.1579 9.65519 17.0045 10.1678C16.9478 10.3332 16.9402 10.5086 16.9114 10.6791C16.1468 10.8192 15.3822 10.9623 14.6203 11.1157C14.5164 10.8867 14.4561 10.6392 14.3162 10.4256C14.1075 10.0303 13.7859 9.70418 13.4378 9.41801C14.4237 8.02625 15.4092 6.63406 16.3964 5.2436C16.8403 5.42578 17.3387 5.49152 17.8141 5.39742C18.6093 5.24961 19.3159 4.6777 19.5565 3.93305C19.7072 3.51582 19.7211 3.05305 19.5934 2.62852C19.4441 2.04672 19.0091 1.54957 18.4627 1.26512C18.1501 1.10957 17.8024 1.0318 17.4529 1H17.3657C16.8241 1.01676 16.2763 1.17832 15.8643 1.52379C15.3017 1.96551 14.999 2.67492 15.048 3.36543C15.0799 3.87762 15.3026 4.37477 15.6709 4.74859C14.672 6.16141 13.6699 7.5725 12.6696 8.98402C11.7975 8.63426 10.7774 8.65617 9.92237 9.04289C9.09389 7.92527 8.26765 6.80637 7.43962 5.68918C7.35237 5.59594 7.50034 5.50742 7.54172 5.42707C7.89254 4.95699 8.06481 4.37004 8.03332 3.79426C7.99734 3.06852 7.63392 2.35953 7.04472 1.89762C6.52253 1.48039 5.83438 1.25953 5.15432 1.29176C4.39151 1.32055 3.65118 1.67332 3.16408 2.23363C2.79976 2.64785 2.57712 3.17164 2.53035 3.71004C2.46378 4.43192 2.7314 5.1727 3.24459 5.70551C3.71955 6.20695 4.405 6.51762 5.1116 6.55672C5.67066 6.59453 6.23423 6.45317 6.71459 6.18074C7.53542 7.28977 8.35671 8.39793 9.1762 9.50738C8.99989 9.65906 8.83212 9.82063 8.68909 10.0024C7.93662 10.9455 7.78865 12.2913 8.34142 13.3574C6.9903 14.3581 5.64098 15.361 4.29031 16.3622C3.66647 15.9084 2.76513 15.8246 2.07788 16.1963C1.67668 16.4034 1.34699 16.7382 1.16933 17.1404C0.956141 17.6048 0.942198 18.151 1.1392 18.6223C1.3335 19.1088 1.741 19.5144 2.24474 19.7142C2.74399 19.9204 3.33139 19.9217 3.83109 19.7172C4.44233 19.48 4.91055 18.9399 5.04233 18.3229C5.14713 17.8824 5.06392 17.4188 4.86152 17.0153C6.1861 16.03 7.51249 15.0478 8.83842 14.0642C9.3768 14.6499 10.1419 15.0422 10.9533 15.1333C11.6913 15.2248 12.4546 15.0637 13.0937 14.7023C14.1026 16.0653 15.1132 17.427 16.122 18.7895C15.7582 19.1543 15.4964 19.6158 15.4128 20.1159C15.2733 20.8868 15.5423 21.7174 16.1247 22.2695C16.5687 22.7027 17.1844 22.954 17.8141 23Z" fill="white" stroke="white"/>
</svg>
