<svg viewBox="0 0 27 23" fill="none" xmlns="http://www.w3.org/2000/svg">
<g opacity="0.5">
<path d="M17.6842 11.3365C17.6842 13.8082 15.6869 15.8055 13.2151 15.8055C10.7434 15.8055 8.74609 13.8082 8.74609 11.3365C8.74609 8.86477 10.7434 6.86743 13.2151 6.86743C15.6869 6.86743 17.6842 8.86477 17.6842 11.3365Z" stroke="#001538" stroke-width="2" stroke-linecap="round" stroke-linejoin="round"/>
<path d="M13.215 21.66C17.6216 21.66 21.7287 19.0635 24.5874 14.5694C25.7109 12.8093 25.7109 9.85072 24.5874 8.09057C21.7287 3.59655 17.6216 1 13.215 1C8.80836 1 4.70133 3.59655 1.84263 8.09057C0.719124 9.85072 0.719124 12.8093 1.84263 14.5694C4.70133 19.0635 8.80836 21.66 13.215 21.66Z" stroke="#001538" stroke-width="2" stroke-linecap="round" stroke-linejoin="round"/>
</g>
</svg>
