<svg viewBox="0 0 26 26" fill="none" xmlns="http://www.w3.org/2000/svg">
<path opacity="0.5" d="M25 20.596C25 21.028 24.9039 21.472 24.6995 21.904C24.4952 22.336 24.2308 22.744 23.8823 23.128C23.2934 23.776 22.6445 24.244 21.9114 24.544C21.1903 24.844 20.4091 25 19.5679 25C18.342 25 17.032 24.712 15.65 24.124C14.2679 23.536 12.8858 22.744 11.5158 21.748C10.1337 20.74 8.82374 19.624 7.57386 18.388C6.336 17.14 5.21833 15.832 4.22083 14.464C3.23535 13.096 2.44216 11.728 1.8653 10.372C1.28843 9.004 1 7.696 1 6.448C1 5.632 1.14422 4.852 1.43265 4.132C1.72108 3.4 2.17777 2.728 2.81472 2.128C3.58388 1.372 4.42514 1 5.31447 1C5.65098 1 5.98748 1.072 6.28793 1.216C6.6004 1.36 6.87682 1.576 7.09314 1.888L9.88132 5.812C10.0976 6.112 10.2539 6.388 10.362 6.652C10.4702 6.904 10.5303 7.156 10.5303 7.384C10.5303 7.672 10.4462 7.96 10.2779 8.236C10.1217 8.512 9.89334 8.8 9.60491 9.088L8.69154 10.036C8.55934 10.168 8.49925 10.324 8.49925 10.516C8.49925 10.612 8.51127 10.696 8.5353 10.792C8.57136 10.888 8.60741 10.96 8.63145 11.032C8.84777 11.428 9.22033 11.944 9.74912 12.568C10.2899 13.192 10.8668 13.828 11.4917 14.464C12.1407 15.1 12.7656 15.688 13.4026 16.228C14.0275 16.756 14.5443 17.116 14.9529 17.332C15.013 17.356 15.0851 17.392 15.1693 17.428C15.2654 17.464 15.3615 17.476 15.4697 17.476C15.674 17.476 15.8302 17.404 15.9624 17.272L16.8758 16.372C17.1763 16.072 17.4647 15.844 17.7411 15.7C18.0175 15.532 18.2939 15.448 18.5944 15.448C18.8227 15.448 19.0631 15.496 19.3275 15.604C19.5919 15.712 19.8683 15.868 20.1688 16.072L24.1467 18.892C24.4592 19.108 24.6755 19.36 24.8077 19.66C24.9279 19.96 25 20.26 25 20.596Z" stroke="#001538" stroke-width="2" stroke-miterlimit="10"/>
</svg>
