<svg width="129" height="127" viewBox="0 0 129 127" fill="none" xmlns="http://www.w3.org/2000/svg">
<g opacity="0.1">
<path d="M107.231 138.632C90.4775 146.092 73.7237 153.551 56.973 161.009C52.812 162.861 49.5783 161.612 47.723 157.445C33.9276 126.46 20.1337 95.4788 6.33835 64.4939C4.52092 60.4119 5.77749 57.1523 9.86147 55.3302C10.9631 54.8398 12.0647 54.3493 13.1663 53.8588C14.8313 53.1175 14.8533 53.1077 14.1131 51.4876C13.3439 49.7937 13.2109 48.0804 13.9525 46.3662C14.9833 43.9802 16.8126 42.634 19.4295 42.5399C22.0387 42.4454 23.9824 43.6429 25.1984 45.9336C26.3006 48.0111 26.2642 48.031 28.3919 47.0837C32.0901 45.4372 35.7852 43.792 39.4835 42.1454C41.2555 41.3565 41.2555 41.3565 40.4953 39.5982C39.3581 36.9594 39.9467 34.0801 41.9871 32.293C45.0904 29.5726 49.889 30.5586 51.6947 34.2838C52.6618 36.2781 52.6618 36.2781 54.7076 35.3672C58.4846 33.6856 62.2584 32.0054 66.0353 30.3238C67.694 29.5853 67.694 29.5853 66.9779 27.9431C65.7893 25.2141 66.3486 22.3366 68.4243 20.5186C71.5289 17.8014 76.3244 18.7888 78.1301 22.514C79.0958 24.5051 79.0958 24.5051 81.1448 23.5928C84.9595 21.8944 88.7742 20.196 92.5889 18.4976C94.1311 17.811 94.1311 17.811 93.4606 16.288C92.2177 13.4625 92.7521 10.5885 94.8582 8.7457C97.9643 6.03159 102.76 7.01899 104.564 10.7488C105.525 12.7381 105.525 12.7381 107.58 11.8231C108.72 11.3158 109.858 10.7977 111.003 10.303C114.378 8.84551 117.856 10.1857 119.388 13.5578C120.579 16.1837 121.736 18.8249 122.909 21.4592C135.584 49.9262 148.258 78.3933 160.934 106.863C162.895 111.27 161.688 114.394 157.26 116.366C140.582 123.784 123.906 131.208 107.231 138.632ZM70.3575 55.5328C53.0969 63.2177 35.8405 70.9121 18.5659 78.5655C17.6172 78.9842 17.4155 79.2851 17.8699 80.2972C29.103 105.442 40.2983 130.604 51.4999 155.764C52.4248 157.841 53.2393 158.146 55.3387 157.211C88.7991 142.314 122.26 127.416 155.72 112.518C157.826 111.581 158.146 110.767 157.225 108.699C146.024 83.54 134.816 58.3836 123.646 33.2103C123.2 32.2094 122.855 32.1292 121.897 32.5598C104.729 40.2411 87.5394 47.883 70.3575 55.5328ZM68.5469 51.8136C83.9222 44.9681 99.3006 38.1211 114.676 31.2756C116.681 30.383 118.68 29.4701 120.699 28.6089C121.248 28.3759 121.39 28.1617 121.125 27.5746C119.262 23.4566 117.448 19.3161 115.586 15.2013C115 13.9011 113.945 13.5485 112.598 14.1144C111.449 14.5996 110.313 15.124 109.174 15.6313C107.2 16.51 107.2 16.51 108.023 18.5194C109.17 21.316 108.225 24.4445 105.715 26.1428C103.336 27.7527 99.9766 27.3741 97.8974 25.2791C97.1522 24.5286 96.6402 23.6328 96.3125 22.6511C96.0163 21.7572 95.6657 21.5965 94.7568 22.02C90.7736 23.8651 86.7452 25.6172 82.7353 27.4025C80.7682 28.2783 80.7682 28.2783 81.5954 30.2972C82.7424 33.0938 81.7877 36.2266 79.2781 37.9171C76.8959 39.5208 73.5353 39.139 71.4592 37.0426C70.714 36.2921 70.2006 35.3931 69.8806 34.4118C69.5806 33.5007 69.216 33.3765 68.3214 33.7898C64.3368 35.6318 60.3098 37.387 56.3 39.1723C54.3423 40.0439 54.3423 40.0439 55.1723 42.0691C56.3148 44.8639 55.3569 47.9981 52.8428 49.6869C50.4591 51.2874 47.094 50.9039 45.0242 48.8047C44.3147 48.0835 43.7912 47.2381 43.5006 46.2889C43.1816 45.2506 42.7432 45.1554 41.7651 45.6097C37.942 47.391 34.0682 49.0668 30.2171 50.7851C29.4743 51.1159 28.4267 51.2957 28.1 51.8748C27.7433 52.505 28.5732 53.3272 28.8511 54.0784C29.8722 56.8632 28.7475 60.0716 26.1871 61.5887C23.5854 63.1317 20.1985 62.5127 18.2503 60.1784C17.5974 59.3981 17.2232 58.4899 16.8571 57.5744C16.6213 56.9855 16.362 56.9199 15.8074 57.1819C14.3292 57.8853 12.8233 58.5181 11.331 59.19C9.64506 59.9519 9.27731 60.8963 10.028 62.5909C11.7369 66.446 13.4943 70.2832 15.1465 74.1635C15.5652 75.1461 15.9032 75.2785 16.8901 74.8353C34.094 67.1417 51.321 59.4831 68.5469 51.8136ZM23.2273 51.6119C22.7032 50.4348 22.1949 49.2507 21.6533 48.0852C21.0582 46.8078 19.9525 46.3234 18.8386 46.8117C17.7248 47.3001 17.3166 48.4586 17.8774 49.7437C18.9203 52.1455 19.9853 54.5374 21.0723 56.9195C21.6468 58.1759 22.8169 58.6355 23.9153 58.1125C24.9634 57.6119 25.3548 56.4835 24.8464 55.2655C24.3293 54.0363 23.765 52.8281 23.2273 51.6119ZM49.6662 39.8669C49.1421 38.6899 48.6338 37.5058 48.0922 36.3403C47.4929 35.0534 46.406 34.5606 45.288 35.0395C44.1654 35.5167 43.746 36.6839 44.2981 37.9579C45.341 40.3596 46.406 42.7515 47.493 45.1336C48.0703 46.3964 49.2228 46.8675 50.3255 46.3539C51.4218 45.8432 51.7863 44.6966 51.2338 43.3964C50.7286 42.2109 50.1888 41.0409 49.6662 39.8669ZM76.0886 28.0765C75.5645 26.8994 75.0562 25.7154 74.5146 24.5498C73.9195 23.2724 72.8138 22.788 71.6999 23.2764C70.5861 23.7647 70.1779 24.9232 70.7387 26.2083C71.7817 28.6101 72.8466 31.002 73.9336 33.3841C74.5081 34.6406 75.6782 35.1001 76.7766 34.5771C77.8247 34.0765 78.2161 32.9482 77.7078 31.7302C77.1906 30.501 76.6263 29.2928 76.0886 28.0765ZM102.519 16.3127C101.995 15.1356 101.487 13.9515 100.945 12.786C100.35 11.5086 99.2443 11.0241 98.1304 11.5125C97.0166 12.0009 96.6084 13.1594 97.1678 14.4414C98.2107 16.8431 99.2757 19.235 100.363 21.6171C100.937 22.8736 102.107 23.3331 103.206 22.8101C104.254 22.3096 104.645 21.1812 104.137 19.9632C103.623 18.7326 103.06 17.5275 102.519 16.3127Z" fill="white"/>
<path d="M112.916 113.487C103.163 117.83 93.3893 122.121 83.676 126.555C81.7928 127.416 80.1719 127.587 78.3099 126.666C76.7738 125.909 76.6007 125.986 76.1532 127.573C75.5777 129.61 74.3558 130.753 72.3987 131.576C66.2506 134.166 60.1891 136.959 54.0911 139.67C52.2372 140.495 51.3366 140.15 50.5154 138.305C48.9891 134.886 47.4628 131.466 45.946 128.042C45.2078 126.376 45.5256 125.48 47.1056 124.675C52.1455 122.103 54.2686 116.266 52.013 111.192C49.7541 106.118 43.9947 103.788 38.7124 105.815C37.1054 106.433 36.1789 106.079 35.4859 104.54C33.8983 101.008 32.3219 97.4675 30.7595 93.9244C30.0806 92.3826 30.4644 91.3896 32.0053 90.6998C38.6862 87.7139 45.384 84.7658 52.051 81.7485C53.2442 81.2097 54.218 81.6435 55.2565 82.0447C57.5308 82.9177 57.6099 82.9428 58.3459 80.6994C58.8441 79.184 59.7391 78.3142 61.2009 77.6671C81.2761 68.7819 101.325 59.8369 121.38 50.9076C123.637 49.9028 124.386 50.1877 125.385 52.4317C126.855 55.7332 128.329 59.0365 129.796 62.3393C130.568 64.0812 130.26 64.9573 128.605 65.7962C123.606 68.3346 121.497 74.2365 123.784 79.3049C126.037 84.3056 131.815 86.6432 136.998 84.6483C138.737 83.9797 139.588 84.3325 140.366 86.0715C141.896 89.4898 143.419 92.9108 144.936 96.3347C145.719 98.1017 145.359 99.0311 143.589 99.8232C133.365 104.382 123.139 108.935 112.916 113.487ZM110.599 109.993C111.937 109.398 113.274 108.802 114.609 108.208C122.906 104.514 131.202 100.82 139.5 97.1293C140.092 96.8659 140.686 96.7675 140.2 95.8034C139.197 93.806 138.326 91.7389 137.458 89.6782C137.194 89.0525 136.895 89.0422 136.287 89.1661C129.381 90.5704 122.728 87.1741 119.952 80.8715C117.203 74.6287 119.155 67.4428 124.791 63.312C125.405 62.8614 125.391 62.5585 125.119 61.9742C124.252 60.1016 123.365 58.2297 122.616 56.3084C122.226 55.3054 121.856 55.1948 120.872 55.6365C102.919 63.6713 84.9706 71.7265 66.9458 79.6008C63.8546 80.9506 61.3505 82.4163 60.7833 85.9874C60.7753 86.0287 60.7504 86.0661 60.7347 86.1071C60.1119 87.5459 59.2097 87.9589 57.7387 87.4335C56.4819 86.9824 55.2422 86.4935 54.0025 86.0046C53.5917 85.8443 53.2296 85.7679 52.784 85.9701C47.1666 88.49 41.5466 90.9959 35.9123 93.4781C35.3255 93.7356 35.2774 93.9833 35.5321 94.5298C36.488 96.6007 37.4219 98.6814 38.3118 100.782C38.5739 101.404 38.8709 101.419 39.4826 101.294C46.3224 99.8927 52.972 103.249 55.764 109.469C58.5843 115.744 56.6572 122.953 50.9785 127.148C50.3659 127.602 50.3847 127.906 50.6516 128.489C51.5543 130.44 52.449 132.399 53.2681 134.391C53.5894 135.172 53.8931 135.278 54.6614 134.928C58.8513 133.014 63.0016 130.985 67.2963 129.348C70.4722 128.138 72.8828 126.522 73.4588 122.962C73.4668 122.92 73.4902 122.88 73.5074 122.842C74.1235 121.414 75.0258 121.001 76.5076 121.525C77.6447 121.928 78.7801 122.335 79.881 122.825C80.6098 123.149 81.2101 123.108 81.942 122.779C91.4868 118.491 101.044 114.248 110.599 109.993Z" fill="white"/>
<path d="M90.0128 109.776C89.3072 107.04 88.5422 104.22 87.8722 101.377C87.7074 100.685 87.3892 100.385 86.7667 100.165C84.2527 99.2701 81.7614 98.3164 79.2541 97.4114C78.3146 97.0717 77.5031 96.6298 77.3737 95.5259C77.2481 94.4391 77.8602 93.7895 78.7327 93.2502C81.0374 91.8281 83.2931 90.3298 85.6108 88.9283C86.2133 88.562 86.4089 88.1543 86.4264 87.4904C86.5058 84.7888 86.6514 82.0918 86.7308 79.3902C86.7613 78.366 87.0154 77.5137 88.0265 77.0824C88.9871 76.6735 89.7671 77.0616 90.5014 77.6775C92.572 79.4142 94.672 81.1153 96.7216 82.8727C97.2743 83.3432 97.7361 83.4317 98.4475 83.2168C101.08 82.4217 103.745 81.7406 106.389 80.9783C107.301 80.7153 108.074 80.8163 108.739 81.5308C109.427 82.2695 109.348 83.0849 109.013 83.932C107.996 86.4929 106.995 89.0576 105.948 91.6017C105.677 92.262 105.711 92.737 106.143 93.3517C107.677 95.5271 109.129 97.7621 110.602 99.9795C111.15 100.803 111.512 101.667 110.94 102.627C110.376 103.572 109.484 103.694 108.473 103.616C105.78 103.413 103.079 103.276 100.383 103.066C99.7579 103.016 99.3725 103.184 98.9876 103.684C97.2599 105.927 95.5158 108.16 93.7331 110.356C92.5639 111.804 90.6961 111.531 90.0128 109.776ZM103.46 86.0986C101.708 86.5846 99.9181 87.0196 98.1701 87.5829C97.0198 87.9555 96.107 87.7774 95.2046 86.9874C93.7962 85.7553 92.3291 84.5946 90.7243 83.2689C90.6385 85.3209 90.5214 87.1417 90.4998 88.9652C90.4877 90.2 90.0482 91.0594 88.9431 91.6947C87.3426 92.6147 85.8192 93.6739 84.3344 94.6253C86.0028 95.3231 87.5509 96.0895 89.1806 96.6159C90.6372 97.0837 91.3507 97.9916 91.6598 99.4228C92.0264 101.119 92.4959 102.792 92.9676 104.656C94.2399 103.041 95.4154 101.624 96.5059 100.143C97.2434 99.1392 98.1285 98.73 99.3739 98.8506C101.191 99.026 103.018 99.0909 105.075 99.22C103.9 97.4277 102.906 95.8224 101.816 94.29C101.163 93.3739 101.141 92.5201 101.529 91.5103C102.209 89.7517 102.805 87.9554 103.46 86.0986Z" fill="white"/>
<path d="M61.268 91.2437C63.1218 90.4183 63.1218 90.4183 63.9247 92.2217C64.8033 94.195 64.8033 94.195 62.8834 95.0498C61.0295 95.8752 61.0295 95.8752 60.2266 94.0718C59.348 92.0985 59.348 92.0985 61.268 91.2437Z" fill="white"/>
<path d="M63.5 101.424C62.7111 99.6519 62.7111 99.6519 64.4768 98.8657C66.4848 97.9717 66.4848 97.9717 67.376 99.9733C68.1649 101.745 68.1649 101.745 66.3992 102.531C64.3912 103.425 64.3912 103.425 63.5 101.424Z" fill="white"/>
<path d="M70.7167 107.477C71.5266 109.296 71.5266 109.296 69.6885 110.114C67.7528 110.976 67.7528 110.976 66.8812 109.018C66.0713 107.199 66.0713 107.199 67.9094 106.381C69.8451 105.519 69.8451 105.519 70.7167 107.477Z" fill="white"/>
<path d="M71.4126 113.868C73.2066 113.069 73.2066 113.069 74.0362 114.932C74.8867 116.843 74.8867 116.843 73.0235 117.672C71.113 118.523 71.113 118.523 70.2834 116.66C69.4329 114.749 69.4329 114.749 71.4126 113.868Z" fill="white"/>
</g>
</svg>
