<svg width="159" height="164" viewBox="0 0 159 164" fill="none" xmlns="http://www.w3.org/2000/svg">
<path d="M48.6552 94.6572C47.1203 93.8988 45.7995 93.2933 44.5274 92.6004C43.9723 92.2964 43.5807 92.54 43.1329 92.7394C38.4143 94.8403 33.6971 96.9442 28.9741 99.0433C25.165 100.736 21.9281 99.5158 20.2491 95.7446C14.4361 82.6885 8.62455 69.6355 2.81465 56.5781C1.13424 52.8038 2.38619 49.5818 6.18956 47.8848C21.64 41.0059 37.0934 34.1255 52.5438 27.2466C56.4095 25.5255 59.5874 26.7605 61.3224 30.6492C62.4267 33.1214 63.569 35.5803 64.6049 38.0793C64.9756 38.9691 65.3024 39.1047 66.204 38.7032C82.0217 31.6243 97.86 24.5835 113.691 17.535C117.794 15.7082 120.877 16.9016 122.716 21.0323C128.46 33.933 134.205 46.8368 139.949 59.7375C141.736 63.7524 140.521 66.885 136.482 68.6834C130.621 71.2928 124.766 73.9145 118.893 76.4965C118.215 76.7945 117.882 77.1871 117.688 77.8979C116.601 81.8751 115.484 85.8435 114.316 89.7947C113.7 91.8793 112.063 93.1375 110.05 93.2563C108.071 93.3707 106.287 92.2488 105.404 90.306C104.645 88.636 103.91 86.9596 103.164 85.2841C102.508 83.8098 102.508 83.8098 101.009 84.4771C98.8522 85.4373 98.8522 85.4373 99.8246 87.6214C104.026 97.0586 108.232 106.497 112.431 115.936C114.121 119.732 112.886 122.968 109.106 124.651C102.942 127.399 96.7858 130.165 90.5985 132.862C89.6667 133.269 89.6013 133.631 90.0142 134.476C90.8729 136.233 91.6369 138.039 92.4178 139.834C93.2774 141.805 92.9344 143.863 91.534 145.268C90.0865 146.723 88.0181 147.078 86.0003 146.104C82.3223 144.336 78.6592 142.536 75.0204 140.692C74.3038 140.328 73.7556 140.368 73.0564 140.683C67.1667 143.334 61.2665 145.954 55.3633 148.575C51.5809 150.27 48.3525 149.028 46.664 145.236C41.3905 133.399 36.1214 121.565 30.854 109.726C29.2007 106.013 30.4554 102.764 34.1704 101.106C38.9198 98.9843 43.6716 96.876 48.6552 94.6572ZM42.4026 125.835C45.0283 131.732 47.6524 137.634 50.2811 143.53C51.1139 145.401 51.9561 145.727 53.8204 144.896C60.2919 142.019 66.7661 139.147 73.2211 136.24C73.8929 135.938 74.4106 135.944 75.072 136.274C79.1277 138.308 83.2077 140.299 87.286 142.294C87.7141 142.501 88.165 142.899 88.6451 142.411C89.1049 141.944 88.7762 141.484 88.5769 141.036C87.2928 138.144 86.044 135.233 84.6899 132.372C84.2739 131.495 84.4741 131.223 85.2979 130.86C92.6969 127.606 100.072 124.307 107.455 121.017C109.195 120.242 109.568 119.343 108.822 117.667C104.42 107.772 100.005 97.8816 95.6246 87.9766C95.2967 87.232 95.0167 87.1194 94.2774 87.4595C90.3746 89.2446 86.4463 90.9644 82.5272 92.7129C80.9218 93.4277 79.3079 93.4674 77.679 92.8092C75.8536 92.0707 74.7435 90.6596 74.1211 88.8598C73.829 88.0153 73.4799 87.9444 72.6903 88.3106C69.7067 89.701 66.6947 91.0274 63.6732 92.3326C62.9881 92.6303 62.7015 92.8966 62.7596 93.7649C62.9864 97.3323 59.5299 99.7181 56.2279 98.3521C55.5743 98.081 54.9281 97.7774 54.3232 97.4189C53.6543 97.0232 53.0791 97.0347 52.3507 97.3663C46.8868 99.8428 41.3986 102.264 35.9198 104.707C34.0585 105.536 33.7432 106.377 34.5756 108.255C37.1837 114.113 39.7932 119.974 42.4026 125.835ZM30.9957 41.2205C23.3101 44.6423 15.6245 48.0642 7.93587 51.4874C5.9863 52.3554 5.6723 53.1668 6.53624 55.1073C12.2963 68.0445 18.0563 80.9818 23.8164 93.9191C24.7047 95.9144 25.4992 96.2067 27.5402 95.298C32.6761 93.0114 37.8259 90.7477 42.9401 88.4123C43.7981 88.0194 44.4371 88.0853 45.2472 88.4948C49.187 90.4819 53.1563 92.4122 57.1239 94.3469C57.5797 94.5674 58.0618 95.0353 58.5839 94.478C59.0322 94.001 58.6736 93.5401 58.477 93.0984C57.1929 90.2062 55.935 87.2987 54.5961 84.4309C54.2353 83.6535 54.3072 83.3477 55.1294 82.9889C61.3095 80.2848 67.4669 77.5215 73.6325 74.7764C75.5089 73.9409 75.8439 73.0946 75.0206 71.2456C69.246 58.2674 63.4697 45.2935 57.689 32.318C56.8304 30.3897 56.0082 30.0842 54.0556 30.9536C46.3669 34.3768 38.6813 37.7986 30.9957 41.2205ZM91.6861 31.7124C83.7324 35.2536 75.7856 38.81 67.8156 42.3147C66.9156 42.7117 66.8085 43.0368 67.2079 43.9175C71.1041 52.5782 74.9498 61.265 78.8246 69.9352C79.7228 71.9444 79.6773 73.8918 78.5698 75.7902C77.7547 77.1897 76.4694 78.0248 74.979 78.5387C74.1846 78.8121 74.1317 79.1605 74.4694 79.8862C75.6326 82.3759 76.7211 84.9026 77.843 87.4144C78.71 89.3535 79.5245 89.6661 81.471 88.7995C88.8564 85.5149 96.2414 82.2378 103.612 78.9198C104.354 78.5858 104.641 78.6808 104.962 79.4356C106.221 82.3864 107.553 85.3046 108.858 88.2351C109.057 88.6829 109.183 89.2364 109.842 89.1912C110.518 89.1424 110.525 88.5441 110.654 88.0887C111.867 83.8439 113.089 79.6026 114.255 75.3454C114.502 74.4399 114.899 73.8799 115.808 73.4863C122.182 70.7028 128.53 67.851 134.885 65.0218C136.85 64.147 137.177 63.3332 136.323 61.4141C130.548 48.4359 124.77 35.459 118.988 22.4804C118.161 20.6222 117.315 20.3052 115.439 21.1407C107.517 24.6639 99.6032 28.1875 91.6861 31.7124ZM66.4938 86.7149C67.4838 86.2741 68.4708 85.8347 69.4608 85.3939C72.0653 84.2343 72.0349 84.2479 70.8816 81.5675C70.5463 80.7897 70.2757 80.5999 69.4566 80.9902C67.0894 82.1171 64.6744 83.1449 62.277 84.2123C59.3709 85.5061 59.4014 85.4926 60.7294 88.3688C61.0532 89.0715 61.3505 89.0341 61.9346 88.7557C63.4367 88.0468 64.9707 87.393 66.4938 86.7149Z" fill="#F1F5FB"/>
<path d="M66.4938 86.7149C64.9707 87.3931 63.4398 88.0455 61.933 88.7602C61.3488 89.0385 61.0502 89.0729 60.7277 88.3733C59.3997 85.497 59.3692 85.5106 62.2753 84.2167C64.6727 83.1493 67.0877 82.1216 69.4549 80.9946C70.274 80.6044 70.5477 80.7928 70.88 81.572C72.0301 84.2537 72.0636 84.2387 69.4591 85.3984C68.4708 85.8347 67.4808 86.2755 66.4938 86.7149Z" fill="#FEFEFE"/>
<path d="M79.6187 110.021C75.6217 105.544 77.5656 99.1706 82.3128 97.1994C85.1966 96.003 87.9619 96.3523 90.4184 98.2954C92.8808 100.243 93.886 102.862 93.2681 105.926C93.0322 107.093 93.3529 107.231 94.344 107.432C98.2624 108.232 101.102 110.493 102.851 114.095C103.361 115.141 103.785 116.234 104.292 117.282C104.526 117.766 104.442 117.963 103.952 118.215C100.992 119.733 101.002 119.747 99.6171 116.644C97.7004 112.347 94.1151 110.41 89.9259 111.421C88.601 111.741 87.4859 112.442 86.4823 113.352C85.9751 113.812 85.8625 114.092 86.3694 114.739C88.3473 117.271 89.6798 120.214 91.41 122.912C91.6557 123.291 91.5468 123.489 91.1914 123.691C90.3626 124.166 89.532 124.646 88.7351 125.176C88.132 125.576 88.0396 125.073 87.8454 124.743C86.5235 122.529 85.2585 120.278 83.8737 118.102C81.4304 114.262 76.6182 112.857 72.4783 114.7C68.3429 116.545 66.173 121.066 67.3947 125.45C68.088 127.933 68.8856 130.389 69.6923 132.84C69.9013 133.473 69.806 133.735 69.1425 133.851C68.1269 134.03 66.9307 135.041 66.2407 134.548C65.5304 134.043 65.4228 132.646 65.1195 131.62C64.4378 129.31 63.4508 127.085 63.1651 124.665C63.0749 123.913 62.507 124.195 62.1072 124.223C56.8247 124.582 53.3431 130.093 55.285 135.028C55.7272 136.152 56.2165 137.259 56.7579 138.336C57.0691 138.953 56.8763 139.159 56.3151 139.424C53.4453 140.775 53.5038 140.767 52.1473 137.892C50.145 133.641 50.2354 129.523 52.7781 125.544C53.2439 124.811 52.7779 124.749 52.3502 124.501C49.3788 122.787 47.859 119.726 48.3261 116.43C48.7791 113.25 51.174 110.538 54.177 109.814C57.5888 108.992 60.7891 110.195 62.8379 113.043C63.6685 114.195 64.0113 115.506 64.2218 116.872C64.2577 116.969 64.2859 117.139 64.3333 117.147C64.4861 117.171 64.489 117.038 64.4703 116.922C64.9591 116.208 65.4465 115.491 65.9799 114.713C63.56 113.451 61.8521 111.624 61.3885 108.877C60.8076 105.416 61.9843 102.607 64.8883 100.694C67.6722 98.8632 70.659 98.8657 73.475 100.649C76.3361 102.459 77.6204 105.18 77.0551 108.534C76.8416 109.801 77.1293 110.111 78.2682 110.078C78.6748 110.065 79.0832 110.179 79.4926 110.237C79.5691 110.327 79.6698 110.414 79.7516 110.286C79.7773 110.246 79.6638 110.114 79.6187 110.021ZM67.6429 103.716C65.6489 104.575 64.692 106.91 65.519 108.907C66.3648 110.954 68.7658 111.936 70.7946 111.066C72.7794 110.211 73.7401 107.86 72.9202 105.871C72.0758 103.827 69.6717 102.846 67.6429 103.716ZM59.8977 115.965C59.0371 113.983 56.6855 113.03 54.6973 113.86C52.6468 114.715 51.6797 117.109 52.5634 119.143C53.4253 121.128 55.7756 122.078 57.7638 121.248C59.8051 120.397 60.7759 117.987 59.8977 115.965ZM83.8557 100.878C81.8685 101.752 80.9335 104.095 81.7772 106.088C82.6412 108.127 85.0477 109.089 87.0684 108.2C89.0464 107.331 89.9864 104.974 89.1454 102.987C88.2889 100.948 85.8794 99.9878 83.8557 100.878Z" fill="#F1F5FB"/>
<path d="M57.6903 51.9802C59.1748 55.462 59.4521 59.0361 57.9417 62.5301C55.2156 68.8357 52.3151 75.0692 49.504 81.3396C49.2735 81.8547 49.0372 81.9964 48.4707 81.8143C41.8903 79.6924 35.2379 77.7778 28.7325 75.4473C20.5728 72.5247 17.3836 62.3775 22.2603 55.5817C25.0178 51.7405 29.8496 49.9761 34.5104 51.1313C35.1511 51.2914 35.5476 51.4032 35.9714 50.6086C40.2426 42.6004 51.2246 42.0654 56.3436 49.5867C56.856 50.3441 57.362 51.1116 57.6903 51.9802ZM54.0101 53.5931C53.926 53.4043 53.8558 53.2056 53.7535 53.0249C52.0763 50.0449 49.6276 48.1932 46.1157 48.3478C42.6218 48.5018 40.2205 50.3556 38.9802 53.6528C38.7463 54.2752 38.4504 54.8814 38.2785 55.5201C38.0495 56.3666 37.7244 56.6939 36.817 56.2219C35.9754 55.7826 35.0465 55.4917 34.1407 55.1869C30.2114 53.863 26.0453 55.8274 24.5527 59.6894C22.6903 64.5081 25.3318 70.0883 30.4805 71.8475C35.7159 73.6375 41.0233 75.2202 46.2895 76.9234C46.8442 77.1035 47.0676 77.015 47.3096 76.4765C49.5676 71.4233 51.8855 66.3981 54.1215 61.3364C55.2578 58.7646 55.1223 56.1567 54.0101 53.5931Z" fill="#F1F5FB"/>
<path d="M106.494 42.6322C107.655 42.1155 108.748 41.6106 109.853 41.1407C113.877 39.4327 118.457 41.1425 120.281 45.1008C121.99 48.8077 123.648 52.5407 125.266 56.2882C126.876 60.0205 125.527 64.5413 121.909 66.3167C117.547 68.4559 113.203 70.7258 108.422 71.8835C106.514 72.3459 104.573 72.5604 102.618 72.5221C101.932 72.5063 101.604 72.5976 101.53 73.4004C101.398 74.8827 100.532 75.9291 99.1792 76.5387C96.7872 77.6183 94.3966 78.7009 91.9857 79.7378C89.8533 80.6544 87.6074 79.8074 86.6573 77.6899C83.9411 71.6466 81.2476 65.5968 78.574 59.5345C77.6104 57.3537 78.4966 55.1305 80.6848 54.1343C83.0361 53.0619 85.4048 52.0365 87.7602 50.9732C88.2645 50.745 88.8226 50.5148 89.3207 50.6252C90.2668 50.8318 90.5181 50.3549 90.7769 49.6082C91.711 46.9183 91.9499 44.1839 91.5445 41.3714C90.9894 37.5012 93.1807 34.602 97.058 34.0219C100.875 33.4539 104.637 35.9108 105.671 39.6517C105.934 40.6113 106.2 41.5696 106.494 42.6322ZM96.7381 61.0214C97.72 63.2269 98.7141 65.4269 99.6748 67.6419C99.8928 68.1398 100.137 68.4179 100.737 68.4612C103.412 68.6497 106.049 68.4648 108.621 67.6919C112.304 66.5851 115.68 64.739 119.196 63.2321C121.701 62.1606 122.524 59.9763 121.435 57.5048C119.906 54.0389 118.365 50.5784 116.812 47.1233C115.729 44.7148 113.563 43.8833 111.153 44.9382C108.979 45.8917 106.8 46.8285 104.66 47.8507C103.899 48.2152 103.681 48.0129 103.505 47.2884C102.986 45.147 102.427 43.0158 101.873 40.8862C101.349 38.8714 99.4286 37.6494 97.3998 38.0198C95.9956 38.2763 95.2618 39.1615 95.4849 40.5806C96.1486 44.8586 95.4985 48.9405 93.7964 52.8812C93.5465 53.4596 93.5577 53.9437 93.8272 54.5245C94.8325 56.6758 95.7724 58.8525 96.7381 61.0214ZM93.5573 63.7151C92.3204 60.937 91.0622 58.1683 89.8632 55.3769C89.5848 54.7271 89.3237 54.6243 88.6833 54.924C86.8015 55.813 84.8976 56.6607 82.9777 57.4643C82.3191 57.7393 82.2414 58.0075 82.5292 58.6459C85.0274 64.1913 87.4999 69.7446 89.9494 75.3117C90.2338 75.9589 90.4888 76.0643 91.1292 75.7646C93.0111 74.8757 94.915 74.028 96.8348 73.2243C97.4934 72.9493 97.5786 72.6815 97.2833 72.0428C96.0129 69.2796 94.7942 66.4933 93.5573 63.7151Z" fill="#F1F5FB"/>
<path d="M64.4656 116.928C64.4813 117.045 64.4814 117.176 64.3286 117.153C64.2782 117.146 64.253 116.975 64.2171 116.878C64.2983 116.896 64.3813 116.911 64.4656 116.928Z" fill="#FDFDFD"/>
<path d="M79.6187 110.021C79.6668 110.112 79.7773 110.246 79.7485 110.288C79.6667 110.415 79.5644 110.333 79.4895 110.239C79.5314 110.169 79.5751 110.095 79.6187 110.021Z" fill="#FDFDFD"/>
<path d="M97.2832 72.0429C97.5772 72.6785 97.4934 72.9494 96.8347 73.2244C94.9149 74.0281 93.011 74.8758 91.1292 75.7647C90.4902 76.0675 90.2338 75.959 89.9493 75.3118C87.4999 69.7447 85.0274 64.1914 82.5292 58.646C82.2413 58.0076 82.319 57.7394 82.9777 57.4644C84.8975 56.6607 86.8014 55.8131 88.6833 54.9241C89.3223 54.6214 89.5834 54.7241 89.8631 55.377" fill="#FEFEFE"/>
</svg>
