<svg width="154" height="162" viewBox="0 0 154 162" fill="none" xmlns="http://www.w3.org/2000/svg">
<path d="M105.181 137.644C88.1156 145.242 71.0473 152.842 53.9821 160.439C53.6076 160.606 53.2426 160.81 52.8492 160.91C51.3345 161.305 49.9952 159.909 50.3664 158.34C50.4228 158.096 50.5063 157.841 50.6445 157.643C52.3282 155.233 51.8697 152.97 50.639 150.254C42.3331 131.937 34.2038 113.542 26.0552 95.151C25.5983 94.1168 25.2505 93.9322 24.283 94.4195C22.486 95.3252 21.6195 94.9187 20.7571 92.9898C19.8078 90.8658 18.86 88.7448 17.9196 86.6168C17.1322 84.8319 17.4453 83.9228 19.1257 83.1746C25.1872 80.4721 31.243 77.757 37.3227 75.0955C38.1672 74.727 38.3673 74.4266 37.9291 73.4747C35.9278 69.1328 34.0013 64.7574 32.0868 60.3768C31.7801 59.6719 31.5474 59.5039 30.8313 59.8303C28.4569 60.9063 27.876 60.6254 26.7459 58.0951C25.9229 56.2468 25.0986 54.3953 24.2757 52.547C23.2621 50.2705 23.513 49.5362 25.6398 48.5893C31.9633 45.7739 38.2855 42.9478 44.6188 40.1544C45.3122 39.8495 45.6309 39.5416 45.6611 38.6339C45.8776 31.9613 48.8594 27.0419 54.6928 24.3995C60.577 21.7343 66.2647 22.7712 71.433 27.0917C72.1481 27.6901 72.6248 27.6967 73.3662 27.3628C79.7174 24.5049 86.084 21.6816 92.4464 18.8489C94.3426 18.0046 95.1559 18.3481 96.0559 20.3696C97.0052 22.4936 97.9531 24.6146 98.8904 26.744C99.6344 28.4312 99.3273 29.4584 97.6712 30.0599C96.4785 30.4928 96.4159 30.981 96.9528 32.1304C98.9159 36.3461 100.787 40.6062 102.637 44.8726C102.982 45.6732 103.283 45.728 103.992 45.4087C110.042 42.681 116.109 39.9911 122.173 37.2949C124.078 36.4467 124.887 36.7883 125.788 38.8022C126.719 40.8853 127.647 42.9698 128.573 45.0588C129.392 46.9053 129.1 47.8616 127.305 48.5549C126.257 48.9575 126.16 49.3778 126.635 50.4452C135.217 69.6316 143.762 88.8309 152.284 108.044C152.696 108.97 153.215 109.467 154.149 109.677C155.04 109.881 155.905 110.227 156.779 110.514C157.691 110.813 158.342 111.38 158.424 112.411C158.508 113.487 157.976 114.146 157.055 114.552C153.682 116.039 150.315 117.545 146.948 119.044C133.024 125.248 119.104 131.445 105.181 137.644ZM52.4555 96.5002C55.7486 103.897 59.0417 111.293 62.3348 118.689C64.6466 123.882 66.9867 129.065 69.2476 134.28C69.6451 135.197 69.9779 135.276 70.7756 134.883C72.4642 134.048 74.184 133.267 75.9412 132.587C76.8415 132.238 76.8389 131.87 76.4632 131.026C71.9317 120.929 67.4407 110.81 62.9392 100.699C62.049 98.6995 62.3466 97.8765 64.2697 97.0203C76.9585 91.3708 89.6444 85.7227 102.333 80.0733C104.397 79.1544 105.15 79.4679 106.118 81.6406C110.603 91.7134 115.099 101.781 119.55 111.865C119.941 112.751 120.245 112.903 121.07 112.49C122.791 111.633 124.561 110.86 126.343 110.138C127.097 109.833 127.164 109.524 126.825 108.762C115.593 83.5906 104.382 58.41 93.1918 33.2201C92.8455 32.4424 92.5651 32.3446 91.843 32.6736C87.3293 34.7248 82.8001 36.7413 78.2585 38.7219C77.5668 39.0223 77.3418 39.3715 77.3125 40.1844C77.0799 46.9094 74.0883 51.8634 68.183 54.4813C62.2837 57.0965 56.5972 56.0138 51.4531 51.6751C50.8149 51.1367 50.4022 51.1205 49.7326 51.4224C45.2909 53.4339 40.8464 55.4392 36.3671 57.358C35.403 57.7722 35.351 58.1311 35.7802 59.087C41.3615 71.5504 46.9025 84.0279 52.4555 96.5002ZM54.3694 149.144C54.5626 148.764 54.652 148.626 54.7105 148.476C56.7479 143.128 60.2032 139.231 65.4874 137.226C66.3382 136.904 65.9321 136.443 65.7162 135.958C58.4318 119.597 51.1445 103.238 43.8811 86.8672C43.5418 86.1053 43.2758 85.9672 42.5387 86.3029C38.4411 88.1763 34.3309 90.0213 30.1915 91.7926C29.2633 92.1908 29.1278 92.5153 29.5724 93.5058C37.676 111.626 45.7392 129.761 53.8128 147.894C53.9643 148.234 54.1171 148.578 54.3694 149.144ZM147.813 107.612C146.481 104.621 145.277 101.916 144.073 99.2114C137.034 83.4015 129.987 67.5911 122.969 51.7719C122.63 51.0099 122.405 50.7292 121.561 51.1161C117.394 53.0354 113.201 54.8949 108.993 56.7153C108.23 57.0478 108.198 57.3561 108.529 58.0992C115.834 74.4508 123.119 90.8117 130.381 107.186C130.721 107.952 131.002 108.106 131.726 107.742C134.281 106.45 137.012 105.811 139.905 105.836C142.54 105.855 145.039 106.663 147.813 107.612ZM150.739 112.806C148.578 112.105 146.663 111.527 144.777 110.862C140.92 109.504 137.254 109.759 133.606 111.391C111.512 121.27 89.4524 131.227 67.2504 140.855C61.0292 143.553 58.7477 148.949 56.4237 154.798C87.8703 140.798 119.176 126.859 150.739 112.806ZM89.9593 108.213C87.8578 103.493 85.737 98.7774 83.6714 94.0415C83.334 93.2673 83.0509 93.1557 82.3228 93.4874C77.5485 95.6546 72.7601 97.7902 67.9535 99.885C67.2138 100.207 67.1266 100.495 67.4703 101.258C71.7002 110.686 75.9046 120.13 80.0819 129.585C80.4224 130.357 80.7024 130.47 81.4275 130.14C86.2019 127.973 90.9903 125.837 95.7969 123.742C96.5365 123.421 96.6267 123.131 96.2831 122.368C94.1473 117.659 92.0608 112.933 89.9593 108.213ZM93.5539 106.612C95.6553 111.332 97.7762 116.047 99.8417 120.783C100.179 121.557 100.462 121.669 101.19 121.337C105.965 119.17 110.753 117.034 115.56 114.94C116.299 114.618 116.387 114.33 116.043 113.566C111.813 104.138 107.609 94.6952 103.431 85.2401C103.091 84.4673 102.814 84.3529 102.086 84.6846C97.3113 86.8518 92.5229 88.9875 87.7163 91.0823C86.9766 91.4041 86.8864 91.6932 87.2301 92.4571C89.3689 97.1642 91.4524 101.892 93.5539 106.612ZM72.2668 34.6398C69.4985 28.3981 62.3929 25.442 56.4844 28.0689C50.4951 30.7318 47.9233 37.9588 50.7255 44.2608C53.4632 50.4179 60.5703 53.3771 66.4287 50.799C72.4458 48.1502 75.0576 40.9242 72.2668 34.6398ZM39.0183 51.6878C41.2619 50.6889 43.5112 49.7026 45.7464 48.6848C46.4834 48.3491 47.6038 48.2615 47.8314 47.5716C48.0093 47.0359 47.2719 46.1455 46.9378 45.4114C46.9028 45.3327 46.8544 45.2561 46.8387 45.1726C46.6259 43.8562 45.9983 44.0187 45.0709 44.4429C40.3787 46.5849 35.6556 48.6575 30.9437 50.7554C28.2567 51.9517 28.2837 51.9397 29.5692 54.8271C29.8903 55.5482 30.1388 55.679 30.8341 55.3543C33.5449 54.0908 36.2894 52.9028 39.0183 51.6878ZM85.5771 30.9586C87.7458 29.993 89.9145 29.0274 92.0833 28.0618C94.6743 26.9082 94.6324 26.9269 93.4765 24.1855C93.0977 23.2864 92.7817 23.1894 91.9548 23.5651C86.7383 25.9404 81.5064 28.2811 76.2451 30.5557C75.2344 30.9944 74.765 31.343 75.5664 32.4576C75.907 32.9323 76.1348 33.5326 76.2832 34.1079C76.4776 34.859 76.7592 34.9109 77.3944 34.6206C80.1079 33.371 82.8482 32.1735 85.5771 30.9586ZM32.7395 86.1647C34.8722 85.2151 37.005 84.2655 39.1378 83.3159C41.7828 82.1383 41.7439 82.1556 40.5407 79.3485C40.1714 78.4867 39.8511 78.4444 39.096 78.7882C34.362 80.9412 29.5998 83.0388 24.8489 85.154C22.0601 86.3957 22.0931 86.381 23.3885 89.2904C23.7291 90.0556 24.0099 90.0815 24.6647 89.7787C27.3408 88.5419 30.0465 87.3636 32.7395 86.1647ZM113.737 45.5786C111.643 46.5108 109.546 47.4444 107.452 48.3766C104.723 49.5916 104.753 49.5783 106 52.4188C106.339 53.1961 106.625 53.2988 107.35 52.9684C112.125 50.8012 116.921 48.6844 121.708 46.5532C124.476 45.3209 124.452 45.3316 123.107 42.3914C122.804 41.7265 122.553 41.6231 121.927 41.9094C119.206 43.1662 116.469 44.3623 113.737 45.5786Z" fill="#F1F5FB"/>
<path d="M32.7407 86.1649C30.0477 87.3639 27.342 88.5422 24.6659 89.7789C24.0111 90.0818 23.7303 90.0559 23.3897 89.2907C22.0973 86.3799 22.0644 86.3946 24.8501 85.1543C29.601 83.0391 34.3632 80.9414 39.0972 78.7884C39.8523 78.4447 40.1726 78.487 40.5419 79.3488C41.7451 82.1559 41.784 82.1386 39.139 83.3162C37.0062 84.2658 34.8735 85.2154 32.7407 86.1649Z" fill="#FEFEFE"/>
<path d="M113.738 45.5788C116.47 44.3625 119.212 43.1683 121.924 41.9155C122.552 41.6246 122.799 41.7294 123.104 42.3975C124.452 45.3363 124.473 45.327 121.705 46.5593C116.915 48.6918 112.118 50.8086 107.347 52.9745C106.622 53.3049 106.339 53.2008 105.997 52.4249C104.753 49.583 104.723 49.5963 107.449 48.3827C109.547 47.4446 111.641 46.5124 113.738 45.5788Z" fill="#FEFEFE"/>
<path d="M74.9405 69.6401C67.985 72.7369 61.0295 75.8336 54.071 78.9318C52.1479 79.788 51.3298 79.458 50.4408 77.4693C49.4746 75.3075 48.5055 73.1469 47.5558 70.9816C46.8512 69.3748 47.1966 68.4174 48.7453 67.7279C62.8436 61.4472 76.9434 55.1695 91.0445 48.8951C92.5901 48.2069 93.5402 48.5913 94.2599 50.1838C95.2701 52.4203 96.2639 54.6604 97.253 56.9064C97.9943 58.5873 97.6538 59.5237 96.0333 60.2452C89.0057 63.3816 81.9709 66.5099 74.9405 69.6401ZM71.6102 62.0715C65.811 64.6535 60.0087 67.2368 54.2095 69.8188C51.8161 70.8844 51.8834 70.8582 52.9273 73.4609C53.3774 74.5847 53.7928 74.5583 54.7154 74.1475C66.6024 68.8173 78.5047 63.5294 90.4057 58.2308C93.0477 57.0544 93.0058 57.0731 91.7984 54.2565C91.4235 53.3821 91.092 53.3713 90.3519 53.7083C84.113 56.52 77.8588 59.2895 71.6102 62.0715Z" fill="#F1F5FB"/>
<path d="M81.5471 84.8011C74.6275 87.8819 67.7079 90.9627 60.7914 94.0422C58.8713 94.8971 58.0592 94.5644 57.1659 92.5663C56.2181 90.4454 55.2688 88.3213 54.3299 86.1963C53.5718 84.4776 53.8841 83.5425 55.4807 82.8316C69.579 76.5509 83.6787 70.2733 97.7799 63.9988C99.3225 63.312 100.267 63.6991 100.991 65.3009C102.001 67.5375 102.994 69.7776 103.984 72.0235C104.723 73.7013 104.38 74.6314 102.751 75.3569C95.6841 78.5107 88.6134 81.655 81.5471 84.8011ZM79.977 80.9764C85.7403 78.4104 91.5036 75.8445 97.2669 73.2785C99.7532 72.1715 99.7082 72.1915 98.6232 69.577C98.2167 68.5997 97.8905 68.4394 96.9423 68.8653C85.0236 74.2209 73.0796 79.5198 61.1396 84.8359C58.5335 85.9962 58.5695 85.9802 59.7244 88.7031C60.0935 89.5726 60.3812 89.735 61.2381 89.3459C67.467 86.5198 73.7254 83.7598 79.977 80.9764Z" fill="#F1F5FB"/>
<path d="M39.7333 96.6303C39.9939 96.5143 40.2575 96.3969 40.5181 96.2809C43.4866 94.9592 43.4747 94.9646 44.6478 98.2605C44.8123 98.7268 44.7821 98.9251 44.3404 99.118C42.3116 99.9948 40.2911 100.898 38.2805 101.816C37.8476 102.013 37.5912 101.961 37.448 101.47C37.4372 101.429 37.416 101.39 37.3962 101.353C35.8855 98.3473 35.8855 98.3473 38.8361 97.0336C39.1342 96.8971 39.4338 96.7637 39.7333 96.6303Z" fill="#F1F5FB"/>
<path d="M44.7459 107.977C45.6445 107.577 46.5586 107.212 47.4332 106.766C48.0077 106.476 48.3038 106.48 48.6324 107.194C49.9974 110.163 50.0273 110.15 47.1666 111.423C45.9684 111.957 44.7576 112.462 43.5807 113.035C43.0034 113.319 42.7101 113.321 42.38 112.604C41.0121 109.636 40.9851 109.648 43.8458 108.374C44.1498 108.243 44.4463 108.111 44.7459 107.977Z" fill="#F1F5FB"/>
<path d="M51.2925 123.165C51.0319 123.281 50.7683 123.399 50.5077 123.515C47.7728 124.732 47.7997 124.72 46.5287 121.906C46.1906 121.154 46.2386 120.835 47.0017 120.525C48.8989 119.756 50.7599 118.897 52.6164 118.037C53.1364 117.794 53.3553 117.866 53.6342 118.436C55.1221 121.464 55.1401 121.456 52.1895 122.77C51.8886 122.9 51.589 123.033 51.2925 123.165Z" fill="#F1F5FB"/>
<path d="M118.67 61.4855C118.97 61.3521 119.269 61.2187 119.569 61.0853C122.54 59.7623 122.528 59.7677 123.697 63.0694C123.863 63.5388 123.821 63.7348 123.384 63.9219C121.356 64.8019 119.334 65.7021 117.324 66.6199C116.885 66.8191 116.636 66.7525 116.493 66.2692C116.482 66.2288 116.461 66.1892 116.441 66.1527C114.935 63.1485 114.935 63.1485 117.885 61.8349C118.146 61.7188 118.41 61.6015 118.67 61.4855Z" fill="#F1F5FB"/>
<path d="M125.304 76.6344C125.004 76.7678 124.705 76.9012 124.405 77.0345C121.556 78.3028 121.301 78.1563 120.325 74.916C120.185 74.4575 120.312 74.322 120.661 74.1704C122.684 73.281 124.713 72.3965 126.716 71.463C127.251 71.2135 127.398 71.4462 127.624 71.8966C129.141 74.926 129.15 74.922 126.202 76.2343C125.903 76.3677 125.603 76.5011 125.304 76.6344Z" fill="#F1F5FB"/>
<path d="M86.397 109.875C87.2102 111.701 87.2102 111.701 85.4668 112.477C83.6186 113.3 83.6186 113.3 82.7494 111.348C81.9363 109.522 81.9363 109.522 83.6797 108.746C85.5279 107.923 85.5279 107.923 86.397 109.875Z" fill="#F1F5FB"/>
<path d="M100.767 103.47C101.582 105.302 101.582 105.302 99.8451 106.076C97.9909 106.901 97.9909 106.901 97.1245 104.955C96.3086 103.123 96.3086 103.123 98.046 102.349C99.9002 101.524 99.9002 101.524 100.767 103.47Z" fill="#F1F5FB"/>
<path d="M61.2358 33.8848C61.6354 34.7822 61.834 36.1313 62.4877 36.4628C63.2685 36.8622 64.2493 35.9048 65.1372 35.5209C67.8741 34.34 67.8357 34.3345 69.1154 37.1604C69.4691 37.9386 69.3563 38.2416 68.616 38.5297C67.3179 39.0322 66.077 39.6714 64.7887 40.196C64.2321 40.4211 64.1681 40.6723 64.4296 41.2274C65.095 42.6252 65.6749 44.0648 66.3433 45.4613C66.6149 46.0308 66.4928 46.2323 65.9724 46.4904C63.1083 47.9014 63.1213 47.9145 61.7863 44.9321C61.3837 44.0361 61.1476 42.7075 60.4851 42.3724C59.6983 41.9757 58.7205 42.9317 57.8356 43.3143C55.0987 44.4951 55.1371 44.5007 53.8574 41.6748C53.5037 40.8966 53.6165 40.5936 54.3568 40.3055C55.6549 39.803 56.8958 39.1637 58.1841 38.6392C58.7407 38.414 58.8047 38.1629 58.5432 37.6078C57.8778 36.21 57.2978 34.7704 56.6294 33.3739C56.3579 32.8044 56.4335 32.5066 57.0074 32.3605C57.0461 32.3508 57.0837 32.3303 57.1182 32.3112C59.8881 30.9949 59.8881 30.9949 61.2358 33.8848Z" fill="#F1F5FB"/>
</svg>
