<svg  viewBox="0 0 25 27" fill="none" xmlns="http://www.w3.org/2000/svg">
<g opacity="0.5">
<path d="M11.6328 13.3779C15.0509 13.3779 17.8218 10.607 17.8218 7.18896C17.8218 3.77089 15.0509 1 11.6328 1C8.21474 1 5.44385 3.77089 5.44385 7.18896C5.44385 10.607 8.21474 13.3779 11.6328 13.3779Z" stroke="#001538" stroke-width="2" stroke-linecap="round" stroke-linejoin="round"/>
<path d="M20.5573 18.0074L16.1754 22.3892C16.0021 22.5625 15.8412 22.8843 15.8041 23.1195L15.5689 24.7905C15.4823 25.397 15.9031 25.8178 16.5097 25.7312L18.1806 25.496C18.4158 25.4589 18.7501 25.298 18.911 25.1247L23.2927 20.7429C24.0478 19.9879 24.4067 19.109 23.2927 17.995C22.1911 16.8934 21.3123 17.2523 20.5573 18.0074Z" stroke="#001538" stroke-width="2" stroke-miterlimit="10" stroke-linecap="round" stroke-linejoin="round"/>
<path d="M19.9258 18.6387C20.2971 19.9755 21.3368 21.0152 22.6736 21.3865" stroke="#001538" stroke-width="2" stroke-miterlimit="10" stroke-linecap="round" stroke-linejoin="round"/>
<path d="M1 25.7558C1 20.9656 5.76553 17.0913 11.6327 17.0913C12.92 17.0913 14.1577 17.277 15.3089 17.6235" stroke="#001538" stroke-width="2" stroke-linecap="round" stroke-linejoin="round"/>
</g>
</svg>
