<svg width="29" height="22" viewBox="0 0 29 22" fill="none" xmlns="http://www.w3.org/2000/svg">
<path d="M12.4485 0.265167C14.1754 -0.193055 16.0559 -0.054852 17.6945 0.659953C19.2878 1.34814 20.6364 2.57327 21.4934 4.08048C22.1697 3.92359 22.8715 3.87091 23.5631 3.94511C24.9632 4.08558 26.3011 4.73921 27.2787 5.75025C28.3175 6.80546 28.9292 8.25093 29 9.72698V10.2611C28.9332 11.4443 28.5372 12.6111 27.8315 13.5667C26.8437 14.9323 25.2651 15.8493 23.5886 16.0249C23.8791 14.3783 23.729 12.653 23.1281 11.0909C22.552 9.56782 21.558 8.20845 20.2898 7.18722C18.786 5.96718 16.8868 5.24501 14.9514 5.15835C13.289 5.07339 11.6068 5.45118 10.1409 6.23962C8.39074 7.17589 6.95434 8.69046 6.12342 10.4939C5.32195 12.2056 5.07953 14.1659 5.41145 16.0249C3.80229 15.8532 2.28092 15.0048 1.28914 13.7258C0.504102 12.734 0.0583398 11.4902 0 10.2288V9.72982C0.0430469 9.02067 0.185215 8.31493 0.462187 7.65903C1.05578 6.21583 2.23051 5.02298 3.66578 4.409C4.86543 3.88394 6.23443 3.77745 7.50658 4.08048C8.5601 2.2204 10.3749 0.800421 12.4485 0.265167Z" fill="white"/>
<path d="M14.0709 7.55763C14.1859 7.31577 14.3173 7.07731 14.5002 6.87964C14.8729 7.30388 15.0655 7.84876 15.2485 8.37438C15.7769 10.0385 15.9803 11.7881 16.059 13.527C15.0196 13.5292 13.9803 13.5292 12.9409 13.527C13.0004 12.086 13.1629 10.6451 13.5039 9.24212C13.6501 8.66778 13.8188 8.09571 14.0709 7.55763Z" fill="white"/>
<path d="M9.08131 9.14812C9.98643 8.20789 11.1402 7.50951 12.3937 7.14587C12.0147 8.06968 11.7819 9.0456 11.6035 10.026C11.3968 11.1821 11.2841 12.354 11.241 13.5276C9.83236 13.5287 8.42371 13.5281 7.01562 13.5281C7.19461 11.8924 7.93547 10.3279 9.08131 9.14812Z" fill="white"/>
<path d="M16.6064 7.14587C18.2496 7.61769 19.7121 8.67574 20.6846 10.0799C21.396 11.0977 21.8457 12.2945 21.9845 13.5281C20.5758 13.5281 19.1677 13.5293 17.7591 13.5276C17.7098 12.2197 17.5756 10.9142 17.3218 9.62957C17.1502 8.78505 16.935 7.94507 16.6064 7.14587Z" fill="white"/>
<path d="M7.01514 15.2279C8.42322 15.2268 9.83188 15.2279 11.24 15.2274C11.2864 16.4089 11.3969 17.5893 11.607 18.7532C11.7848 19.7269 12.0182 20.696 12.3932 21.6142C10.8633 21.1684 9.48523 20.2242 8.51838 18.9571C7.69086 17.8815 7.1641 16.5771 7.01514 15.2279Z" fill="white"/>
<path d="M12.9419 15.2279C13.9807 15.2273 15.0195 15.2273 16.0583 15.2279C16.0056 16.5352 15.8646 17.8419 15.5876 19.1214C15.4375 19.7948 15.2545 20.4643 14.9764 21.097C14.8496 21.3745 14.7108 21.6543 14.4989 21.8775C14.0724 21.3859 13.8719 20.7481 13.6743 20.1392C13.2075 18.5453 13.011 16.8835 12.9419 15.2279Z" fill="white"/>
<path d="M17.5874 17.4443C17.678 16.7085 17.7284 15.9682 17.7601 15.2274C19.1682 15.2279 20.5763 15.2268 21.985 15.2279C21.7527 17.3973 20.5134 19.4256 18.6987 20.6337C18.0569 21.0642 17.3495 21.3989 16.6069 21.6136C17.1422 20.2831 17.4095 18.862 17.5874 17.4443Z" fill="white"/>
</svg>
