<svg width="18" height="18" viewBox="0 0 18 18" fill="none" xmlns="http://www.w3.org/2000/svg">
<path d="M8.99935 17.9981C7.17481 17.9981 5.35027 17.9987 3.52573 17.9981C1.49846 17.9967 0.00268277 16.5057 0.00134904 14.4832C1.5309e-05 13.6336 1.5309e-05 12.7834 0.000682173 11.9338C0.00134904 11.3797 0.332114 11.0056 0.822259 10.9996C1.32241 10.9936 1.65784 11.369 1.65917 11.9405C1.66051 12.7734 1.65851 13.6069 1.65984 14.4398C1.66184 15.5868 2.40606 16.3383 3.5504 16.339C7.18281 16.341 10.8159 16.341 14.4483 16.339C15.5926 16.3383 16.3362 15.5881 16.3389 14.4398C16.3409 13.5983 16.3375 12.7567 16.3402 11.9152C16.3415 11.3657 16.6843 10.9936 17.1764 10.9996C17.6592 11.0056 17.9973 11.3763 17.998 11.9092C18 12.8007 18.0027 13.6923 17.9973 14.5838C17.986 16.475 16.4696 17.9907 14.573 17.9974C12.7151 18.0034 10.8572 17.9981 8.99935 17.9981Z" fill="white"/>
<path d="M8.16178 10.2313C8.16178 10.142 8.16178 10.0526 8.16178 9.96394C8.16178 6.9645 8.16178 3.96572 8.16178 0.966274C8.16178 0.481481 8.3545 0.174735 8.73661 0.0440346C9.18275 -0.109339 9.67689 0.153396 9.7996 0.608848C9.83694 0.746884 9.83761 0.888254 9.83761 1.03029C9.83694 4.0044 9.83694 6.9785 9.83694 9.95261C9.83694 10.0486 9.83694 10.144 9.83694 10.2507C9.96831 10.2213 10.0143 10.136 10.0757 10.0746C11.0373 9.11572 11.9982 8.15614 12.9559 7.19389C13.1979 6.95116 13.4767 6.83446 13.8155 6.92715C14.3996 7.08653 14.6217 7.7667 14.2502 8.2455C14.1942 8.31751 14.1275 8.38153 14.0629 8.44621C12.6144 9.89592 11.1653 11.345 9.71557 12.794C9.21076 13.2988 8.78596 13.2955 8.27581 12.7853C6.80271 11.313 5.32894 9.84124 3.8585 8.36619C3.35769 7.86406 3.53774 7.09453 4.19327 6.92382C4.53337 6.83513 4.80945 6.95983 5.05019 7.20189C6.00247 8.15814 6.95876 9.11039 7.91104 10.0666C7.97439 10.13 8.01507 10.2167 8.06642 10.292C8.09843 10.272 8.13044 10.252 8.16178 10.2313Z" fill="white"/>
</svg>
