<svg width="19" height="12" viewBox="0 0 19 12" fill="none" xmlns="http://www.w3.org/2000/svg">
<path d="M-4.76947e-07 6.0375C0.212351 6.37817 0.414813 6.72435 0.638219 7.05895C1.77619 8.76395 3.26091 10.1184 5.17149 11.0296C6.21172 11.5257 7.31363 11.841 8.47545 11.9501C11.3541 12.2197 13.8634 11.3928 16.0509 9.63546C17.2843 8.64433 18.232 7.43766 18.9778 6.08325C19.0151 6.016 19.0011 5.9686 18.9674 5.90741C18.0394 4.21399 16.788 2.78351 15.1276 1.69095C13.8657 0.860779 12.4764 0.307332 10.9544 0.101718C8.31023 -0.256038 5.90105 0.334343 3.73157 1.80285C2.20322 2.83698 1.03674 4.17099 0.151845 5.73377C0.106465 5.81425 0.0750499 5.9041 -4.76947e-07 5.96749C-4.76947e-07 5.99065 -4.76947e-07 6.0138 -4.76947e-07 6.0375ZM9.5151 2.2466C11.7038 2.25708 13.4945 3.95987 13.4742 6.01159C13.4532 8.08702 11.6968 9.74902 9.51452 9.75839C7.34155 9.76776 5.54558 8.06718 5.54616 6.00222C5.54674 3.93616 7.3433 2.23613 9.5151 2.2466Z" fill="white"/>
<path d="M9.51038 8.25414C10.8235 8.25414 11.8928 7.23655 11.8876 5.99295C11.8823 4.75541 10.8159 3.74939 9.51038 3.74939C8.19728 3.74939 7.12796 4.76698 7.1332 6.01059C7.13843 7.24813 8.20427 8.25414 9.51038 8.25414Z" fill="white"/>
</svg>
