<svg width="21" height="20" viewBox="0 0 21 20" fill="none" xmlns="http://www.w3.org/2000/svg">
<path d="M9.35789 14.1314C9.35789 14.4949 9.35789 14.8584 9.35789 15.2213C9.23347 15.2379 9.16522 15.1547 9.08986 15.0811C8.69598 14.6961 8.30139 14.3104 7.90537 13.9267C7.83783 13.8615 7.78451 13.7727 7.67288 13.7679C7.67004 13.6215 7.66933 13.4744 7.66364 13.328C7.64445 12.8618 7.31455 12.5399 6.8382 12.5226C6.68818 12.517 6.53817 12.5163 6.38744 12.5136C6.36896 12.3762 6.27795 12.2839 6.18268 12.1917C5.80729 11.8274 5.4326 11.4625 5.06005 11.0955C4.99322 11.0303 4.90293 10.9783 4.89795 10.8694C5.2705 10.8694 5.64234 10.8694 6.01489 10.8694C5.99783 10.9908 6.08314 11.0574 6.15851 11.1309C7.13539 12.0841 8.11298 13.0373 9.08915 13.9912C9.16522 14.0648 9.23419 14.1487 9.35789 14.1314Z" fill="#005AD2"/>
<path d="M20.7036 14.1834C20.7036 14.5469 20.7036 14.9104 20.7036 15.2733C20.592 15.2684 20.5386 15.1796 20.4711 15.1144C20.0751 14.7308 19.6812 14.345 19.2866 13.96C19.2112 13.8865 19.143 13.8025 19.0186 13.8199C19.0157 13.6562 19.0157 13.4917 19.0086 13.328C18.9901 12.8618 18.6595 12.5399 18.1832 12.5226C18.0154 12.5163 17.8476 12.5163 17.6798 12.5136C17.6976 12.3922 17.6115 12.3256 17.5362 12.252C17.1416 11.867 16.7463 11.4827 16.3531 11.0962C16.2863 11.0303 16.1953 10.9783 16.1903 10.8694C16.5629 10.8694 16.9347 10.8694 17.3073 10.8694C17.2902 10.9908 17.3755 11.0574 17.4509 11.1309C18.4462 12.1015 19.4409 13.0727 20.4355 14.0433C20.5109 14.1168 20.5792 14.2007 20.7036 14.1834Z" fill="#005AD2"/>
<path d="M4.84534 0.0067749C5.21789 0.0067749 5.58973 0.0067749 5.96228 0.0067749C5.94521 0.12818 6.03053 0.19478 6.10589 0.268317C7.10126 1.23887 8.09591 2.21011 9.09057 3.18066C9.16593 3.25419 9.23418 3.33744 9.3586 3.32079C9.3586 3.68432 9.3586 4.04784 9.3586 4.41067C9.24698 4.40581 9.19366 4.31701 9.12612 4.2518C8.7301 3.86816 8.33622 3.48244 7.94163 3.09741C7.86627 3.02387 7.79801 2.93993 7.67359 2.95727C7.67075 2.79355 7.67075 2.62913 7.66364 2.4661C7.64515 1.9999 7.31455 1.67731 6.8382 1.66066C6.67041 1.65442 6.50262 1.65442 6.33483 1.65164C6.3526 1.53024 6.26658 1.46364 6.19121 1.3901C5.79662 1.00438 5.40132 0.620045 5.00815 0.233629C4.94132 0.167724 4.85031 0.115693 4.84534 0.0067749Z" fill="#005AD2"/>
<path d="M17.1838 0.0067749C17.5912 0.00746865 17.9993 0.00816239 18.4067 0.00954988C18.3903 0.130262 18.4763 0.196167 18.551 0.269011C19.1553 0.858694 19.7596 1.44838 20.364 2.03806C20.4386 2.1109 20.5062 2.19554 20.6299 2.17958C20.6306 2.5771 20.632 2.97531 20.6327 3.37283C20.5083 3.39017 20.44 3.30623 20.3654 3.23338C19.3522 2.2441 18.3398 1.25552 17.3267 0.267623C17.2513 0.19478 17.166 0.127487 17.1838 0.0067749Z" fill="#005AD2"/>
<path d="M17.1836 0.0067749C17.1658 0.12818 17.2518 0.19478 17.3265 0.267623C18.3396 1.25552 19.3521 2.2441 20.3645 3.23269C20.4399 3.30623 20.5081 3.38948 20.6318 3.37213C20.6318 3.68362 20.6318 3.99511 20.6318 4.30661C20.5074 4.32326 20.4391 4.24001 20.3638 4.16647C19.9699 3.78144 19.5753 3.39572 19.1793 3.01208C19.1118 2.94687 19.0584 2.85807 18.9468 2.85321C18.944 2.72417 18.9425 2.59444 18.9376 2.46541C18.9184 1.99921 18.5885 1.67731 18.1121 1.65997C17.9621 1.65442 17.8121 1.65373 17.6614 1.65095C17.6429 1.51359 17.5519 1.42132 17.4566 1.32905C17.0812 0.964837 16.7065 0.599927 16.334 0.232936C16.2671 0.167724 16.1769 0.115693 16.1719 0.0067749C16.5096 0.0067749 16.8466 0.0067749 17.1836 0.0067749Z" fill="#005AD2"/>
<path d="M20.7037 14.1834C20.5793 14.2001 20.511 14.1168 20.4357 14.0433C19.441 13.072 18.4464 12.1015 17.451 11.1309C17.3756 11.0574 17.2903 10.9908 17.3074 10.8694C17.6444 10.8694 17.9814 10.8694 18.3177 10.8694C18.3006 10.9908 18.3859 11.0574 18.4613 11.1309C19.1197 11.7726 19.7773 12.4144 20.435 13.0568C20.5103 13.1303 20.5786 13.2136 20.703 13.1969C20.7037 13.5257 20.7037 13.8546 20.7037 14.1834Z" fill="#005AD2"/>
<path d="M9.35801 3.32006C9.23359 3.33671 9.16533 3.25346 9.08997 3.17993C8.09531 2.20868 7.10066 1.23813 6.10529 0.267584C6.02993 0.194047 5.94461 0.127448 5.96168 0.00604248C6.29868 0.00604248 6.63568 0.00604248 6.97197 0.00604248C6.95491 0.127448 7.04023 0.194047 7.11559 0.267584C7.77395 0.909298 8.43161 1.55101 9.08926 2.19342C9.16462 2.26696 9.23288 2.35021 9.3573 2.33356C9.35801 2.66309 9.35801 2.99192 9.35801 3.32006Z" fill="#005AD2"/>
<path d="M9.35805 14.1314C9.23362 14.148 9.16537 14.0648 9.09001 13.9912C8.11313 13.0373 7.13625 12.0841 6.15937 11.1309C6.08401 11.0574 5.99869 10.9908 6.01575 10.8694C6.33498 10.8694 6.65421 10.8694 6.97344 10.8694C6.99192 11.0067 7.08293 11.099 7.1782 11.1906C7.79603 11.7921 8.41316 12.3942 9.02958 12.9971C9.12413 13.0894 9.21869 13.1782 9.35876 13.1969C9.35805 13.5084 9.35805 13.8199 9.35805 14.1314Z" fill="#005AD2"/>
<path d="M11.3586 16.2078C11.3586 15.6715 11.3586 15.1353 11.3586 14.599C11.4703 14.6039 11.5236 14.6927 11.5911 14.7579C11.9871 15.1415 12.381 15.5272 12.7756 15.9123C12.851 15.9858 12.9192 16.069 13.0437 16.0524C13.0458 16.5887 13.0479 17.1249 13.0493 17.6612C12.915 17.6806 12.8432 17.587 12.7628 17.5086C12.3718 17.127 11.9815 16.7448 11.589 16.3646C11.5222 16.3008 11.4696 16.2126 11.3586 16.2078Z" fill="#005AD2"/>
<path d="M0.0135498 5.34512C0.0135498 4.80886 0.0135498 4.27259 0.0135498 3.73633C0.125173 3.74118 0.178496 3.82998 0.246039 3.8952C0.642052 4.27884 1.03593 4.66456 1.43052 5.04959C1.50589 5.12312 1.57414 5.20707 1.69856 5.18972C1.70069 5.72599 1.70283 6.26225 1.70425 6.79852C1.56987 6.81794 1.49807 6.72429 1.41773 6.6459C1.02669 6.26434 0.636364 5.88208 0.243906 5.50191C0.177074 5.43739 0.124462 5.34929 0.0135498 5.34512Z" fill="#005AD2"/>
<path d="M11.2875 5.3451C11.2875 4.82618 11.2875 4.30726 11.2875 3.78764C11.4119 3.7703 11.4802 3.85424 11.5555 3.92778C11.9501 4.31281 12.344 4.69853 12.74 5.08217C12.8075 5.14738 12.8609 5.23618 12.9725 5.24104C12.9746 5.75996 12.9768 6.27888 12.9782 6.7985C12.8438 6.81792 12.772 6.72426 12.6917 6.64587C12.3006 6.26431 11.9103 5.88206 11.5178 5.50189C11.451 5.43737 11.3984 5.34926 11.2875 5.3451Z" fill="#005AD2"/>
<path d="M0.0135498 16.2078C0.0135498 15.6889 0.0135498 15.1699 0.0135498 14.6503C0.13797 14.633 0.206224 14.7169 0.281587 14.7904C0.676179 15.1755 1.07006 15.5612 1.46607 15.9448C1.53361 16.0101 1.58694 16.0989 1.69856 16.1037C1.70069 16.6226 1.70283 17.1416 1.70425 17.6612C1.56987 17.6806 1.49807 17.5869 1.41773 17.5085C1.02669 17.127 0.636364 16.7447 0.243906 16.3646C0.177074 16.3007 0.124462 16.2126 0.0135498 16.2078Z" fill="#005AD2"/>
<path d="M0.0136504 16.2078C0.124563 16.2126 0.177175 16.3 0.244006 16.3652C0.636464 16.7454 1.02679 17.1277 1.41783 17.5092C1.49817 17.5876 1.56926 17.6806 1.70435 17.6619C1.80957 18.0393 2.05699 18.2682 2.45158 18.3438C2.45585 18.4534 2.54685 18.5054 2.61369 18.5714C3.00685 18.9578 3.40216 19.3428 3.79746 19.7278C3.87282 19.8014 3.95885 19.868 3.94108 19.9894C3.69295 19.9894 3.44482 19.9894 3.19597 19.9894C3.19313 19.8909 3.11421 19.8409 3.05307 19.7812C2.11174 18.8613 1.16898 17.9414 0.226232 17.0229C0.165088 16.9633 0.113898 16.8856 0.0129395 16.8835C0.0136504 16.658 0.0136504 16.4325 0.0136504 16.2078Z" fill="#005AD2"/>
<path d="M11.2875 5.34509C11.3984 5.34995 11.451 5.43736 11.5178 5.50257C11.9103 5.88274 12.3006 6.265 12.6916 6.64656C12.772 6.72495 12.8431 6.81791 12.9782 6.79918C13.0834 7.17658 13.3308 7.40551 13.7254 7.48113C13.7297 7.59074 13.8207 7.64277 13.8875 7.70868C14.2807 8.0951 14.676 8.48012 15.0713 8.86515C15.1466 8.93869 15.2327 9.00529 15.2149 9.12669C14.9668 9.12669 14.7186 9.12669 14.4698 9.12669C14.4669 9.02818 14.388 8.97823 14.3269 8.91857C13.3855 7.99867 12.4428 7.07876 11.5 6.16024C11.4389 6.10058 11.3877 6.02288 11.2867 6.0208C11.2875 5.79464 11.2875 5.56987 11.2875 5.34509Z" fill="#005AD2"/>
<path d="M0.0135498 5.34509C0.124462 5.34995 0.177074 5.43736 0.243906 5.50257C0.636364 5.88205 1.02669 6.2643 1.41773 6.64586C1.49807 6.72426 1.56916 6.81722 1.70425 6.79849C1.81587 7.19947 2.08178 7.42841 2.50481 7.48183C2.48703 7.60323 2.57306 7.66983 2.64842 7.74337C3.04301 8.1284 3.43832 8.51273 3.83149 8.89915C3.89832 8.96505 3.98932 9.01708 3.9943 9.126C3.72839 9.126 3.46249 9.126 3.19658 9.126C3.21365 9.00529 3.12833 8.938 3.05368 8.86515C2.12941 7.96328 1.20514 7.06142 0.280876 6.15955C0.206224 6.08601 0.137259 6.00346 0.0135498 6.02011C0.0135498 5.79464 0.0135498 5.56987 0.0135498 5.34509Z" fill="#005AD2"/>
<path d="M11.3586 16.2078C11.4696 16.2126 11.5222 16.3 11.589 16.3652C11.9815 16.7454 12.3718 17.1277 12.7628 17.5092C12.8432 17.5876 12.9143 17.6806 13.0493 17.6619C13.161 18.0628 13.4276 18.2918 13.8499 18.3452C13.8321 18.4666 13.9182 18.5332 13.9935 18.6067C14.3881 18.9918 14.7834 19.3761 15.1766 19.7625C15.2434 19.8284 15.3344 19.8805 15.3394 19.9894C15.0735 19.9894 14.8076 19.9894 14.5417 19.9894C14.5587 19.8687 14.4734 19.8014 14.3988 19.7285C13.4745 18.8267 12.5502 17.9248 11.626 17.0229C11.5513 16.9494 11.4824 16.8668 11.3586 16.8835C11.3586 16.658 11.3586 16.4325 11.3586 16.2078Z" fill="#005AD2"/>
<path d="M0.0135498 6.01942C0.137259 6.00277 0.206224 6.08602 0.280876 6.15887C1.20514 7.06073 2.12941 7.9626 3.05368 8.86447C3.12833 8.93731 3.21365 9.00461 3.19658 9.12532C2.93068 9.12532 2.66478 9.12532 2.39887 9.12532C2.39745 9.05872 2.35621 9.01432 2.31213 8.97131C1.62249 8.29907 0.933551 7.62683 0.245328 6.9532C0.179918 6.88938 0.113086 6.83874 0.0142608 6.84984C0.0135498 6.57303 0.0135498 6.29623 0.0135498 6.01942Z" fill="#005AD2"/>
<path d="M11.3586 16.8828C11.4824 16.8661 11.5513 16.9494 11.626 17.0222C12.5502 17.9241 13.4745 18.8259 14.3988 19.7278C14.4741 19.8007 14.5587 19.868 14.5417 19.9887C14.2758 19.9887 14.0099 19.9887 13.744 19.9887C13.7425 19.9221 13.7013 19.8777 13.6572 19.8347C12.9676 19.1624 12.2786 18.4902 11.5904 17.8165C11.525 17.7527 11.4582 17.7021 11.3594 17.7132C11.3586 17.4364 11.3586 17.1596 11.3586 16.8828Z" fill="#005AD2"/>
<path d="M0.0135498 16.8828C0.114508 16.8855 0.165698 16.9632 0.226842 17.0222C1.16959 17.9407 2.11164 18.8606 3.05368 19.7805C3.11482 19.8402 3.19445 19.8901 3.19658 19.9886C2.91291 19.9886 2.62923 19.9886 2.34555 19.9886C2.34413 19.8998 2.27587 19.852 2.22042 19.7979C1.54997 19.143 0.879517 18.4888 0.209068 17.8353C0.153612 17.7812 0.104555 17.7146 0.0135498 17.7132C0.0135498 17.4364 0.0135498 17.1596 0.0135498 16.8828Z" fill="#005AD2"/>
<path d="M11.2875 6.01947C11.3884 6.02225 11.4396 6.09994 11.5008 6.15891C12.4435 7.07743 13.3856 7.99733 14.3276 8.91724C14.3887 8.9769 14.4684 9.02685 14.4705 9.12536C14.1868 9.12536 13.9032 9.12536 13.6195 9.12536C13.6181 9.03656 13.5498 8.9887 13.4943 8.93458C12.8239 8.27969 12.1534 7.62549 11.483 6.97198C11.4275 6.91787 11.3785 6.85127 11.2875 6.84988C11.2875 6.57308 11.2875 6.29627 11.2875 6.01947Z" fill="#005AD2"/>
<path d="M17.8214 9.12603C17.3607 9.12603 16.8993 9.12603 16.4386 9.12603C16.4336 9.01711 16.3426 8.96508 16.2758 8.89986C15.8712 8.50165 15.4631 8.10691 15.0586 7.7087C14.9917 7.64349 14.9007 7.59146 14.8958 7.48254C15.3742 7.48254 15.8534 7.48254 16.3319 7.48254C16.3141 7.60395 16.4002 7.67055 16.4755 7.74409C16.8701 8.12911 17.2654 8.51345 17.6586 8.89986C17.7254 8.96438 17.8164 9.01641 17.8214 9.12603Z" fill="#005AD2"/>
<path d="M6.54749 19.9887C6.08678 19.9887 5.62535 19.9887 5.16464 19.9887C5.15967 19.8798 5.06866 19.8277 5.00183 19.7625C4.59728 19.3643 4.18918 18.9696 3.78464 18.5714C3.71781 18.5062 3.6268 18.4541 3.62183 18.3452C4.10031 18.3452 4.57951 18.3452 5.058 18.3452C5.04022 18.4666 5.12625 18.5332 5.20161 18.6068C5.5962 18.9918 5.99151 19.3761 6.38468 19.7625C6.45151 19.8277 6.54251 19.8798 6.54749 19.9887Z" fill="#005AD2"/>
<path d="M17.8925 19.9887C17.4318 19.9887 16.9703 19.9887 16.5096 19.9887C16.5046 19.8798 16.4136 19.8277 16.3468 19.7625C15.9423 19.3643 15.5342 18.9696 15.1296 18.5714C15.0628 18.5062 14.9718 18.4541 14.9668 18.3452C15.4275 18.3452 15.8889 18.3452 16.3496 18.3452C16.3546 18.4541 16.4456 18.5062 16.5125 18.5714C16.917 18.9696 17.3251 19.3643 17.7304 19.7625C17.7972 19.8277 17.8875 19.8798 17.8925 19.9887Z" fill="#005AD2"/>
<path d="M6.54749 9.12603C6.08678 9.12603 5.62535 9.12603 5.16464 9.12603C5.15967 9.01711 5.06866 8.96508 5.00183 8.89986C4.59728 8.50165 4.18918 8.10691 3.78464 7.7087C3.71781 7.64349 3.6268 7.59146 3.62183 7.48254C4.08254 7.48254 4.54396 7.48254 5.00467 7.48254C5.00965 7.59146 5.10065 7.64349 5.16749 7.7087C5.57203 8.10691 5.98013 8.50165 6.38539 8.89986C6.45151 8.96508 6.54251 9.01711 6.54749 9.12603Z" fill="#005AD2"/>
<path d="M2.45158 10.8694C2.87674 10.8694 3.30262 10.8694 3.72778 10.8694C3.71072 10.9908 3.79603 11.0574 3.8714 11.1309C4.26599 11.516 4.66129 11.9003 5.05446 12.2867C5.12129 12.3526 5.21229 12.4046 5.21727 12.5136C4.79211 12.5136 4.36623 12.5136 3.94107 12.5136C3.93538 12.4046 3.84509 12.3526 3.77826 12.2867C3.38509 11.9003 2.98979 11.516 2.5952 11.1309C2.51983 11.0581 2.4338 10.9908 2.45158 10.8694Z" fill="#005AD2"/>
<path d="M20.6325 5.50046C20.6325 5.91532 20.6325 6.33087 20.6325 6.74573C20.5209 6.74157 20.4676 6.65208 20.4008 6.58756C19.9927 6.19212 19.5881 5.79461 19.18 5.39917C19.1125 5.33396 19.0592 5.24585 18.9482 5.2403C18.9482 4.8421 18.9482 4.44458 18.9482 4.04637C19.0727 4.02903 19.1409 4.11297 19.2163 4.18651C19.6109 4.57153 20.0048 4.95726 20.4008 5.3409C20.4669 5.4068 20.5202 5.4956 20.6325 5.50046Z" fill="#005AD2"/>
<path d="M13.7255 0.0067749C14.1336 0.0067749 14.541 0.0067749 14.9491 0.0067749C14.9541 0.115693 15.0444 0.16703 15.1112 0.232936C15.4837 0.599927 15.8584 0.964837 16.2338 1.32905C16.3284 1.42132 16.4201 1.51359 16.4386 1.65095C16.0305 1.65095 15.6231 1.65095 15.215 1.65095C15.2093 1.54203 15.119 1.49 15.0522 1.4241C14.659 1.03768 14.2637 0.653345 13.8691 0.268317C13.7938 0.19478 13.7077 0.12818 13.7255 0.0067749Z" fill="#005AD2"/>
<path d="M2.45158 0.0067749C2.85968 0.0067749 3.26707 0.0067749 3.67517 0.0067749C3.6581 0.12818 3.74342 0.19478 3.81878 0.268317C4.21337 0.653345 4.60868 1.03768 5.00185 1.4241C5.06868 1.49 5.15968 1.54203 5.16466 1.65095C4.75656 1.65095 4.34917 1.65095 3.94107 1.65095C3.93538 1.54203 3.84509 1.49 3.77826 1.4241C3.38509 1.03699 2.98979 0.652651 2.5952 0.268317C2.51983 0.19478 2.4338 0.12818 2.45158 0.0067749Z" fill="#005AD2"/>
<path d="M16.4386 1.65022C16.4201 1.51286 16.3291 1.42059 16.2338 1.32832C15.8584 0.964104 15.4838 0.599194 15.1112 0.232203C15.0444 0.166991 14.9541 0.11496 14.9491 0.00604248C15.3572 0.00604248 15.7646 0.00604248 16.1727 0.00604248C16.1777 0.11496 16.268 0.166298 16.3348 0.232203C16.7073 0.599194 17.082 0.964104 17.4574 1.32832C17.552 1.42059 17.6437 1.51286 17.6622 1.65022C17.2541 1.65022 16.8467 1.65022 16.4386 1.65022Z" fill="#005AD2"/>
<path d="M13.7967 10.8694C14.2048 10.8694 14.6122 10.8694 15.0203 10.8694C15.0032 10.9908 15.0885 11.0574 15.1639 11.1309C15.5585 11.516 15.9538 11.9003 16.3469 12.2867C16.4138 12.3526 16.5048 12.4046 16.5098 12.5136C16.1017 12.5136 15.6943 12.5136 15.2862 12.5136C15.2805 12.4046 15.1902 12.3526 15.1234 12.2867C14.7302 11.9003 14.3349 11.516 13.9403 11.1309C13.8649 11.0581 13.7789 10.9908 13.7967 10.8694Z" fill="#005AD2"/>
<path d="M5.16467 1.65026C5.15969 1.54134 5.06869 1.48931 5.00186 1.4234C4.60869 1.03699 4.21338 0.652651 3.81879 0.268317C3.74343 0.19478 3.65811 0.12818 3.67518 0.0067749C4.0655 0.0067749 4.45512 0.0067749 4.84544 0.0067749C4.85042 0.115693 4.94142 0.167724 5.00826 0.233629C5.40142 0.620045 5.79673 1.00438 6.19132 1.38941C6.26668 1.46295 6.35271 1.52954 6.33493 1.65095C5.94461 1.65026 5.555 1.65026 5.16467 1.65026Z" fill="#005AD2"/>
<path d="M16.5096 12.5136C16.5047 12.4046 16.4137 12.3526 16.3468 12.2867C15.9537 11.9003 15.5584 11.516 15.1638 11.1309C15.0884 11.0574 15.0031 10.9908 15.0201 10.8694C15.4105 10.8694 15.8001 10.8694 16.1904 10.8694C16.1954 10.9783 16.2864 11.0303 16.3532 11.0962C16.7464 11.4827 17.1417 11.867 17.5363 12.252C17.6117 12.3256 17.6977 12.3922 17.6799 12.5136C17.2896 12.5136 16.9 12.5136 16.5096 12.5136Z" fill="#005AD2"/>
<path d="M9.35798 16.4159C9.35798 16.7967 9.35798 17.1769 9.35798 17.5578C9.23356 17.5751 9.16531 17.4912 9.08995 17.4176C8.69536 17.0326 8.30148 16.6469 7.90546 16.2632C7.83792 16.198 7.7846 16.1092 7.67297 16.1044C7.67297 15.7235 7.67297 15.3433 7.67297 14.9625C7.81375 14.9805 7.90831 15.0693 8.00287 15.1623C8.37613 15.5286 8.7501 15.8942 9.12621 16.2577C9.19375 16.3222 9.24707 16.411 9.35798 16.4159Z" fill="#005AD2"/>
<path d="M5.21801 12.5136C5.21304 12.4046 5.12203 12.3526 5.0552 12.2867C4.66203 11.9003 4.26673 11.516 3.87214 11.1309C3.79677 11.0574 3.71146 10.9908 3.72852 10.8694C4.11885 10.8694 4.50846 10.8694 4.89879 10.8694C4.90376 10.9783 4.99406 11.0296 5.06089 11.0955C5.43344 11.4625 5.80812 11.8274 6.18352 12.1917C6.27808 12.2839 6.36979 12.3762 6.38828 12.5136C5.99795 12.5136 5.60763 12.5136 5.21801 12.5136Z" fill="#005AD2"/>
<path d="M9.35798 16.4159C9.24636 16.411 9.19375 16.3229 9.12621 16.2577C8.7501 15.8942 8.37613 15.5286 8.00287 15.1623C7.90831 15.07 7.81375 14.9805 7.67297 14.9625C7.67297 14.5643 7.67297 14.1668 7.67297 13.7686C7.7846 13.7734 7.83792 13.8622 7.90546 13.9274C8.30148 14.3111 8.69536 14.6968 9.08995 15.0818C9.16531 15.1553 9.23356 15.2386 9.35798 15.2219C9.35798 15.6195 9.35798 16.0177 9.35798 16.4159Z" fill="#005AD2"/>
<path d="M20.6325 5.50048C20.5209 5.49562 20.4676 5.40683 20.4 5.34161C20.004 4.95797 19.6101 4.57225 19.2155 4.18722C19.1402 4.11368 19.0719 4.02974 18.9475 4.04708C18.9475 3.64887 18.9475 3.25136 18.9475 2.85315C19.0591 2.85801 19.1125 2.9468 19.18 3.01202C19.576 3.39566 19.9699 3.78138 20.3645 4.16641C20.4398 4.23995 20.5081 4.3232 20.6325 4.30655C20.6325 4.70476 20.6325 5.10296 20.6325 5.50048Z" fill="#005AD2"/>
<path d="M3.6218 18.3452C3.62678 18.4541 3.71779 18.5062 3.78462 18.5714C4.18916 18.9696 4.59726 19.3643 5.00181 19.7625C5.06864 19.8278 5.15964 19.8798 5.16462 19.9887C4.75652 19.9887 4.34913 19.9887 3.94103 19.9887C3.95881 19.8673 3.87278 19.8007 3.79741 19.7272C3.40211 19.3421 3.00681 18.9578 2.61364 18.5707C2.54681 18.5048 2.4558 18.4528 2.45154 18.3431C2.84186 18.3438 3.23148 18.3445 3.6218 18.3452Z" fill="#005AD2"/>
<path d="M14.8956 7.48182C14.9006 7.59074 14.9916 7.64277 15.0584 7.70798C15.463 8.10619 15.8711 8.50093 16.2756 8.89914C16.3424 8.96435 16.4334 9.01638 16.4384 9.1253C16.0303 9.1253 15.6229 9.1253 15.2148 9.1253C15.2326 9.00389 15.1466 8.93729 15.0712 8.86376C14.6759 8.47873 14.2806 8.09439 13.8874 7.70728C13.8206 7.64138 13.7296 7.58935 13.7253 7.47974C14.1157 7.48043 14.506 7.48112 14.8956 7.48182Z" fill="#005AD2"/>
<path d="M7.67371 2.95726C7.79813 2.93992 7.86638 3.02386 7.94174 3.0974C8.33634 3.48242 8.73022 3.86815 9.12623 4.25179C9.19377 4.317 9.2471 4.4058 9.35872 4.41065C9.35872 4.79152 9.35872 5.17169 9.35872 5.55256C9.2471 5.5477 9.19377 5.4589 9.12623 5.39369C8.73022 5.01005 8.33634 4.62433 7.94174 4.2393C7.86638 4.16576 7.79813 4.08182 7.67371 4.09916C7.67371 3.7183 7.67371 3.33743 7.67371 2.95726Z" fill="#005AD2"/>
<path d="M7.67371 4.09917C7.79813 4.08182 7.86638 4.16577 7.94174 4.2393C8.33634 4.62433 8.73022 5.01005 9.12623 5.39369C9.19377 5.4589 9.24639 5.5477 9.35872 5.55256C9.35872 5.93343 9.35872 6.3136 9.35872 6.69446C9.24639 6.6903 9.19377 6.60081 9.12623 6.5356C8.73022 6.15196 8.33634 5.76623 7.94174 5.38121C7.86638 5.30767 7.79813 5.22442 7.67371 5.24107C7.67371 4.8602 7.67371 4.47934 7.67371 4.09917Z" fill="#005AD2"/>
<path d="M20.7037 16.4159C20.7037 16.7968 20.7037 17.1769 20.7037 17.5578C20.5914 17.5536 20.5387 17.4642 20.4712 17.3989C20.0752 17.0153 19.6813 16.6296 19.2867 16.2445C19.2114 16.171 19.1431 16.0878 19.0187 16.1044C19.0187 15.7235 19.0187 15.3434 19.0187 14.9625C19.1431 14.9452 19.2114 15.0291 19.2867 15.1026C19.6813 15.4877 20.0752 15.8734 20.4712 16.257C20.538 16.3216 20.5914 16.411 20.7037 16.4159Z" fill="#005AD2"/>
<path d="M20.7037 16.4159C20.5921 16.411 20.5387 16.3222 20.4712 16.257C20.0752 15.8734 19.6813 15.4877 19.2867 15.1026C19.2114 15.0291 19.1431 14.9452 19.0187 14.9625C19.0187 14.5816 19.0187 14.2015 19.0187 13.8206C19.1431 13.8033 19.2114 13.8872 19.2867 13.9607C19.6813 14.3458 20.0752 14.7315 20.4712 15.1151C20.5387 15.1803 20.5921 15.2691 20.7037 15.274C20.7037 15.6542 20.7037 16.035 20.7037 16.4159Z" fill="#005AD2"/>
<path d="M3.62187 7.48183C3.62684 7.59075 3.71785 7.64278 3.78468 7.708C4.18922 8.10621 4.59732 8.50095 5.00187 8.89916C5.0687 8.96437 5.1597 9.0164 5.16468 9.12532C4.77436 9.12532 4.38474 9.12532 3.99442 9.12532C3.98944 9.0164 3.89843 8.96437 3.8316 8.89846C3.43843 8.51205 3.04313 8.12771 2.64854 7.74268C2.57318 7.66915 2.48715 7.60255 2.50492 7.48114C2.87747 7.48183 3.24931 7.48183 3.62187 7.48183Z" fill="#005AD2"/>
<path d="M14.967 18.3452C14.9719 18.4542 15.0629 18.5062 15.1298 18.5714C15.5343 18.9696 15.9424 19.3643 16.347 19.7626C16.4138 19.8278 16.5048 19.8798 16.5098 19.9887C16.1194 19.9887 15.7298 19.9887 15.3395 19.9887C15.3345 19.8798 15.2435 19.8278 15.1767 19.7619C14.7835 19.3754 14.3882 18.9911 13.9936 18.6061C13.9183 18.5325 13.8322 18.4659 13.85 18.3445C14.2226 18.3452 14.5951 18.3452 14.967 18.3452Z" fill="#005AD2"/>
<path d="M9.35786 2.3343C9.23344 2.35095 9.16519 2.2677 9.08982 2.19416C8.43217 1.55175 7.77452 0.910038 7.11616 0.268324C7.04079 0.194787 6.95548 0.128187 6.97254 0.00678206C8.19044 -0.0355364 9.3991 1.14383 9.35786 2.3343Z" fill="#005AD2"/>
<path d="M20.7037 13.1969C20.5793 13.2136 20.511 13.1303 20.4357 13.0568C19.778 12.4144 19.1203 11.7726 18.462 11.1309C18.3866 11.0574 18.3013 10.9908 18.3184 10.8694C19.5356 10.8271 20.7442 12.0064 20.7037 13.1969Z" fill="#005AD2"/>
<path d="M9.35798 13.1969C9.2172 13.1789 9.12264 13.0901 9.0288 12.9971C8.41238 12.3942 7.79525 11.7921 7.17742 11.1906C7.08286 11.0983 6.99185 11.0061 6.97266 10.8694C8.19056 10.8271 9.39921 12.0071 9.35798 13.1969Z" fill="#005AD2"/>
<path d="M17.8213 9.12605C17.8163 9.01713 17.7253 8.9651 17.6585 8.8992C17.2653 8.51278 16.87 8.12844 16.4754 7.74342C16.4001 7.66988 16.3141 7.60328 16.3318 7.48187C16.7044 7.48187 17.0762 7.48187 17.4488 7.48187C17.431 7.60258 17.5163 7.66918 17.591 7.74272C17.9528 8.09514 18.3154 8.44826 18.6759 8.80207C18.7427 8.86728 18.8316 8.9214 18.8316 9.03101C18.506 9.17184 18.1626 9.13438 17.8213 9.12605Z" fill="#005AD2"/>
<path d="M6.54752 19.9887C6.54254 19.8798 6.45154 19.8278 6.3847 19.7619C5.99153 19.3754 5.59623 18.9911 5.20164 18.6061C5.12628 18.5325 5.04025 18.4659 5.05802 18.3445C5.43058 18.3445 5.80242 18.3445 6.17497 18.3445C6.15719 18.4653 6.24251 18.5319 6.31716 18.6054C6.67905 18.9578 7.04165 19.3109 7.40211 19.6647C7.46894 19.7299 7.55781 19.7841 7.55781 19.8937C7.23219 20.0352 6.88879 19.9977 6.54752 19.9887Z" fill="#005AD2"/>
<path d="M6.54756 9.12602C6.54258 9.01711 6.45157 8.96508 6.38474 8.89986C5.9802 8.50165 5.5721 8.10691 5.16684 7.7087C5.10001 7.64349 5.00901 7.59146 5.00403 7.48254C5.37658 7.48254 5.74842 7.48254 6.12097 7.48254C6.12595 7.59077 6.21553 7.64211 6.28165 7.70732C6.58382 8.00563 6.89096 8.29977 7.19241 8.59878C7.32679 8.73198 7.48747 8.84506 7.55714 9.03098C7.23223 9.17181 6.88882 9.13435 6.54756 9.12602Z" fill="#005AD2"/>
<path d="M17.8925 19.9887C17.8875 19.8798 17.7965 19.8277 17.7297 19.7625C17.3252 19.3643 16.9171 18.9696 16.5118 18.5714C16.445 18.5062 16.354 18.4541 16.349 18.3452C16.7215 18.3452 17.0934 18.3452 17.4659 18.3452C17.4709 18.4534 17.5605 18.5048 17.6266 18.57C17.9288 18.8683 18.2359 19.1624 18.5374 19.4614C18.6718 19.5946 18.8324 19.7084 18.9021 19.8936C18.5772 20.0352 18.2338 19.9977 17.8925 19.9887Z" fill="#005AD2"/>
<path d="M0.0135405 6.84986C0.112366 6.83876 0.179198 6.88941 0.244607 6.95323C0.932831 7.62686 1.62248 8.2991 2.31141 8.97134C2.3562 9.01504 2.39744 9.05944 2.39815 9.12535C1.203 9.16628 3.19239e-05 8.01813 0.0135405 6.84986Z" fill="#005AD2"/>
<path d="M11.3588 17.7132C11.4576 17.7021 11.5244 17.7527 11.5898 17.8166C12.278 18.4902 12.9677 19.1624 13.6566 19.8347C13.7014 19.8784 13.7427 19.9228 13.7434 19.9887C12.5482 20.0289 11.3452 18.8815 11.3588 17.7132Z" fill="#005AD2"/>
<path d="M0.0655518 1.91869C0.114609 1.61206 0.23192 1.33317 0.427438 1.08759C0.539061 1.08759 0.595228 1.17292 0.662771 1.23813C0.937918 1.50453 1.21164 1.77231 1.48466 2.0394C1.55931 2.11225 1.62756 2.1955 1.75127 2.17815C1.66311 2.55555 1.7335 2.94058 1.69866 3.32006C1.58775 3.3152 1.53514 3.22779 1.46831 3.16327C1.08793 2.79559 0.709695 2.42582 0.332167 2.05605C0.257515 1.98321 0.18855 1.90204 0.0655518 1.91869Z" fill="#005AD2"/>
<path d="M0.0655518 12.7814C0.114609 12.4747 0.23192 12.1958 0.427438 11.9503C0.539061 11.9503 0.595228 12.0356 0.662771 12.1008C0.937918 12.3672 1.21164 12.635 1.48466 12.9021C1.55931 12.9749 1.62756 13.0582 1.75127 13.0408C1.66311 13.4182 1.7335 13.8033 1.69866 14.1827C1.58775 14.1779 1.53514 14.0905 1.46831 14.0259C1.08864 13.6583 0.710406 13.2885 0.332878 12.9187C0.257515 12.8459 0.18855 12.7647 0.0655518 12.7814Z" fill="#005AD2"/>
<path d="M11.4104 12.7814C11.4595 12.4747 11.5768 12.1958 11.7723 11.9503C11.8839 11.9503 11.9401 12.0356 12.0076 12.1008C12.2828 12.3672 12.5565 12.635 12.8295 12.9021C12.9042 12.9749 12.9724 13.0582 13.0961 13.0408C13.008 13.4182 13.0784 13.8033 13.0435 14.1827C12.9326 14.1779 12.88 14.0905 12.8132 14.0259C12.4335 13.6583 12.0553 13.2885 11.6777 12.9187C11.6024 12.8459 11.5334 12.7647 11.4104 12.7814Z" fill="#005AD2"/>
<path d="M11.3395 1.91869C11.3885 1.61206 11.5058 1.33317 11.7014 1.08759C11.813 1.08759 11.8692 1.17292 11.9367 1.23813C12.2118 1.50453 12.4856 1.77231 12.7586 2.0394C12.8332 2.11225 12.9015 2.1955 13.0252 2.17815C12.937 2.55555 13.0074 2.94058 12.9726 3.32006C12.8617 3.3152 12.8091 3.22779 12.7422 3.16327C12.3626 2.79559 11.9843 2.42582 11.6068 2.05605C11.5314 1.98321 11.4625 1.90204 11.3395 1.91869Z" fill="#005AD2"/>
<path d="M11.3394 1.9187C11.4624 1.90205 11.5307 1.98322 11.6053 2.05606C11.9836 2.42583 12.3611 2.79559 12.7407 3.16328C12.8076 3.2278 12.8602 3.3159 12.9711 3.32006C12.9711 3.6489 12.9711 3.97774 12.9711 4.30657C12.8595 4.30171 12.8062 4.21291 12.7393 4.1477C12.3312 3.75227 11.9267 3.35475 11.5186 2.95932C11.4517 2.89411 11.3984 2.80531 11.2868 2.80045C11.2861 2.50561 11.2363 2.20799 11.3394 1.9187Z" fill="#005AD2"/>
<path d="M0.06551 12.7814C0.187798 12.7647 0.256762 12.8459 0.331415 12.9187C0.709653 13.2885 1.08718 13.6583 1.46684 14.0259C1.53367 14.0905 1.58629 14.1786 1.6972 14.1827C1.6972 14.5116 1.6972 14.8404 1.6972 15.1692C1.58557 15.1644 1.53225 15.0756 1.46542 15.0104C1.05732 14.6149 0.652775 14.2174 0.244676 13.822C0.177844 13.7568 0.124521 13.668 0.0128979 13.6631C0.0114759 13.369 -0.0375813 13.0707 0.06551 12.7814Z" fill="#005AD2"/>
<path d="M11.4105 12.7814C11.5328 12.7647 11.6018 12.8459 11.6765 12.9187C12.0547 13.2885 12.4322 13.6583 12.8119 14.0259C12.8787 14.0905 12.9313 14.1786 13.0422 14.1827C13.0422 14.4942 13.0422 14.8057 13.0422 15.1172C12.9178 15.1346 12.8496 15.0506 12.7742 14.9771C12.3796 14.592 11.9857 14.2063 11.5897 13.8227C11.5222 13.7575 11.4688 13.6687 11.3572 13.6638C11.3572 13.369 11.3075 13.0707 11.4105 12.7814Z" fill="#005AD2"/>
<path d="M0.065417 1.9187C0.188416 1.90205 0.256669 1.98322 0.331322 2.05606C0.70956 2.42583 1.0878 2.79559 1.46746 3.16328C1.53429 3.2278 1.5869 3.3159 1.69782 3.32006C1.69782 3.63156 1.69782 3.94305 1.69782 4.25454C1.57339 4.27188 1.50514 4.18794 1.42978 4.1144C1.0359 3.72937 0.642018 3.34365 0.246005 2.96001C0.178462 2.8948 0.125139 2.806 0.0135158 2.80114C0.0113829 2.50561 -0.0376744 2.20799 0.065417 1.9187Z" fill="#005AD2"/>
<path d="M0.0136504 13.6646C0.125273 13.6694 0.178597 13.7582 0.245428 13.8234C0.653528 14.2189 1.05807 14.6164 1.46617 15.0118C1.533 15.077 1.58633 15.1658 1.69795 15.1707C1.69795 15.4822 1.69795 15.7937 1.69795 16.1051C1.58633 16.1003 1.533 16.0115 1.46546 15.9463C1.06945 15.5626 0.675568 15.1769 0.280977 14.7919C0.205614 14.7183 0.13736 14.6344 0.0129395 14.6517C0.0136504 14.3222 0.0136504 13.9934 0.0136504 13.6646Z" fill="#005AD2"/>
<path d="M11.2875 2.80115C11.3991 2.806 11.4524 2.8948 11.5192 2.96001C11.9273 3.35545 12.3319 3.75297 12.74 4.1484C12.8068 4.21361 12.8601 4.30241 12.9718 4.30727C12.9718 4.61876 12.9718 4.93025 12.9718 5.24174C12.8601 5.23689 12.8068 5.14809 12.7393 5.08288C12.3433 4.69923 11.9494 4.31351 11.5548 3.92848C11.4794 3.85495 11.4112 3.771 11.2867 3.78835C11.2875 3.45882 11.2875 3.12998 11.2875 2.80115Z" fill="#005AD2"/>
<path d="M11.2876 6.84985C11.3786 6.85124 11.4269 6.91784 11.4831 6.97195C12.1535 7.62615 12.8247 8.28036 13.4944 8.93456C13.5499 8.98867 13.6182 9.03654 13.6196 9.12534C12.4415 9.13574 11.2748 7.99661 11.2876 6.84985Z" fill="#005AD2"/>
<path d="M0.0135321 17.7132C0.104537 17.7146 0.152883 17.7812 0.20905 17.8353C0.8795 18.4895 1.54995 19.1437 2.2204 19.7979C2.27585 19.852 2.34411 19.8999 2.34553 19.9887C1.16744 19.9984 0.00073451 18.86 0.0135321 17.7132Z" fill="#005AD2"/>
<path d="M11.3586 13.6646C11.4703 13.6694 11.5236 13.7582 11.5911 13.8234C11.9871 14.2071 12.381 14.5928 12.7756 14.9778C12.851 15.0513 12.9192 15.1353 13.0437 15.1179C13.0437 15.4294 13.0437 15.7409 13.0437 16.0524C12.9192 16.0698 12.851 15.9858 12.7756 15.9123C12.381 15.5273 11.9871 15.1415 11.5911 14.7579C11.5236 14.6927 11.471 14.6039 11.3586 14.599C11.3586 14.2875 11.3586 13.976 11.3586 13.6646Z" fill="#005AD2"/>
<path d="M0.0135498 2.80115C0.125173 2.806 0.178496 2.8948 0.246039 2.96001C0.642052 3.34366 1.03593 3.72938 1.43052 4.11441C1.50589 4.18794 1.57414 4.27189 1.69856 4.25454C1.69856 4.56604 1.69856 4.87753 1.69856 5.18902C1.57414 5.20636 1.50589 5.12242 1.43052 5.04888C1.03593 4.66385 0.642052 4.27813 0.246039 3.89449C0.178496 3.82928 0.125884 3.74048 0.0135498 3.73562C0.0135498 3.42413 0.0135498 3.11264 0.0135498 2.80115Z" fill="#005AD2"/>
<path d="M18.9036 19.8937C18.8339 19.7077 18.6732 19.5946 18.5388 19.4614C18.2374 19.1624 17.9303 18.8683 17.6281 18.57C17.562 18.5048 17.4717 18.4527 17.4674 18.3452C17.8201 18.3119 18.1805 18.3834 18.5282 18.2751C18.5282 18.3841 18.6128 18.441 18.6796 18.5069C18.9533 18.7753 19.2285 19.0431 19.5029 19.3116C19.5705 19.3782 19.6522 19.4372 19.6537 19.5447C19.4382 19.7313 19.1809 19.8326 18.9036 19.8937Z" fill="#005AD2"/>
<path d="M7.55848 9.03098C7.48881 8.84506 7.32813 8.73198 7.19375 8.59878C6.8923 8.29978 6.58516 8.00563 6.28299 7.70732C6.21687 7.64211 6.12658 7.59007 6.12231 7.48254C6.47496 7.44924 6.83542 7.5207 7.18309 7.41248C7.18309 7.52139 7.26769 7.57828 7.33453 7.64419C7.60825 7.91267 7.8834 8.18045 8.15783 8.44893C8.22538 8.51553 8.30714 8.5745 8.30856 8.68203C8.09314 8.86865 7.83505 8.96924 7.55848 9.03098Z" fill="#005AD2"/>
<path d="M7.55844 19.8937C7.55844 19.7841 7.46957 19.7306 7.40274 19.6647C7.04227 19.3102 6.68039 18.9578 6.31779 18.6054C6.24314 18.5325 6.15782 18.4653 6.17559 18.3445C6.51117 18.3133 6.85315 18.3792 7.18305 18.2745C7.18305 18.3834 7.26765 18.4403 7.33448 18.5062C7.60821 18.7747 7.88336 19.0425 8.15779 19.3109C8.22534 19.3775 8.3071 19.4365 8.30852 19.544C8.08954 19.7251 7.8407 19.843 7.55844 19.8937Z" fill="#005AD2"/>
<path d="M18.8324 9.03094C18.8324 8.92133 18.7435 8.86791 18.6767 8.80201C18.3162 8.4475 17.9543 8.09508 17.5917 7.74266C17.5171 7.66982 17.4317 7.60252 17.4495 7.48181C17.7851 7.45059 18.1271 7.5165 18.457 7.41174C18.457 7.52066 18.5416 7.57755 18.6084 7.64345C18.8821 7.91193 19.1573 8.17972 19.4317 8.4482C19.4993 8.5148 19.581 8.57377 19.5824 8.6813C19.3635 8.86167 19.1146 8.97961 18.8324 9.03094Z" fill="#005AD2"/>
<path d="M13.7967 10.8694C13.7789 10.9908 13.8649 11.0574 13.9403 11.1309C14.3349 11.5159 14.7302 11.9003 15.1233 12.2867C15.1902 12.3526 15.2812 12.4046 15.2862 12.5135C14.9669 12.5135 14.6477 12.5135 14.3285 12.5135C14.3057 12.4685 14.2929 12.4136 14.2581 12.3797C13.8052 11.9329 13.3502 11.4889 12.8951 11.0442C13.1845 10.9276 13.4781 10.8368 13.7967 10.8694Z" fill="#005AD2"/>
<path d="M13.7255 0.00673708C13.7077 0.128142 13.7937 0.194742 13.8691 0.268279C14.2637 0.653307 14.659 1.03764 15.0522 1.42406C15.119 1.48996 15.21 1.54199 15.215 1.65091C14.8958 1.65091 14.5765 1.65091 14.2573 1.65091C14.2345 1.60582 14.2218 1.55101 14.1869 1.51702C13.734 1.07025 13.279 0.626251 12.824 0.181561C13.1133 0.0643179 13.407 -0.0258689 13.7255 0.00673708Z" fill="#005AD2"/>
<path d="M2.45159 0.00673708C2.43381 0.128142 2.51984 0.194742 2.5952 0.268279C2.98979 0.653307 3.3851 1.03764 3.77827 1.42406C3.8451 1.48996 3.9361 1.54199 3.94108 1.65091C3.62185 1.65091 3.30262 1.65091 2.9834 1.65091C2.96064 1.60582 2.94785 1.55101 2.91301 1.51702C2.46083 1.06955 2.00581 0.626251 1.55078 0.181561C1.83944 0.0643179 2.13307 -0.0258689 2.45159 0.00673708Z" fill="#005AD2"/>
<path d="M2.45144 10.8694C2.43367 10.9908 2.5197 11.0574 2.59506 11.1309C2.98965 11.5159 3.38495 11.9003 3.77812 12.2867C3.84495 12.3526 3.93596 12.4046 3.94094 12.5135C3.62171 12.5135 3.30248 12.5135 2.98325 12.5135C2.9605 12.4685 2.9477 12.4136 2.91287 12.3797C2.45997 11.9329 2.00495 11.4889 1.54993 11.0442C1.83929 10.9276 2.13293 10.8368 2.45144 10.8694Z" fill="#005AD2"/>
<path d="M18.9476 5.24103C19.0592 5.24588 19.1126 5.33468 19.1794 5.3999C19.5875 5.79533 19.992 6.19285 20.4001 6.58828C20.467 6.65349 20.5203 6.74229 20.6319 6.74646C20.6568 7.00522 20.6134 7.24942 20.4734 7.4735C20.3497 7.49084 20.2814 7.40829 20.206 7.33544C19.8641 7.00106 19.5221 6.66598 19.178 6.33368C19.1111 6.26916 19.0578 6.18105 18.9469 6.1755C18.9476 5.86401 18.9476 5.55252 18.9476 5.24103Z" fill="#005AD2"/>
<path d="M20.6298 2.17882C20.5061 2.19478 20.4385 2.11014 20.3639 2.0373C19.7595 1.44762 19.1559 0.857933 18.5509 0.26825C18.4762 0.195406 18.3902 0.129501 18.4066 0.00878906C19.579 0.117013 20.5153 1.03137 20.6298 2.17882Z" fill="#005AD2"/>
<path d="M7.67371 16.1037C7.78533 16.1092 7.83865 16.1974 7.90619 16.2626C8.30221 16.6462 8.69609 17.0319 9.09068 17.417C9.16604 17.4905 9.2343 17.5744 9.35872 17.5571C9.40138 17.8283 9.31464 18.0809 9.2407 18.3355C9.11414 18.3521 9.05015 18.2599 8.97621 18.1877C8.63068 17.8519 8.28657 17.5155 7.94174 17.1783C7.86638 17.1048 7.79813 17.0208 7.67371 17.0382C7.67371 16.7267 7.67371 16.4152 7.67371 16.1037Z" fill="#005AD2"/>
<path d="M19.0185 16.1037C19.143 16.0871 19.2112 16.1703 19.2866 16.2438C19.6812 16.6289 20.075 17.0146 20.4711 17.3982C20.5386 17.4635 20.5912 17.5523 20.7035 17.5571C20.7419 17.8096 20.6737 18.0476 20.5962 18.2842C20.4725 18.3015 20.4042 18.2182 20.3296 18.1454C19.9812 17.8048 19.6328 17.4655 19.2844 17.1249C19.2098 17.0521 19.1408 16.9695 19.0178 16.9862C19.0185 16.692 19.0185 16.3979 19.0185 16.1037Z" fill="#005AD2"/>
<path d="M7.67368 5.24104C7.79811 5.22439 7.86636 5.30764 7.94172 5.38118C8.33631 5.76621 8.73019 6.15193 9.12621 6.53557C9.19375 6.60078 9.24636 6.68958 9.3587 6.69444C9.39709 6.94696 9.32883 7.18491 9.25134 7.42148C9.12763 7.43882 9.05937 7.35557 8.98472 7.28273C8.63634 6.9421 8.28797 6.60286 7.93959 6.26223C7.86494 6.18939 7.79597 6.10683 7.67297 6.12348C7.67368 5.82934 7.67368 5.53519 7.67368 5.24104Z" fill="#005AD2"/>
<path d="M7.67358 6.1235C7.79658 6.10685 7.86555 6.18941 7.9402 6.26225C8.28787 6.60288 8.63695 6.94212 8.98533 7.28275C9.05998 7.35559 9.12824 7.43884 9.25195 7.4215C9.20644 7.6872 9.04008 7.89255 8.89575 8.109C8.58647 7.81347 8.27933 7.51515 7.96508 7.22448C7.85844 7.12596 7.78592 6.98305 7.62097 6.95461C7.69633 6.68058 7.64586 6.39961 7.67358 6.1235Z" fill="#005AD2"/>
<path d="M19.0187 16.9868C19.1417 16.9702 19.2106 17.0528 19.2853 17.1256C19.633 17.4662 19.982 17.8055 20.3304 18.1461C20.4051 18.2189 20.4733 18.3022 20.597 18.2848C20.5515 18.5505 20.3852 18.7559 20.2408 18.9723C19.9316 18.6768 19.6244 18.3785 19.3102 18.0878C19.2035 17.9893 19.131 17.8464 18.9661 17.818C19.0414 17.5439 18.9909 17.263 19.0187 16.9868Z" fill="#005AD2"/>
<path d="M7.67354 17.0382C7.79796 17.0215 7.86693 17.1048 7.94158 17.1783C8.28569 17.5148 8.63052 17.8512 8.97605 18.1877C9.04999 18.2598 9.11398 18.3521 9.24053 18.3355C9.16446 18.5637 9.07061 18.7829 8.90282 18.9647C8.79333 18.9626 8.73219 18.8842 8.66464 18.8183C8.39021 18.5512 8.1179 18.2834 7.84275 18.0177C7.77521 17.9525 7.71905 17.8679 7.60742 17.8679C7.69629 17.5966 7.64795 17.3143 7.67354 17.0382Z" fill="#005AD2"/>
<path d="M7.62035 6.95392C7.7853 6.98236 7.85853 7.12597 7.96447 7.22379C8.27872 7.51446 8.58515 7.81277 8.89513 8.10831C8.75152 8.34973 8.55173 8.53635 8.30858 8.68065C8.30716 8.57312 8.22611 8.51415 8.15785 8.44755C7.88342 8.17907 7.60827 7.91198 7.33454 7.64281C7.267 7.5769 7.18311 7.51932 7.18311 7.4111C7.37507 7.30148 7.52793 7.1551 7.62035 6.95392Z" fill="#005AD2"/>
<path d="M18.9654 17.8173C19.1304 17.8457 19.2036 17.9893 19.3096 18.0871C19.6238 18.3778 19.9302 18.6761 20.2402 18.9717C20.0966 19.2131 19.8968 19.3997 19.6537 19.544C19.6522 19.4365 19.5712 19.3775 19.5029 19.3109C19.2285 19.0424 18.9534 18.7753 18.6796 18.5062C18.6121 18.4402 18.5282 18.3827 18.5282 18.2744C18.7202 18.1648 18.873 18.0184 18.9654 17.8173Z" fill="#005AD2"/>
<path d="M13.0963 13.0408C12.9726 13.0581 12.9043 12.9749 12.8297 12.9021C12.556 12.6343 12.2829 12.3665 12.0078 12.1008C11.9403 12.0356 11.8848 11.9502 11.7725 11.9502C11.9075 11.6915 12.1237 11.5069 12.3611 11.3432C12.369 11.4507 12.4607 11.5007 12.5261 11.5666C12.861 11.9044 13.1987 12.2402 13.5357 12.576C13.3494 12.6953 13.1873 12.8361 13.0963 13.0408Z" fill="#005AD2"/>
<path d="M13.0251 2.17818C12.9014 2.19553 12.8332 2.11228 12.7585 2.03944C12.4848 1.77165 12.2118 1.50386 11.9366 1.23816C11.8691 1.17295 11.8136 1.08762 11.7013 1.08762C11.8364 0.828851 12.0525 0.644315 12.29 0.480591C12.2978 0.588121 12.3895 0.638071 12.4549 0.703977C12.7898 1.04183 13.1275 1.3776 13.4645 1.71338C13.2782 1.83201 13.1161 1.97353 13.0251 2.17818Z" fill="#005AD2"/>
<path d="M1.7512 2.17818C1.62749 2.19553 1.55924 2.11228 1.48459 2.03944C1.21086 1.77165 0.937848 1.50386 0.662701 1.23816C0.595158 1.17295 0.539702 1.08762 0.427368 1.08762C0.562453 0.828851 0.77859 0.644315 1.01606 0.480591C1.02388 0.588121 1.11559 0.638071 1.181 0.703977C1.51587 1.04183 1.85358 1.3776 2.19059 1.71338C2.00431 1.83201 1.84221 1.97353 1.7512 2.17818Z" fill="#005AD2"/>
<path d="M1.7512 13.0408C1.62749 13.0581 1.55924 12.9749 1.48459 12.9021C1.21086 12.6343 0.937848 12.3665 0.662701 12.1008C0.595158 12.0356 0.539702 11.9502 0.427368 11.9502C0.562453 11.6915 0.77859 11.5069 1.01606 11.3432C1.02388 11.4507 1.11559 11.5007 1.181 11.5666C1.51587 11.9044 1.85358 12.2402 2.19059 12.576C2.00431 12.6953 1.84221 12.8361 1.7512 13.0408Z" fill="#005AD2"/>
<path d="M18.9476 6.17554C19.0585 6.18039 19.1118 6.2685 19.1787 6.33371C19.5228 6.66601 19.8648 7.00109 20.2068 7.33548C20.2814 7.40832 20.3504 7.49088 20.4741 7.47353C20.4684 7.76005 20.2857 7.96332 20.1243 8.1763C19.9771 7.94805 19.761 7.78225 19.5669 7.59841C19.3479 7.39167 19.1737 7.1336 18.8822 7.00526C18.9704 6.73331 18.922 6.45165 18.9476 6.17554Z" fill="#005AD2"/>
<path d="M7.6067 17.8679C7.71833 17.8672 7.77449 17.9525 7.84204 18.0177C8.11718 18.2834 8.3902 18.5519 8.66392 18.8183C8.73218 18.8842 8.79261 18.9626 8.9021 18.9647C8.75279 19.2054 8.55514 19.399 8.30772 19.544C8.3063 19.4364 8.22525 19.3775 8.157 19.3109C7.88256 19.0424 7.60741 18.7753 7.33369 18.5061C7.26615 18.4402 7.18225 18.3826 7.18225 18.2744C7.36142 18.1759 7.49721 18.0351 7.6067 17.8679Z" fill="#005AD2"/>
<path d="M13.4646 1.7127C13.1276 1.37623 12.7906 1.04115 12.455 0.703298C12.3896 0.637392 12.2979 0.587443 12.29 0.479912C12.4465 0.342551 12.6285 0.249589 12.8247 0.180908C13.2797 0.625599 13.7347 1.0696 14.1876 1.51637C14.2218 1.55036 14.2346 1.60517 14.258 1.65026C13.9928 1.66968 13.7241 1.63916 13.4646 1.7127Z" fill="#005AD2"/>
<path d="M2.19003 1.7127C1.85303 1.37623 1.51603 1.04115 1.18045 0.703298C1.11504 0.637392 1.02332 0.587443 1.0155 0.479912C1.17192 0.342551 1.35393 0.249589 1.55016 0.180908C2.00518 0.625599 2.4602 1.0696 2.91309 1.51637C2.94722 1.55036 2.96002 1.60517 2.98348 1.65026C2.719 1.66968 2.45025 1.63916 2.19003 1.7127Z" fill="#005AD2"/>
<path d="M13.5357 12.576C13.1987 12.2396 12.8617 11.9045 12.5262 11.5666C12.4607 11.5007 12.369 11.4508 12.3612 11.3433C12.5176 11.2059 12.6996 11.1129 12.8959 11.0443C13.3509 11.4889 13.8059 11.9329 14.2588 12.3797C14.2929 12.4137 14.3057 12.4685 14.3292 12.5136C14.064 12.5323 13.7952 12.5025 13.5357 12.576Z" fill="#005AD2"/>
<path d="M2.19003 12.576C1.85303 12.2396 1.51603 11.9045 1.18045 11.5666C1.11504 11.5007 1.02332 11.4508 1.0155 11.3433C1.17192 11.2059 1.35393 11.1129 1.55016 11.0443C2.00518 11.4889 2.4602 11.9329 2.91309 12.3797C2.94722 12.4137 2.96002 12.4685 2.98348 12.5136C2.719 12.5323 2.45025 12.5025 2.19003 12.576Z" fill="#005AD2"/>
<path d="M18.8815 7.00458C19.173 7.13223 19.3472 7.39099 19.5662 7.59773C19.7603 7.78157 19.9771 7.94738 20.1236 8.17562C19.9799 8.38166 19.8058 8.55649 19.5825 8.68136C19.5811 8.57383 19.5 8.51486 19.4318 8.44826C19.1573 8.17978 18.8822 7.91269 18.6085 7.64352C18.5409 7.57761 18.457 7.52003 18.457 7.41181C18.6355 7.3126 18.7713 7.17177 18.8815 7.00458Z" fill="#005AD2"/>
</svg>
