<svg width="23" height="26" viewBox="0 0 23 26" fill="none" xmlns="http://www.w3.org/2000/svg">
<path d="M22.1763 6.26298C22.1532 7.31222 21.7364 8.49035 21.1873 9.63066C20.2444 11.5863 18.9899 13.3366 17.6149 15.0023C16.9369 15.8239 15.7356 15.8694 15.0652 15.0744C13.4892 13.2078 12.0911 11.2192 11.128 8.95614C10.7119 7.97904 10.4226 6.96691 10.4352 5.88824C10.4702 2.96744 12.6431 0.464094 15.4995 0.0571426C18.4162 -0.358214 21.2167 1.53085 21.9634 4.41944C22.0985 4.94686 22.1784 5.48129 22.1763 6.26298ZM16.2931 7.98184C17.4531 7.98674 18.3994 7.04816 18.4015 5.89105C18.4036 4.73813 17.4538 3.78274 16.3051 3.78274C15.1675 3.78274 14.2177 4.72763 14.2093 5.86653C14.2009 7.02575 15.1381 7.97693 16.2931 7.98184Z" fill="#005AD2"/>
<path d="M11.6884 25.0997C11.4012 25.1011 11.1946 24.933 11.0692 24.5905C10.6146 23.3458 10.1614 22.1012 9.70751 20.8565C9.06659 19.0956 8.42567 17.3347 7.78475 15.5731C7.58372 15.0212 7.714 14.7403 8.26246 14.5386C9.16886 14.2052 10.0738 13.8676 10.9823 13.5377C11.3935 13.3885 11.757 13.5566 11.8663 13.9299C11.9672 14.2738 11.7984 14.589 11.4208 14.7333C10.7379 14.9939 10.0542 15.2537 9.36568 15.4982C9.17236 15.5668 9.14644 15.6369 9.21859 15.8295C9.61785 16.8991 10.0073 17.9728 10.382 19.0515C10.4647 19.2896 10.5383 19.3478 10.7946 19.2532C13.7162 18.1711 16.6434 17.1029 19.5693 16.0319C19.708 15.9808 19.8459 15.9213 19.9986 15.9318C20.2809 15.9514 20.5142 16.1706 20.566 16.4627C20.6157 16.7415 20.4897 16.9992 20.2046 17.1183C19.8032 17.2857 19.3955 17.4398 18.9816 17.5736C18.7946 17.6345 18.7911 17.7046 18.8555 17.8664C19.0012 18.2306 19.1266 18.6025 19.2562 18.9723C19.3934 19.3646 19.2527 19.7057 18.9052 19.8332C18.5606 19.96 18.2335 19.7869 18.0864 19.3933C17.9435 19.0095 17.7999 18.6256 17.6696 18.2369C17.6213 18.094 17.5652 18.0814 17.4294 18.1311C15.3294 18.9009 13.228 19.6658 11.1252 20.4264C10.9578 20.4874 10.9263 20.5448 10.9921 20.722C11.4243 21.8819 11.8432 23.0468 12.2607 24.2116C12.4267 24.6732 12.1472 25.0969 11.6884 25.0997Z" fill="#005AD2"/>
<path d="M0.000573631 19.8304C0.00127409 19.5131 0.17849 19.2876 0.517512 19.1643C1.58081 18.7777 2.6448 18.3931 3.7088 18.0079C4.30629 17.7915 4.90168 17.5687 5.50268 17.3649C5.6925 17.3005 5.73593 17.2374 5.66168 17.0371C5.03057 15.3371 4.41136 13.633 3.79146 11.9288C3.73542 11.7747 3.65977 11.6221 3.68989 11.4476C3.73612 11.1773 3.96587 10.951 4.23415 10.916C4.53184 10.8768 4.7833 11.0253 4.90448 11.3447C5.14264 11.9723 5.36889 12.6041 5.59724 13.2351C7.01567 17.1534 8.43339 21.0716 9.84902 24.9905C9.90436 25.1446 9.97861 25.2973 9.94638 25.4717C9.89595 25.7456 9.6711 25.962 9.39793 25.9949C9.09323 26.0313 8.84807 25.8829 8.72969 25.5649C8.45371 24.821 8.18823 24.0736 7.91716 23.3284C7.36309 21.8042 6.80133 20.2836 6.26057 18.7546C6.17582 18.5143 6.08476 18.5094 5.87742 18.5858C4.22714 19.1923 2.57406 19.7898 0.920976 20.388C0.553235 20.521 0.266047 20.4398 0.095836 20.1617C0.0306933 20.0553 -0.00503004 19.9397 0.000573631 19.8304Z" fill="#005AD2"/>
<path d="M10.0592 12.1747C10.0347 12.4107 9.92329 12.616 9.68023 12.707C8.98958 12.9676 8.29612 13.2239 7.59777 13.4635C7.30918 13.5629 6.99397 13.3934 6.8812 13.0887C6.60942 12.354 6.34605 11.6157 6.09318 10.8747C5.9776 10.5364 6.14852 10.2086 6.47003 10.0881C6.79014 9.96832 7.12215 10.1091 7.25804 10.4537C7.44016 10.9153 7.60267 11.3839 7.76377 11.8532C7.81281 11.9961 7.85764 12.0423 8.01944 11.9779C8.42221 11.8161 8.83127 11.6655 9.24665 11.5394C9.6424 11.4182 10.0634 11.7523 10.0592 12.1747Z" fill="#005AD2"/>
</svg>
