<svg width="18" height="19" viewBox="0 0 18 19" fill="none" xmlns="http://www.w3.org/2000/svg">
<mask id="path-1-inside-1_120_329" fill="white">
<path d="M14.5054 3.15611C14.1096 2.76799 13.6429 2.47998 13.1613 2.21558C8.55263 -0.312357 2.72513 2.26179 1.49659 7.36643C0.590451 11.1322 2.46895 14.9739 6.00159 16.5813C10.1092 18.45 15.008 16.5207 16.733 12.3545C16.7623 12.2837 16.7874 12.2113 16.8198 12.142C16.9671 11.8263 17.3116 11.6876 17.6227 11.817C17.9302 11.9449 18.0812 12.2919 17.9559 12.6148C17.7803 13.0676 17.5739 13.5071 17.3239 13.9245C15.8951 16.3138 13.8031 17.7893 11.0842 18.3535C7.02016 19.197 2.69433 17.0526 0.969846 13.2894C-0.681732 9.6849 -0.211979 6.2919 2.28772 3.22901C3.65847 1.55023 5.48974 0.558354 7.62288 0.163557C10.0291 -0.281553 12.2665 0.18974 14.337 1.48092C14.3955 1.51737 14.4448 1.57179 14.5341 1.58206C14.5388 1.4342 14.453 1.31971 14.4099 1.19393C14.261 0.758064 14.5619 0.328355 15.0095 0.352485C15.2606 0.365833 15.4511 0.492127 15.546 0.72572C15.966 1.7602 16.387 2.79469 16.792 3.83482C16.9625 4.27222 16.6319 4.7045 16.1611 4.65521C15.5625 4.59258 14.968 4.49452 14.3719 4.40981C13.8775 4.33948 13.3836 4.26504 12.8887 4.19522C12.4996 4.14028 12.2578 3.83995 12.3142 3.47596C12.3671 3.13404 12.6993 2.92149 13.0771 2.97899C13.5269 3.04779 13.9771 3.10939 14.4274 3.17459C14.4587 3.17921 14.4905 3.19154 14.5095 3.15303C14.5095 3.16279 14.5095 3.17203 14.5095 3.18178C14.5177 3.17921 14.5259 3.17613 14.5341 3.17357C14.5249 3.16741 14.5152 3.16176 14.5054 3.15611Z"/>
</mask>
<path d="M14.5054 3.15611C14.1096 2.76799 13.6429 2.47998 13.1613 2.21558C8.55263 -0.312357 2.72513 2.26179 1.49659 7.36643C0.590451 11.1322 2.46895 14.9739 6.00159 16.5813C10.1092 18.45 15.008 16.5207 16.733 12.3545C16.7623 12.2837 16.7874 12.2113 16.8198 12.142C16.9671 11.8263 17.3116 11.6876 17.6227 11.817C17.9302 11.9449 18.0812 12.2919 17.9559 12.6148C17.7803 13.0676 17.5739 13.5071 17.3239 13.9245C15.8951 16.3138 13.8031 17.7893 11.0842 18.3535C7.02016 19.197 2.69433 17.0526 0.969846 13.2894C-0.681732 9.6849 -0.211979 6.2919 2.28772 3.22901C3.65847 1.55023 5.48974 0.558354 7.62288 0.163557C10.0291 -0.281553 12.2665 0.18974 14.337 1.48092C14.3955 1.51737 14.4448 1.57179 14.5341 1.58206C14.5388 1.4342 14.453 1.31971 14.4099 1.19393C14.261 0.758064 14.5619 0.328355 15.0095 0.352485C15.2606 0.365833 15.4511 0.492127 15.546 0.72572C15.966 1.7602 16.387 2.79469 16.792 3.83482C16.9625 4.27222 16.6319 4.7045 16.1611 4.65521C15.5625 4.59258 14.968 4.49452 14.3719 4.40981C13.8775 4.33948 13.3836 4.26504 12.8887 4.19522C12.4996 4.14028 12.2578 3.83995 12.3142 3.47596C12.3671 3.13404 12.6993 2.92149 13.0771 2.97899C13.5269 3.04779 13.9771 3.10939 14.4274 3.17459C14.4587 3.17921 14.4905 3.19154 14.5095 3.15303C14.5095 3.16279 14.5095 3.17203 14.5095 3.18178C14.5177 3.17921 14.5259 3.17613 14.5341 3.17357C14.5249 3.16741 14.5152 3.16176 14.5054 3.15611Z" fill="white"/>
<path d="M14.5054 3.15611L7.50413 10.2963L8.40416 11.1788L9.49504 11.8104L14.5054 3.15611ZM13.1613 2.21558L17.9741 -6.55013L17.9705 -6.55208L13.1613 2.21558ZM1.49659 7.36643L-8.2258 5.02653L-8.2259 5.02694L1.49659 7.36643ZM6.00159 16.5813L1.85997 25.6833L1.86056 25.6836L6.00159 16.5813ZM16.733 12.3545L25.9723 16.1801L25.9756 16.1721L16.733 12.3545ZM16.8198 12.142L25.8816 16.3708L16.8198 12.142ZM17.6227 11.817L13.783 21.0505L13.7842 21.051L17.6227 11.817ZM17.9559 12.6148L8.6328 8.99823L8.63229 8.99955L17.9559 12.6148ZM17.3239 13.9245L8.74526 8.78574L8.74135 8.79228L17.3239 13.9245ZM11.0842 18.3535L9.0523 8.56211L9.05193 8.56219L11.0842 18.3535ZM0.969846 13.2894L-8.12127 17.4549L-8.12108 17.4554L0.969846 13.2894ZM2.28772 3.22901L-5.45818 -3.09562L-5.45966 -3.09381L2.28772 3.22901ZM7.62288 0.163557L5.80394 -9.66962L5.803 -9.66945L7.62288 0.163557ZM14.337 1.48092L9.04553 9.96622L9.05041 9.96926L14.337 1.48092ZM14.5341 1.58206L13.3922 11.5166L24.1898 12.7577L24.5293 1.8944L14.5341 1.58206ZM14.4099 1.19393L4.94674 4.42635L4.95045 4.43718L14.4099 1.19393ZM15.0095 0.352485L14.4713 10.338L14.4786 10.3384L15.0095 0.352485ZM15.546 0.72572L24.8117 -3.03571L24.8096 -3.04078L15.546 0.72572ZM16.792 3.83482L7.47372 7.46372L7.47446 7.46561L16.792 3.83482ZM16.1611 4.65521L17.2023 -5.29043L17.2017 -5.29049L16.1611 4.65521ZM14.3719 4.40981L12.9635 14.3101L12.9649 14.3103L14.3719 4.40981ZM12.8887 4.19522L11.491 14.097L11.4918 14.0972L12.8887 4.19522ZM12.3142 3.47596L22.196 5.00909L22.1968 5.00433L12.3142 3.47596ZM13.0771 2.97899L14.5892 -6.90603L14.5816 -6.9072L13.0771 2.97899ZM14.4274 3.17459L15.887 -6.71831L15.8738 -6.72026L15.8605 -6.72217L14.4274 3.17459ZM14.5095 3.15303H24.5095L5.54145 -1.27121L14.5095 3.15303ZM14.5095 3.18178H4.5095V16.7837L17.4923 12.7266L14.5095 3.18178ZM14.5341 3.17357L17.5169 12.7184L37.5082 6.47109L20.0812 -5.14694L14.5341 3.17357ZM21.5067 -3.98407C20.1124 -5.35124 18.6741 -6.16578 17.9741 -6.55013L8.34861 10.9813C8.45648 11.0405 8.3903 11.0091 8.25102 10.9146C8.10137 10.813 7.82548 10.6114 7.50413 10.2963L21.5067 -3.98407ZM17.9705 -6.55208C7.59469 -12.2434 -5.45206 -6.49847 -8.2258 5.02653L11.219 9.70634C11.0529 10.3963 10.5616 10.8731 10.1012 11.0765C9.64096 11.2797 8.96473 11.3192 8.35217 10.9832L17.9705 -6.55208ZM-8.2259 5.02694C-10.2567 13.4664 -6.01926 22.0981 1.85997 25.6833L10.1432 7.47925C10.9572 7.84962 11.4376 8.79787 11.2191 9.70593L-8.2259 5.02694ZM1.86056 25.6836C11.1103 29.8917 22.0798 25.5814 25.9723 16.1801L7.49367 8.52901C7.93626 7.46006 9.10818 7.00837 10.1426 7.47898L1.86056 25.6836ZM25.9756 16.1721C26.0177 16.0704 26.0507 15.9864 26.0666 15.9456C26.0744 15.9257 26.0821 15.9058 26.0839 15.9014C26.0872 15.8928 26.0857 15.8967 26.083 15.9036C26.0778 15.9169 26.056 15.9722 26.0249 16.0468C25.9929 16.1233 25.9447 16.2355 25.8816 16.3708L7.75793 7.91314C7.60654 8.23755 7.50097 8.50649 7.46748 8.59176C7.45776 8.6165 7.44933 8.63818 7.44571 8.64746C7.4405 8.66087 7.44129 8.65883 7.44209 8.65678C7.4441 8.65163 7.46298 8.60329 7.49039 8.53693L25.9756 16.1721ZM25.8816 16.3708C23.8729 20.6751 18.6545 23.0763 13.783 21.0505L21.4624 2.58354C15.9686 0.299024 10.0613 2.97742 7.75793 7.91314L25.8816 16.3708ZM13.7842 21.051C9.02079 19.0709 6.81685 13.6795 8.6328 8.99823L27.279 16.2314C29.3455 10.9043 26.8397 4.81885 21.4612 2.58306L13.7842 21.051ZM8.63229 8.99955C8.62174 9.02674 8.65282 8.94006 8.74526 8.78574L25.9026 19.0632C26.4951 18.0741 26.9389 17.1085 27.2795 16.2301L8.63229 8.99955ZM8.74135 8.79228C8.70439 8.85408 8.69721 8.85355 8.73155 8.8158C8.7673 8.77649 8.82638 8.72078 8.90584 8.66446C8.9852 8.60823 9.05482 8.5727 9.09824 8.55427C9.1396 8.53671 9.13084 8.54581 9.0523 8.56211L13.116 28.1449C18.5496 27.0174 23.0292 23.8684 25.9065 19.0567L8.74135 8.79228ZM9.05193 8.56219C9.36323 8.49757 9.54664 8.56716 9.61609 8.60183C9.6881 8.63778 9.89821 8.76874 10.0608 9.12347L-8.12108 17.4554C-4.41703 25.5383 4.57398 29.9178 13.1164 28.1448L9.05193 8.56219ZM10.061 9.1239C9.97071 8.92692 9.9722 8.87058 9.9846 8.9431C9.99846 9.02426 10.0108 9.17893 9.98493 9.37328C9.95921 9.56682 9.90861 9.70276 9.88249 9.75962C9.86009 9.8084 9.88478 9.73603 10.0351 9.55184L-5.45966 -3.09381C-7.67891 -0.37456 -9.33432 2.92706 -9.84082 6.73893C-10.3486 10.5608 -9.60966 14.2066 -8.12127 17.4549L10.061 9.1239ZM10.0336 9.55365C9.932 9.6781 9.77549 9.81539 9.59618 9.91691C9.42871 10.0117 9.3514 10.0135 9.44276 9.99656L5.803 -9.66945C1.61911 -8.8951 -2.42037 -6.81609 -5.45818 -3.09562L10.0336 9.55365ZM9.44182 9.99674C9.45758 9.99382 9.42941 10.0002 9.36554 10C9.30075 9.9998 9.22462 9.99291 9.14642 9.97728C9.06884 9.96178 9.01433 9.94271 8.98861 9.93226C8.96433 9.9224 8.98321 9.92735 9.04553 9.96622L19.6285 -7.00438C15.5606 -9.54111 10.8026 -10.5943 5.80394 -9.66962L9.44182 9.99674ZM9.05041 9.96926C8.70389 9.75344 8.42618 9.54549 8.48821 9.59073C8.48879 9.59115 8.49483 9.59555 8.50129 9.60026C8.50835 9.60539 8.51908 9.61319 8.53199 9.62252C8.5574 9.64089 8.59723 9.66954 8.64603 9.70388C8.74239 9.7717 8.89485 9.87673 9.08608 9.99745C9.93977 10.5363 11.4069 11.2885 13.3922 11.5166L15.6761 -8.35253C17.572 -8.13461 18.9699 -7.41484 19.762 -6.91484C20.0768 -6.71607 20.3308 -6.5263 20.2717 -6.56942C20.2702 -6.57047 20.2484 -6.58641 20.223 -6.60474C20.1958 -6.6244 20.1532 -6.65493 20.1011 -6.69148C19.9991 -6.76304 19.8332 -6.87689 19.6236 -7.00742L9.05041 9.96926ZM24.5293 1.8944C24.5963 -0.251573 23.975 -1.85776 23.7171 -2.47511C23.6203 -2.70671 23.4718 -3.02648 23.545 -2.86618C23.5581 -2.83746 23.7142 -2.50202 23.8694 -2.04931L4.95045 4.43718C5.12723 4.95278 5.31016 5.3497 5.35133 5.43988C5.45257 5.66164 5.33329 5.40332 5.26278 5.23454C5.05737 4.74285 4.47659 3.26783 4.53903 1.26971L24.5293 1.8944ZM23.8731 -2.03848C25.7701 3.51511 21.8378 10.735 14.4713 10.338L15.5478 -9.63302C7.28593 -10.0783 2.75199 -1.99899 4.94674 4.42635L23.8731 -2.03848ZM14.4786 10.3384C13.0497 10.2624 11.3184 9.82893 9.673 8.69828C8.00119 7.5495 6.89955 6.00987 6.28249 4.49222L24.8096 -3.04078C23.1561 -7.10738 19.3929 -9.42858 15.5405 -9.63341L14.4786 10.3384ZM6.28042 4.48715C6.70813 5.54073 7.09982 6.50361 7.47372 7.46372L26.1104 0.205914C25.6741 -0.91424 25.2239 -2.02032 24.8117 -3.03571L6.28042 4.48715ZM7.47446 7.46561C4.89929 0.857033 10.3008 -6.01294 17.2023 -5.29043L15.1199 14.6009C22.9629 15.4219 29.0257 7.68742 26.1096 0.20402L7.47446 7.46561ZM17.2017 -5.29049C16.8466 -5.32765 16.671 -5.36393 15.779 -5.4907L12.9649 14.3103C13.2649 14.353 14.2783 14.5128 15.1205 14.6009L17.2017 -5.29049ZM15.7804 -5.4905C15.564 -5.52129 14.6196 -5.65962 14.2857 -5.70673L11.4918 14.0972C12.1477 14.1897 12.1911 14.2002 12.9635 14.3101L15.7804 -5.4905ZM14.2865 -5.70662C16.3201 -5.41955 18.5729 -4.38162 20.2408 -2.29834C21.9519 -0.161059 22.5825 2.51831 22.196 5.00909L2.43247 1.94282C1.41594 8.4948 6.28421 13.3621 11.491 14.097L14.2865 -5.70662ZM22.1968 5.00433C21.2443 11.1632 15.5296 13.4673 11.5727 12.8652L14.5816 -6.9072C9.86894 -7.62433 3.48998 -4.89508 2.43173 1.94758L22.1968 5.00433ZM11.5651 12.864C12.0613 12.9399 12.6532 13.022 12.9942 13.0714L15.8605 -6.72217C15.301 -6.80319 14.9924 -6.84435 14.5892 -6.90603L11.5651 12.864ZM12.9678 13.0675C12.8734 13.0536 12.7969 13.0409 12.7485 13.0326C12.7025 13.0247 12.6663 13.0182 12.6649 13.0179C12.6248 13.0107 12.7599 13.0357 12.9038 13.0582C13.1527 13.0972 14.0864 13.2442 15.2812 13.1473C16.6129 13.0393 18.3843 12.6228 20.1245 11.4369C21.8429 10.2658 22.8806 8.7874 23.4776 7.57727L5.54145 -1.27121C6.12894 -2.46209 7.15553 -3.92763 8.86162 -5.09029C10.5895 -6.2678 12.3474 -6.68048 13.6649 -6.7873C14.8454 -6.88303 15.7641 -6.73761 15.9977 -6.70104C16.1339 -6.67971 16.2612 -6.65614 16.2133 -6.66478C16.208 -6.66574 16.1679 -6.67299 16.1179 -6.68153C16.0657 -6.69047 15.9853 -6.70381 15.887 -6.71831L12.9678 13.0675ZM4.5095 3.15303C4.5095 3.15305 4.5095 3.15307 4.5095 3.15309C4.5095 3.15311 4.5095 3.15313 4.5095 3.15315C4.5095 3.15317 4.5095 3.15318 4.5095 3.1532C4.5095 3.15322 4.5095 3.15324 4.5095 3.15326C4.5095 3.15328 4.5095 3.1533 4.5095 3.15332C4.5095 3.15334 4.5095 3.15336 4.5095 3.15337C4.5095 3.15339 4.5095 3.15341 4.5095 3.15343C4.5095 3.15345 4.5095 3.15347 4.5095 3.15349C4.5095 3.15351 4.5095 3.15353 4.5095 3.15355C4.5095 3.15356 4.5095 3.15358 4.5095 3.1536C4.5095 3.15362 4.5095 3.15364 4.5095 3.15366C4.5095 3.15368 4.5095 3.1537 4.5095 3.15372C4.5095 3.15374 4.5095 3.15375 4.5095 3.15377C4.5095 3.15379 4.5095 3.15381 4.5095 3.15383C4.5095 3.15385 4.5095 3.15387 4.5095 3.15389C4.5095 3.15391 4.5095 3.15393 4.5095 3.15394C4.5095 3.15396 4.5095 3.15398 4.5095 3.154C4.5095 3.15402 4.5095 3.15404 4.5095 3.15406C4.5095 3.15408 4.5095 3.1541 4.5095 3.15412C4.5095 3.15413 4.5095 3.15415 4.5095 3.15417C4.5095 3.15419 4.5095 3.15421 4.5095 3.15423C4.5095 3.15425 4.5095 3.15427 4.5095 3.15429C4.5095 3.15431 4.5095 3.15432 4.5095 3.15434C4.5095 3.15436 4.5095 3.15438 4.5095 3.1544C4.5095 3.15442 4.5095 3.15444 4.5095 3.15446C4.5095 3.15448 4.5095 3.1545 4.5095 3.15451C4.5095 3.15453 4.5095 3.15455 4.5095 3.15457C4.5095 3.15459 4.5095 3.15461 4.5095 3.15463C4.5095 3.15465 4.5095 3.15467 4.5095 3.15468C4.5095 3.1547 4.5095 3.15472 4.5095 3.15474C4.5095 3.15476 4.5095 3.15478 4.5095 3.1548C4.5095 3.15482 4.5095 3.15484 4.5095 3.15486C4.5095 3.15487 4.5095 3.15489 4.5095 3.15491C4.5095 3.15493 4.5095 3.15495 4.5095 3.15497C4.5095 3.15499 4.5095 3.15501 4.5095 3.15503C4.5095 3.15504 4.5095 3.15506 4.5095 3.15508C4.5095 3.1551 4.5095 3.15512 4.5095 3.15514C4.5095 3.15516 4.5095 3.15518 4.5095 3.1552C4.5095 3.15521 4.5095 3.15523 4.5095 3.15525C4.5095 3.15527 4.5095 3.15529 4.5095 3.15531C4.5095 3.15533 4.5095 3.15535 4.5095 3.15537C4.5095 3.15538 4.5095 3.1554 4.5095 3.15542C4.5095 3.15544 4.5095 3.15546 4.5095 3.15548C4.5095 3.1555 4.5095 3.15552 4.5095 3.15554C4.5095 3.15556 4.5095 3.15557 4.5095 3.15559C4.5095 3.15561 4.5095 3.15563 4.5095 3.15565C4.5095 3.15567 4.5095 3.15569 4.5095 3.15571C4.5095 3.15573 4.5095 3.15574 4.5095 3.15576C4.5095 3.15578 4.5095 3.1558 4.5095 3.15582C4.5095 3.15584 4.5095 3.15586 4.5095 3.15588C4.5095 3.15589 4.5095 3.15591 4.5095 3.15593C4.5095 3.15595 4.5095 3.15597 4.5095 3.15599C4.5095 3.15601 4.5095 3.15603 4.5095 3.15605C4.5095 3.15606 4.5095 3.15608 4.5095 3.1561C4.5095 3.15612 4.5095 3.15614 4.5095 3.15616C4.5095 3.15618 4.5095 3.1562 4.5095 3.15622C4.5095 3.15623 4.5095 3.15625 4.5095 3.15627C4.5095 3.15629 4.5095 3.15631 4.5095 3.15633C4.5095 3.15635 4.5095 3.15637 4.5095 3.15639C4.5095 3.1564 4.5095 3.15642 4.5095 3.15644C4.5095 3.15646 4.5095 3.15648 4.5095 3.1565C4.5095 3.15652 4.5095 3.15654 4.5095 3.15655C4.5095 3.15657 4.5095 3.15659 4.5095 3.15661C4.5095 3.15663 4.5095 3.15665 4.5095 3.15667C4.5095 3.15669 4.5095 3.15671 4.5095 3.15672C4.5095 3.15674 4.5095 3.15676 4.5095 3.15678C4.5095 3.1568 4.5095 3.15682 4.5095 3.15684C4.5095 3.15686 4.5095 3.15687 4.5095 3.15689C4.5095 3.15691 4.5095 3.15693 4.5095 3.15695C4.5095 3.15697 4.5095 3.15699 4.5095 3.15701C4.5095 3.15703 4.5095 3.15704 4.5095 3.15706C4.5095 3.15708 4.5095 3.1571 4.5095 3.15712C4.5095 3.15714 4.5095 3.15716 4.5095 3.15718C4.5095 3.15719 4.5095 3.15721 4.5095 3.15723C4.5095 3.15725 4.5095 3.15727 4.5095 3.15729C4.5095 3.15731 4.5095 3.15733 4.5095 3.15735C4.5095 3.15736 4.5095 3.15738 4.5095 3.1574C4.5095 3.15742 4.5095 3.15744 4.5095 3.15746C4.5095 3.15748 4.5095 3.1575 4.5095 3.15751C4.5095 3.15753 4.5095 3.15755 4.5095 3.15757C4.5095 3.15759 4.5095 3.15761 4.5095 3.15763C4.5095 3.15765 4.5095 3.15766 4.5095 3.15768C4.5095 3.1577 4.5095 3.15772 4.5095 3.15774C4.5095 3.15776 4.5095 3.15778 4.5095 3.1578C4.5095 3.15781 4.5095 3.15783 4.5095 3.15785C4.5095 3.15787 4.5095 3.15789 4.5095 3.15791C4.5095 3.15793 4.5095 3.15795 4.5095 3.15796C4.5095 3.15798 4.5095 3.158 4.5095 3.15802C4.5095 3.15804 4.5095 3.15806 4.5095 3.15808C4.5095 3.1581 4.5095 3.15812 4.5095 3.15813C4.5095 3.15815 4.5095 3.15817 4.5095 3.15819C4.5095 3.15821 4.5095 3.15823 4.5095 3.15825C4.5095 3.15827 4.5095 3.15828 4.5095 3.1583C4.5095 3.15832 4.5095 3.15834 4.5095 3.15836C4.5095 3.15838 4.5095 3.1584 4.5095 3.15842C4.5095 3.15843 4.5095 3.15845 4.5095 3.15847C4.5095 3.15849 4.5095 3.15851 4.5095 3.15853C4.5095 3.15855 4.5095 3.15857 4.5095 3.15858C4.5095 3.1586 4.5095 3.15862 4.5095 3.15864C4.5095 3.15866 4.5095 3.15868 4.5095 3.1587C4.5095 3.15872 4.5095 3.15873 4.5095 3.15875C4.5095 3.15877 4.5095 3.15879 4.5095 3.15881C4.5095 3.15883 4.5095 3.15885 4.5095 3.15886C4.5095 3.15888 4.5095 3.1589 4.5095 3.15892C4.5095 3.15894 4.5095 3.15896 4.5095 3.15898C4.5095 3.159 4.5095 3.15901 4.5095 3.15903C4.5095 3.15905 4.5095 3.15907 4.5095 3.15909C4.5095 3.15911 4.5095 3.15913 4.5095 3.15915C4.5095 3.15916 4.5095 3.15918 4.5095 3.1592C4.5095 3.15922 4.5095 3.15924 4.5095 3.15926C4.5095 3.15928 4.5095 3.1593 4.5095 3.15931C4.5095 3.15933 4.5095 3.15935 4.5095 3.15937C4.5095 3.15939 4.5095 3.15941 4.5095 3.15943C4.5095 3.15945 4.5095 3.15946 4.5095 3.15948C4.5095 3.1595 4.5095 3.15952 4.5095 3.15954C4.5095 3.15956 4.5095 3.15958 4.5095 3.15959C4.5095 3.15961 4.5095 3.15963 4.5095 3.15965C4.5095 3.15967 4.5095 3.15969 4.5095 3.15971C4.5095 3.15973 4.5095 3.15974 4.5095 3.15976C4.5095 3.15978 4.5095 3.1598 4.5095 3.15982C4.5095 3.15984 4.5095 3.15986 4.5095 3.15988C4.5095 3.15989 4.5095 3.15991 4.5095 3.15993C4.5095 3.15995 4.5095 3.15997 4.5095 3.15999C4.5095 3.16001 4.5095 3.16002 4.5095 3.16004C4.5095 3.16006 4.5095 3.16008 4.5095 3.1601C4.5095 3.16012 4.5095 3.16014 4.5095 3.16016C4.5095 3.16017 4.5095 3.16019 4.5095 3.16021C4.5095 3.16023 4.5095 3.16025 4.5095 3.16027C4.5095 3.16029 4.5095 3.16031 4.5095 3.16032C4.5095 3.16034 4.5095 3.16036 4.5095 3.16038C4.5095 3.1604 4.5095 3.16042 4.5095 3.16044C4.5095 3.16045 4.5095 3.16047 4.5095 3.16049C4.5095 3.16051 4.5095 3.16053 4.5095 3.16055C4.5095 3.16057 4.5095 3.16058 4.5095 3.1606C4.5095 3.16062 4.5095 3.16064 4.5095 3.16066C4.5095 3.16068 4.5095 3.1607 4.5095 3.16072C4.5095 3.16073 4.5095 3.16075 4.5095 3.16077C4.5095 3.16079 4.5095 3.16081 4.5095 3.16083C4.5095 3.16085 4.5095 3.16086 4.5095 3.16088C4.5095 3.1609 4.5095 3.16092 4.5095 3.16094C4.5095 3.16096 4.5095 3.16098 4.5095 3.161C4.5095 3.16101 4.5095 3.16103 4.5095 3.16105C4.5095 3.16107 4.5095 3.16109 4.5095 3.16111C4.5095 3.16113 4.5095 3.16114 4.5095 3.16116C4.5095 3.16118 4.5095 3.1612 4.5095 3.16122C4.5095 3.16124 4.5095 3.16126 4.5095 3.16128C4.5095 3.16129 4.5095 3.16131 4.5095 3.16133C4.5095 3.16135 4.5095 3.16137 4.5095 3.16139C4.5095 3.16141 4.5095 3.16142 4.5095 3.16144C4.5095 3.16146 4.5095 3.16148 4.5095 3.1615C4.5095 3.16152 4.5095 3.16154 4.5095 3.16155C4.5095 3.16157 4.5095 3.16159 4.5095 3.16161C4.5095 3.16163 4.5095 3.16165 4.5095 3.16167C4.5095 3.16169 4.5095 3.1617 4.5095 3.16172C4.5095 3.16174 4.5095 3.16176 4.5095 3.16178C4.5095 3.1618 4.5095 3.16182 4.5095 3.16183C4.5095 3.16185 4.5095 3.16187 4.5095 3.16189C4.5095 3.16191 4.5095 3.16193 4.5095 3.16195C4.5095 3.16196 4.5095 3.16198 4.5095 3.162C4.5095 3.16202 4.5095 3.16204 4.5095 3.16206C4.5095 3.16208 4.5095 3.16209 4.5095 3.16211C4.5095 3.16213 4.5095 3.16215 4.5095 3.16217C4.5095 3.16219 4.5095 3.16221 4.5095 3.16223C4.5095 3.16224 4.5095 3.16226 4.5095 3.16228C4.5095 3.1623 4.5095 3.16232 4.5095 3.16234C4.5095 3.16236 4.5095 3.16237 4.5095 3.16239C4.5095 3.16241 4.5095 3.16243 4.5095 3.16245C4.5095 3.16247 4.5095 3.16249 4.5095 3.1625C4.5095 3.16252 4.5095 3.16254 4.5095 3.16256C4.5095 3.16258 4.5095 3.1626 4.5095 3.16262C4.5095 3.16263 4.5095 3.16265 4.5095 3.16267C4.5095 3.16269 4.5095 3.16271 4.5095 3.16273C4.5095 3.16275 4.5095 3.16277 4.5095 3.16278C4.5095 3.1628 4.5095 3.16282 4.5095 3.16284C4.5095 3.16286 4.5095 3.16288 4.5095 3.1629C4.5095 3.16291 4.5095 3.16293 4.5095 3.16295C4.5095 3.16297 4.5095 3.16299 4.5095 3.16301C4.5095 3.16303 4.5095 3.16304 4.5095 3.16306C4.5095 3.16308 4.5095 3.1631 4.5095 3.16312C4.5095 3.16314 4.5095 3.16316 4.5095 3.16317C4.5095 3.16319 4.5095 3.16321 4.5095 3.16323C4.5095 3.16325 4.5095 3.16327 4.5095 3.16329C4.5095 3.1633 4.5095 3.16332 4.5095 3.16334C4.5095 3.16336 4.5095 3.16338 4.5095 3.1634C4.5095 3.16342 4.5095 3.16343 4.5095 3.16345C4.5095 3.16347 4.5095 3.16349 4.5095 3.16351C4.5095 3.16353 4.5095 3.16355 4.5095 3.16356C4.5095 3.16358 4.5095 3.1636 4.5095 3.16362C4.5095 3.16364 4.5095 3.16366 4.5095 3.16368C4.5095 3.16369 4.5095 3.16371 4.5095 3.16373C4.5095 3.16375 4.5095 3.16377 4.5095 3.16379C4.5095 3.16381 4.5095 3.16382 4.5095 3.16384C4.5095 3.16386 4.5095 3.16388 4.5095 3.1639C4.5095 3.16392 4.5095 3.16394 4.5095 3.16395C4.5095 3.16397 4.5095 3.16399 4.5095 3.16401C4.5095 3.16403 4.5095 3.16405 4.5095 3.16407C4.5095 3.16408 4.5095 3.1641 4.5095 3.16412C4.5095 3.16414 4.5095 3.16416 4.5095 3.16418C4.5095 3.1642 4.5095 3.16421 4.5095 3.16423C4.5095 3.16425 4.5095 3.16427 4.5095 3.16429C4.5095 3.16431 4.5095 3.16433 4.5095 3.16434C4.5095 3.16436 4.5095 3.16438 4.5095 3.1644C4.5095 3.16442 4.5095 3.16444 4.5095 3.16446C4.5095 3.16447 4.5095 3.16449 4.5095 3.16451C4.5095 3.16453 4.5095 3.16455 4.5095 3.16457C4.5095 3.16459 4.5095 3.1646 4.5095 3.16462C4.5095 3.16464 4.5095 3.16466 4.5095 3.16468C4.5095 3.1647 4.5095 3.16472 4.5095 3.16473C4.5095 3.16475 4.5095 3.16477 4.5095 3.16479C4.5095 3.16481 4.5095 3.16483 4.5095 3.16485C4.5095 3.16486 4.5095 3.16488 4.5095 3.1649C4.5095 3.16492 4.5095 3.16494 4.5095 3.16496C4.5095 3.16498 4.5095 3.16499 4.5095 3.16501C4.5095 3.16503 4.5095 3.16505 4.5095 3.16507C4.5095 3.16509 4.5095 3.16511 4.5095 3.16512C4.5095 3.16514 4.5095 3.16516 4.5095 3.16518C4.5095 3.1652 4.5095 3.16522 4.5095 3.16524C4.5095 3.16525 4.5095 3.16527 4.5095 3.16529C4.5095 3.16531 4.5095 3.16533 4.5095 3.16535C4.5095 3.16537 4.5095 3.16538 4.5095 3.1654C4.5095 3.16542 4.5095 3.16544 4.5095 3.16546C4.5095 3.16548 4.5095 3.1655 4.5095 3.16551C4.5095 3.16553 4.5095 3.16555 4.5095 3.16557C4.5095 3.16559 4.5095 3.16561 4.5095 3.16563C4.5095 3.16564 4.5095 3.16566 4.5095 3.16568C4.5095 3.1657 4.5095 3.16572 4.5095 3.16574C4.5095 3.16576 4.5095 3.16577 4.5095 3.16579C4.5095 3.16581 4.5095 3.16583 4.5095 3.16585C4.5095 3.16587 4.5095 3.16589 4.5095 3.1659C4.5095 3.16592 4.5095 3.16594 4.5095 3.16596C4.5095 3.16598 4.5095 3.166 4.5095 3.16602C4.5095 3.16603 4.5095 3.16605 4.5095 3.16607C4.5095 3.16609 4.5095 3.16611 4.5095 3.16613C4.5095 3.16615 4.5095 3.16616 4.5095 3.16618C4.5095 3.1662 4.5095 3.16622 4.5095 3.16624C4.5095 3.16626 4.5095 3.16628 4.5095 3.16629C4.5095 3.16631 4.5095 3.16633 4.5095 3.16635C4.5095 3.16637 4.5095 3.16639 4.5095 3.16641C4.5095 3.16642 4.5095 3.16644 4.5095 3.16646C4.5095 3.16648 4.5095 3.1665 4.5095 3.16652C4.5095 3.16654 4.5095 3.16655 4.5095 3.16657C4.5095 3.16659 4.5095 3.16661 4.5095 3.16663C4.5095 3.16665 4.5095 3.16666 4.5095 3.16668C4.5095 3.1667 4.5095 3.16672 4.5095 3.16674C4.5095 3.16676 4.5095 3.16678 4.5095 3.16679C4.5095 3.16681 4.5095 3.16683 4.5095 3.16685C4.5095 3.16687 4.5095 3.16689 4.5095 3.16691C4.5095 3.16692 4.5095 3.16694 4.5095 3.16696C4.5095 3.16698 4.5095 3.167 4.5095 3.16702C4.5095 3.16704 4.5095 3.16705 4.5095 3.16707C4.5095 3.16709 4.5095 3.16711 4.5095 3.16713C4.5095 3.16715 4.5095 3.16717 4.5095 3.16718C4.5095 3.1672 4.5095 3.16722 4.5095 3.16724C4.5095 3.16726 4.5095 3.16728 4.5095 3.1673C4.5095 3.16731 4.5095 3.16733 4.5095 3.16735C4.5095 3.16737 4.5095 3.16739 4.5095 3.16741C4.5095 3.16743 4.5095 3.16744 4.5095 3.16746C4.5095 3.16748 4.5095 3.1675 4.5095 3.16752C4.5095 3.16754 4.5095 3.16756 4.5095 3.16757C4.5095 3.16759 4.5095 3.16761 4.5095 3.16763C4.5095 3.16765 4.5095 3.16767 4.5095 3.16769C4.5095 3.1677 4.5095 3.16772 4.5095 3.16774C4.5095 3.16776 4.5095 3.16778 4.5095 3.1678C4.5095 3.16781 4.5095 3.16783 4.5095 3.16785C4.5095 3.16787 4.5095 3.16789 4.5095 3.16791C4.5095 3.16793 4.5095 3.16794 4.5095 3.16796C4.5095 3.16798 4.5095 3.168 4.5095 3.16802C4.5095 3.16804 4.5095 3.16806 4.5095 3.16807C4.5095 3.16809 4.5095 3.16811 4.5095 3.16813C4.5095 3.16815 4.5095 3.16817 4.5095 3.16819C4.5095 3.1682 4.5095 3.16822 4.5095 3.16824C4.5095 3.16826 4.5095 3.16828 4.5095 3.1683C4.5095 3.16832 4.5095 3.16833 4.5095 3.16835C4.5095 3.16837 4.5095 3.16839 4.5095 3.16841C4.5095 3.16843 4.5095 3.16845 4.5095 3.16846C4.5095 3.16848 4.5095 3.1685 4.5095 3.16852C4.5095 3.16854 4.5095 3.16856 4.5095 3.16858C4.5095 3.16859 4.5095 3.16861 4.5095 3.16863C4.5095 3.16865 4.5095 3.16867 4.5095 3.16869C4.5095 3.16871 4.5095 3.16872 4.5095 3.16874C4.5095 3.16876 4.5095 3.16878 4.5095 3.1688C4.5095 3.16882 4.5095 3.16884 4.5095 3.16885C4.5095 3.16887 4.5095 3.16889 4.5095 3.16891C4.5095 3.16893 4.5095 3.16895 4.5095 3.16897C4.5095 3.16898 4.5095 3.169 4.5095 3.16902C4.5095 3.16904 4.5095 3.16906 4.5095 3.16908C4.5095 3.1691 4.5095 3.16911 4.5095 3.16913C4.5095 3.16915 4.5095 3.16917 4.5095 3.16919C4.5095 3.16921 4.5095 3.16923 4.5095 3.16924C4.5095 3.16926 4.5095 3.16928 4.5095 3.1693C4.5095 3.16932 4.5095 3.16934 4.5095 3.16936C4.5095 3.16937 4.5095 3.16939 4.5095 3.16941C4.5095 3.16943 4.5095 3.16945 4.5095 3.16947C4.5095 3.16949 4.5095 3.1695 4.5095 3.16952C4.5095 3.16954 4.5095 3.16956 4.5095 3.16958C4.5095 3.1696 4.5095 3.16962 4.5095 3.16963C4.5095 3.16965 4.5095 3.16967 4.5095 3.16969C4.5095 3.16971 4.5095 3.16973 4.5095 3.16974C4.5095 3.16976 4.5095 3.16978 4.5095 3.1698C4.5095 3.16982 4.5095 3.16984 4.5095 3.16986C4.5095 3.16987 4.5095 3.16989 4.5095 3.16991C4.5095 3.16993 4.5095 3.16995 4.5095 3.16997C4.5095 3.16999 4.5095 3.17 4.5095 3.17002C4.5095 3.17004 4.5095 3.17006 4.5095 3.17008C4.5095 3.1701 4.5095 3.17012 4.5095 3.17013C4.5095 3.17015 4.5095 3.17017 4.5095 3.17019C4.5095 3.17021 4.5095 3.17023 4.5095 3.17025C4.5095 3.17026 4.5095 3.17028 4.5095 3.1703C4.5095 3.17032 4.5095 3.17034 4.5095 3.17036C4.5095 3.17038 4.5095 3.17039 4.5095 3.17041C4.5095 3.17043 4.5095 3.17045 4.5095 3.17047C4.5095 3.17049 4.5095 3.17051 4.5095 3.17052C4.5095 3.17054 4.5095 3.17056 4.5095 3.17058C4.5095 3.1706 4.5095 3.17062 4.5095 3.17064C4.5095 3.17065 4.5095 3.17067 4.5095 3.17069C4.5095 3.17071 4.5095 3.17073 4.5095 3.17075C4.5095 3.17077 4.5095 3.17078 4.5095 3.1708C4.5095 3.17082 4.5095 3.17084 4.5095 3.17086C4.5095 3.17088 4.5095 3.1709 4.5095 3.17091C4.5095 3.17093 4.5095 3.17095 4.5095 3.17097C4.5095 3.17099 4.5095 3.17101 4.5095 3.17103C4.5095 3.17104 4.5095 3.17106 4.5095 3.17108C4.5095 3.1711 4.5095 3.17112 4.5095 3.17114C4.5095 3.17116 4.5095 3.17118 4.5095 3.17119C4.5095 3.17121 4.5095 3.17123 4.5095 3.17125C4.5095 3.17127 4.5095 3.17129 4.5095 3.17131C4.5095 3.17132 4.5095 3.17134 4.5095 3.17136C4.5095 3.17138 4.5095 3.1714 4.5095 3.17142C4.5095 3.17144 4.5095 3.17145 4.5095 3.17147C4.5095 3.17149 4.5095 3.17151 4.5095 3.17153C4.5095 3.17155 4.5095 3.17157 4.5095 3.17158C4.5095 3.1716 4.5095 3.17162 4.5095 3.17164C4.5095 3.17166 4.5095 3.17168 4.5095 3.1717C4.5095 3.17171 4.5095 3.17173 4.5095 3.17175C4.5095 3.17177 4.5095 3.17179 4.5095 3.17181C4.5095 3.17183 4.5095 3.17184 4.5095 3.17186C4.5095 3.17188 4.5095 3.1719 4.5095 3.17192C4.5095 3.17194 4.5095 3.17196 4.5095 3.17197C4.5095 3.17199 4.5095 3.17201 4.5095 3.17203C4.5095 3.17205 4.5095 3.17207 4.5095 3.17209C4.5095 3.1721 4.5095 3.17212 4.5095 3.17214C4.5095 3.17216 4.5095 3.17218 4.5095 3.1722C4.5095 3.17222 4.5095 3.17224 4.5095 3.17225C4.5095 3.17227 4.5095 3.17229 4.5095 3.17231C4.5095 3.17233 4.5095 3.17235 4.5095 3.17237C4.5095 3.17238 4.5095 3.1724 4.5095 3.17242C4.5095 3.17244 4.5095 3.17246 4.5095 3.17248C4.5095 3.1725 4.5095 3.17251 4.5095 3.17253C4.5095 3.17255 4.5095 3.17257 4.5095 3.17259C4.5095 3.17261 4.5095 3.17263 4.5095 3.17264C4.5095 3.17266 4.5095 3.17268 4.5095 3.1727C4.5095 3.17272 4.5095 3.17274 4.5095 3.17276C4.5095 3.17277 4.5095 3.17279 4.5095 3.17281C4.5095 3.17283 4.5095 3.17285 4.5095 3.17287C4.5095 3.17289 4.5095 3.17291 4.5095 3.17292C4.5095 3.17294 4.5095 3.17296 4.5095 3.17298C4.5095 3.173 4.5095 3.17302 4.5095 3.17304C4.5095 3.17305 4.5095 3.17307 4.5095 3.17309C4.5095 3.17311 4.5095 3.17313 4.5095 3.17315C4.5095 3.17317 4.5095 3.17318 4.5095 3.1732C4.5095 3.17322 4.5095 3.17324 4.5095 3.17326C4.5095 3.17328 4.5095 3.1733 4.5095 3.17332C4.5095 3.17333 4.5095 3.17335 4.5095 3.17337C4.5095 3.17339 4.5095 3.17341 4.5095 3.17343C4.5095 3.17345 4.5095 3.17346 4.5095 3.17348C4.5095 3.1735 4.5095 3.17352 4.5095 3.17354C4.5095 3.17356 4.5095 3.17358 4.5095 3.17359C4.5095 3.17361 4.5095 3.17363 4.5095 3.17365C4.5095 3.17367 4.5095 3.17369 4.5095 3.17371C4.5095 3.17373 4.5095 3.17374 4.5095 3.17376C4.5095 3.17378 4.5095 3.1738 4.5095 3.17382C4.5095 3.17384 4.5095 3.17386 4.5095 3.17387C4.5095 3.17389 4.5095 3.17391 4.5095 3.17393C4.5095 3.17395 4.5095 3.17397 4.5095 3.17399C4.5095 3.17401 4.5095 3.17402 4.5095 3.17404C4.5095 3.17406 4.5095 3.17408 4.5095 3.1741C4.5095 3.17412 4.5095 3.17414 4.5095 3.17415C4.5095 3.17417 4.5095 3.17419 4.5095 3.17421C4.5095 3.17423 4.5095 3.17425 4.5095 3.17427C4.5095 3.17428 4.5095 3.1743 4.5095 3.17432C4.5095 3.17434 4.5095 3.17436 4.5095 3.17438C4.5095 3.1744 4.5095 3.17442 4.5095 3.17443C4.5095 3.17445 4.5095 3.17447 4.5095 3.17449C4.5095 3.17451 4.5095 3.17453 4.5095 3.17455C4.5095 3.17457 4.5095 3.17458 4.5095 3.1746C4.5095 3.17462 4.5095 3.17464 4.5095 3.17466C4.5095 3.17468 4.5095 3.1747 4.5095 3.17471C4.5095 3.17473 4.5095 3.17475 4.5095 3.17477C4.5095 3.17479 4.5095 3.17481 4.5095 3.17483C4.5095 3.17485 4.5095 3.17486 4.5095 3.17488C4.5095 3.1749 4.5095 3.17492 4.5095 3.17494C4.5095 3.17496 4.5095 3.17498 4.5095 3.17499C4.5095 3.17501 4.5095 3.17503 4.5095 3.17505C4.5095 3.17507 4.5095 3.17509 4.5095 3.17511C4.5095 3.17513 4.5095 3.17514 4.5095 3.17516C4.5095 3.17518 4.5095 3.1752 4.5095 3.17522C4.5095 3.17524 4.5095 3.17526 4.5095 3.17528C4.5095 3.17529 4.5095 3.17531 4.5095 3.17533C4.5095 3.17535 4.5095 3.17537 4.5095 3.17539C4.5095 3.17541 4.5095 3.17542 4.5095 3.17544C4.5095 3.17546 4.5095 3.17548 4.5095 3.1755C4.5095 3.17552 4.5095 3.17554 4.5095 3.17556C4.5095 3.17557 4.5095 3.17559 4.5095 3.17561C4.5095 3.17563 4.5095 3.17565 4.5095 3.17567C4.5095 3.17569 4.5095 3.17571 4.5095 3.17572C4.5095 3.17574 4.5095 3.17576 4.5095 3.17578C4.5095 3.1758 4.5095 3.17582 4.5095 3.17584C4.5095 3.17586 4.5095 3.17587 4.5095 3.17589C4.5095 3.17591 4.5095 3.17593 4.5095 3.17595C4.5095 3.17597 4.5095 3.17599 4.5095 3.17601C4.5095 3.17602 4.5095 3.17604 4.5095 3.17606C4.5095 3.17608 4.5095 3.1761 4.5095 3.17612C4.5095 3.17614 4.5095 3.17616 4.5095 3.17617C4.5095 3.17619 4.5095 3.17621 4.5095 3.17623C4.5095 3.17625 4.5095 3.17627 4.5095 3.17629C4.5095 3.17631 4.5095 3.17632 4.5095 3.17634C4.5095 3.17636 4.5095 3.17638 4.5095 3.1764C4.5095 3.17642 4.5095 3.17644 4.5095 3.17646C4.5095 3.17647 4.5095 3.17649 4.5095 3.17651C4.5095 3.17653 4.5095 3.17655 4.5095 3.17657C4.5095 3.17659 4.5095 3.1766 4.5095 3.17662C4.5095 3.17664 4.5095 3.17666 4.5095 3.17668C4.5095 3.1767 4.5095 3.17672 4.5095 3.17674C4.5095 3.17675 4.5095 3.17677 4.5095 3.17679C4.5095 3.17681 4.5095 3.17683 4.5095 3.17685C4.5095 3.17687 4.5095 3.17689 4.5095 3.17691C4.5095 3.17692 4.5095 3.17694 4.5095 3.17696C4.5095 3.17698 4.5095 3.177 4.5095 3.17702C4.5095 3.17704 4.5095 3.17706 4.5095 3.17707C4.5095 3.17709 4.5095 3.17711 4.5095 3.17713C4.5095 3.17715 4.5095 3.17717 4.5095 3.17719C4.5095 3.17721 4.5095 3.17722 4.5095 3.17724C4.5095 3.17726 4.5095 3.17728 4.5095 3.1773C4.5095 3.17732 4.5095 3.17734 4.5095 3.17736C4.5095 3.17737 4.5095 3.17739 4.5095 3.17741C4.5095 3.17743 4.5095 3.17745 4.5095 3.17747C4.5095 3.17749 4.5095 3.17751 4.5095 3.17753C4.5095 3.17754 4.5095 3.17756 4.5095 3.17758C4.5095 3.1776 4.5095 3.17762 4.5095 3.17764C4.5095 3.17766 4.5095 3.17768 4.5095 3.17769C4.5095 3.17771 4.5095 3.17773 4.5095 3.17775C4.5095 3.17777 4.5095 3.17779 4.5095 3.17781C4.5095 3.17783 4.5095 3.17784 4.5095 3.17786C4.5095 3.17788 4.5095 3.1779 4.5095 3.17792C4.5095 3.17794 4.5095 3.17796 4.5095 3.17798C4.5095 3.178 4.5095 3.17801 4.5095 3.17803C4.5095 3.17805 4.5095 3.17807 4.5095 3.17809C4.5095 3.17811 4.5095 3.17813 4.5095 3.17815C4.5095 3.17816 4.5095 3.17818 4.5095 3.1782C4.5095 3.17822 4.5095 3.17824 4.5095 3.17826C4.5095 3.17828 4.5095 3.1783 4.5095 3.17832C4.5095 3.17833 4.5095 3.17835 4.5095 3.17837C4.5095 3.17839 4.5095 3.17841 4.5095 3.17843C4.5095 3.17845 4.5095 3.17847 4.5095 3.17849C4.5095 3.1785 4.5095 3.17852 4.5095 3.17854C4.5095 3.17856 4.5095 3.17858 4.5095 3.1786C4.5095 3.17862 4.5095 3.17864 4.5095 3.17865C4.5095 3.17867 4.5095 3.17869 4.5095 3.17871C4.5095 3.17873 4.5095 3.17875 4.5095 3.17877C4.5095 3.17879 4.5095 3.17881 4.5095 3.17882C4.5095 3.17884 4.5095 3.17886 4.5095 3.17888C4.5095 3.1789 4.5095 3.17892 4.5095 3.17894C4.5095 3.17896 4.5095 3.17898 4.5095 3.17899C4.5095 3.17901 4.5095 3.17903 4.5095 3.17905C4.5095 3.17907 4.5095 3.17909 4.5095 3.17911C4.5095 3.17913 4.5095 3.17915 4.5095 3.17916C4.5095 3.17918 4.5095 3.1792 4.5095 3.17922C4.5095 3.17924 4.5095 3.17926 4.5095 3.17928C4.5095 3.1793 4.5095 3.17932 4.5095 3.17933C4.5095 3.17935 4.5095 3.17937 4.5095 3.17939C4.5095 3.17941 4.5095 3.17943 4.5095 3.17945C4.5095 3.17947 4.5095 3.17949 4.5095 3.1795C4.5095 3.17952 4.5095 3.17954 4.5095 3.17956C4.5095 3.17958 4.5095 3.1796 4.5095 3.17962C4.5095 3.17964 4.5095 3.17966 4.5095 3.17967C4.5095 3.17969 4.5095 3.17971 4.5095 3.17973C4.5095 3.17975 4.5095 3.17977 4.5095 3.17979C4.5095 3.17981 4.5095 3.17983 4.5095 3.17985C4.5095 3.17986 4.5095 3.17988 4.5095 3.1799C4.5095 3.17992 4.5095 3.17994 4.5095 3.17996C4.5095 3.17998 4.5095 3.18 4.5095 3.18002C4.5095 3.18003 4.5095 3.18005 4.5095 3.18007C4.5095 3.18009 4.5095 3.18011 4.5095 3.18013C4.5095 3.18015 4.5095 3.18017 4.5095 3.18019C4.5095 3.1802 4.5095 3.18022 4.5095 3.18024C4.5095 3.18026 4.5095 3.18028 4.5095 3.1803C4.5095 3.18032 4.5095 3.18034 4.5095 3.18036C4.5095 3.18038 4.5095 3.18039 4.5095 3.18041C4.5095 3.18043 4.5095 3.18045 4.5095 3.18047C4.5095 3.18049 4.5095 3.18051 4.5095 3.18053C4.5095 3.18055 4.5095 3.18057 4.5095 3.18058C4.5095 3.1806 4.5095 3.18062 4.5095 3.18064C4.5095 3.18066 4.5095 3.18068 4.5095 3.1807C4.5095 3.18072 4.5095 3.18074 4.5095 3.18075C4.5095 3.18077 4.5095 3.18079 4.5095 3.18081C4.5095 3.18083 4.5095 3.18085 4.5095 3.18087C4.5095 3.18089 4.5095 3.18091 4.5095 3.18093C4.5095 3.18094 4.5095 3.18096 4.5095 3.18098C4.5095 3.181 4.5095 3.18102 4.5095 3.18104C4.5095 3.18106 4.5095 3.18108 4.5095 3.1811C4.5095 3.18112 4.5095 3.18113 4.5095 3.18115C4.5095 3.18117 4.5095 3.18119 4.5095 3.18121C4.5095 3.18123 4.5095 3.18125 4.5095 3.18127C4.5095 3.18129 4.5095 3.18131 4.5095 3.18132C4.5095 3.18134 4.5095 3.18136 4.5095 3.18138C4.5095 3.1814 4.5095 3.18142 4.5095 3.18144C4.5095 3.18146 4.5095 3.18148 4.5095 3.1815C4.5095 3.18152 4.5095 3.18153 4.5095 3.18155C4.5095 3.18157 4.5095 3.18159 4.5095 3.18161C4.5095 3.18163 4.5095 3.18165 4.5095 3.18167C4.5095 3.18169 4.5095 3.18171 4.5095 3.18172C4.5095 3.18174 4.5095 3.18176 4.5095 3.18178H24.5095C24.5095 3.18176 24.5095 3.18174 24.5095 3.18172C24.5095 3.18171 24.5095 3.18169 24.5095 3.18167C24.5095 3.18165 24.5095 3.18163 24.5095 3.18161C24.5095 3.18159 24.5095 3.18157 24.5095 3.18155C24.5095 3.18153 24.5095 3.18152 24.5095 3.1815C24.5095 3.18148 24.5095 3.18146 24.5095 3.18144C24.5095 3.18142 24.5095 3.1814 24.5095 3.18138C24.5095 3.18136 24.5095 3.18134 24.5095 3.18132C24.5095 3.18131 24.5095 3.18129 24.5095 3.18127C24.5095 3.18125 24.5095 3.18123 24.5095 3.18121C24.5095 3.18119 24.5095 3.18117 24.5095 3.18115C24.5095 3.18113 24.5095 3.18112 24.5095 3.1811C24.5095 3.18108 24.5095 3.18106 24.5095 3.18104C24.5095 3.18102 24.5095 3.181 24.5095 3.18098C24.5095 3.18096 24.5095 3.18094 24.5095 3.18093C24.5095 3.18091 24.5095 3.18089 24.5095 3.18087C24.5095 3.18085 24.5095 3.18083 24.5095 3.18081C24.5095 3.18079 24.5095 3.18077 24.5095 3.18075C24.5095 3.18074 24.5095 3.18072 24.5095 3.1807C24.5095 3.18068 24.5095 3.18066 24.5095 3.18064C24.5095 3.18062 24.5095 3.1806 24.5095 3.18058C24.5095 3.18057 24.5095 3.18055 24.5095 3.18053C24.5095 3.18051 24.5095 3.18049 24.5095 3.18047C24.5095 3.18045 24.5095 3.18043 24.5095 3.18041C24.5095 3.18039 24.5095 3.18038 24.5095 3.18036C24.5095 3.18034 24.5095 3.18032 24.5095 3.1803C24.5095 3.18028 24.5095 3.18026 24.5095 3.18024C24.5095 3.18022 24.5095 3.1802 24.5095 3.18019C24.5095 3.18017 24.5095 3.18015 24.5095 3.18013C24.5095 3.18011 24.5095 3.18009 24.5095 3.18007C24.5095 3.18005 24.5095 3.18003 24.5095 3.18002C24.5095 3.18 24.5095 3.17998 24.5095 3.17996C24.5095 3.17994 24.5095 3.17992 24.5095 3.1799C24.5095 3.17988 24.5095 3.17986 24.5095 3.17985C24.5095 3.17983 24.5095 3.17981 24.5095 3.17979C24.5095 3.17977 24.5095 3.17975 24.5095 3.17973C24.5095 3.17971 24.5095 3.17969 24.5095 3.17967C24.5095 3.17966 24.5095 3.17964 24.5095 3.17962C24.5095 3.1796 24.5095 3.17958 24.5095 3.17956C24.5095 3.17954 24.5095 3.17952 24.5095 3.1795C24.5095 3.17949 24.5095 3.17947 24.5095 3.17945C24.5095 3.17943 24.5095 3.17941 24.5095 3.17939C24.5095 3.17937 24.5095 3.17935 24.5095 3.17933C24.5095 3.17932 24.5095 3.1793 24.5095 3.17928C24.5095 3.17926 24.5095 3.17924 24.5095 3.17922C24.5095 3.1792 24.5095 3.17918 24.5095 3.17916C24.5095 3.17915 24.5095 3.17913 24.5095 3.17911C24.5095 3.17909 24.5095 3.17907 24.5095 3.17905C24.5095 3.17903 24.5095 3.17901 24.5095 3.17899C24.5095 3.17898 24.5095 3.17896 24.5095 3.17894C24.5095 3.17892 24.5095 3.1789 24.5095 3.17888C24.5095 3.17886 24.5095 3.17884 24.5095 3.17882C24.5095 3.17881 24.5095 3.17879 24.5095 3.17877C24.5095 3.17875 24.5095 3.17873 24.5095 3.17871C24.5095 3.17869 24.5095 3.17867 24.5095 3.17865C24.5095 3.17864 24.5095 3.17862 24.5095 3.1786C24.5095 3.17858 24.5095 3.17856 24.5095 3.17854C24.5095 3.17852 24.5095 3.1785 24.5095 3.17849C24.5095 3.17847 24.5095 3.17845 24.5095 3.17843C24.5095 3.17841 24.5095 3.17839 24.5095 3.17837C24.5095 3.17835 24.5095 3.17833 24.5095 3.17832C24.5095 3.1783 24.5095 3.17828 24.5095 3.17826C24.5095 3.17824 24.5095 3.17822 24.5095 3.1782C24.5095 3.17818 24.5095 3.17816 24.5095 3.17815C24.5095 3.17813 24.5095 3.17811 24.5095 3.17809C24.5095 3.17807 24.5095 3.17805 24.5095 3.17803C24.5095 3.17801 24.5095 3.178 24.5095 3.17798C24.5095 3.17796 24.5095 3.17794 24.5095 3.17792C24.5095 3.1779 24.5095 3.17788 24.5095 3.17786C24.5095 3.17784 24.5095 3.17783 24.5095 3.17781C24.5095 3.17779 24.5095 3.17777 24.5095 3.17775C24.5095 3.17773 24.5095 3.17771 24.5095 3.17769C24.5095 3.17768 24.5095 3.17766 24.5095 3.17764C24.5095 3.17762 24.5095 3.1776 24.5095 3.17758C24.5095 3.17756 24.5095 3.17754 24.5095 3.17753C24.5095 3.17751 24.5095 3.17749 24.5095 3.17747C24.5095 3.17745 24.5095 3.17743 24.5095 3.17741C24.5095 3.17739 24.5095 3.17737 24.5095 3.17736C24.5095 3.17734 24.5095 3.17732 24.5095 3.1773C24.5095 3.17728 24.5095 3.17726 24.5095 3.17724C24.5095 3.17722 24.5095 3.17721 24.5095 3.17719C24.5095 3.17717 24.5095 3.17715 24.5095 3.17713C24.5095 3.17711 24.5095 3.17709 24.5095 3.17707C24.5095 3.17706 24.5095 3.17704 24.5095 3.17702C24.5095 3.177 24.5095 3.17698 24.5095 3.17696C24.5095 3.17694 24.5095 3.17692 24.5095 3.17691C24.5095 3.17689 24.5095 3.17687 24.5095 3.17685C24.5095 3.17683 24.5095 3.17681 24.5095 3.17679C24.5095 3.17677 24.5095 3.17675 24.5095 3.17674C24.5095 3.17672 24.5095 3.1767 24.5095 3.17668C24.5095 3.17666 24.5095 3.17664 24.5095 3.17662C24.5095 3.1766 24.5095 3.17659 24.5095 3.17657C24.5095 3.17655 24.5095 3.17653 24.5095 3.17651C24.5095 3.17649 24.5095 3.17647 24.5095 3.17646C24.5095 3.17644 24.5095 3.17642 24.5095 3.1764C24.5095 3.17638 24.5095 3.17636 24.5095 3.17634C24.5095 3.17632 24.5095 3.17631 24.5095 3.17629C24.5095 3.17627 24.5095 3.17625 24.5095 3.17623C24.5095 3.17621 24.5095 3.17619 24.5095 3.17617C24.5095 3.17616 24.5095 3.17614 24.5095 3.17612C24.5095 3.1761 24.5095 3.17608 24.5095 3.17606C24.5095 3.17604 24.5095 3.17602 24.5095 3.17601C24.5095 3.17599 24.5095 3.17597 24.5095 3.17595C24.5095 3.17593 24.5095 3.17591 24.5095 3.17589C24.5095 3.17587 24.5095 3.17586 24.5095 3.17584C24.5095 3.17582 24.5095 3.1758 24.5095 3.17578C24.5095 3.17576 24.5095 3.17574 24.5095 3.17572C24.5095 3.17571 24.5095 3.17569 24.5095 3.17567C24.5095 3.17565 24.5095 3.17563 24.5095 3.17561C24.5095 3.17559 24.5095 3.17557 24.5095 3.17556C24.5095 3.17554 24.5095 3.17552 24.5095 3.1755C24.5095 3.17548 24.5095 3.17546 24.5095 3.17544C24.5095 3.17542 24.5095 3.17541 24.5095 3.17539C24.5095 3.17537 24.5095 3.17535 24.5095 3.17533C24.5095 3.17531 24.5095 3.17529 24.5095 3.17528C24.5095 3.17526 24.5095 3.17524 24.5095 3.17522C24.5095 3.1752 24.5095 3.17518 24.5095 3.17516C24.5095 3.17514 24.5095 3.17513 24.5095 3.17511C24.5095 3.17509 24.5095 3.17507 24.5095 3.17505C24.5095 3.17503 24.5095 3.17501 24.5095 3.17499C24.5095 3.17498 24.5095 3.17496 24.5095 3.17494C24.5095 3.17492 24.5095 3.1749 24.5095 3.17488C24.5095 3.17486 24.5095 3.17485 24.5095 3.17483C24.5095 3.17481 24.5095 3.17479 24.5095 3.17477C24.5095 3.17475 24.5095 3.17473 24.5095 3.17471C24.5095 3.1747 24.5095 3.17468 24.5095 3.17466C24.5095 3.17464 24.5095 3.17462 24.5095 3.1746C24.5095 3.17458 24.5095 3.17457 24.5095 3.17455C24.5095 3.17453 24.5095 3.17451 24.5095 3.17449C24.5095 3.17447 24.5095 3.17445 24.5095 3.17443C24.5095 3.17442 24.5095 3.1744 24.5095 3.17438C24.5095 3.17436 24.5095 3.17434 24.5095 3.17432C24.5095 3.1743 24.5095 3.17428 24.5095 3.17427C24.5095 3.17425 24.5095 3.17423 24.5095 3.17421C24.5095 3.17419 24.5095 3.17417 24.5095 3.17415C24.5095 3.17414 24.5095 3.17412 24.5095 3.1741C24.5095 3.17408 24.5095 3.17406 24.5095 3.17404C24.5095 3.17402 24.5095 3.17401 24.5095 3.17399C24.5095 3.17397 24.5095 3.17395 24.5095 3.17393C24.5095 3.17391 24.5095 3.17389 24.5095 3.17387C24.5095 3.17386 24.5095 3.17384 24.5095 3.17382C24.5095 3.1738 24.5095 3.17378 24.5095 3.17376C24.5095 3.17374 24.5095 3.17373 24.5095 3.17371C24.5095 3.17369 24.5095 3.17367 24.5095 3.17365C24.5095 3.17363 24.5095 3.17361 24.5095 3.17359C24.5095 3.17358 24.5095 3.17356 24.5095 3.17354C24.5095 3.17352 24.5095 3.1735 24.5095 3.17348C24.5095 3.17346 24.5095 3.17345 24.5095 3.17343C24.5095 3.17341 24.5095 3.17339 24.5095 3.17337C24.5095 3.17335 24.5095 3.17333 24.5095 3.17332C24.5095 3.1733 24.5095 3.17328 24.5095 3.17326C24.5095 3.17324 24.5095 3.17322 24.5095 3.1732C24.5095 3.17318 24.5095 3.17317 24.5095 3.17315C24.5095 3.17313 24.5095 3.17311 24.5095 3.17309C24.5095 3.17307 24.5095 3.17305 24.5095 3.17304C24.5095 3.17302 24.5095 3.173 24.5095 3.17298C24.5095 3.17296 24.5095 3.17294 24.5095 3.17292C24.5095 3.17291 24.5095 3.17289 24.5095 3.17287C24.5095 3.17285 24.5095 3.17283 24.5095 3.17281C24.5095 3.17279 24.5095 3.17277 24.5095 3.17276C24.5095 3.17274 24.5095 3.17272 24.5095 3.1727C24.5095 3.17268 24.5095 3.17266 24.5095 3.17264C24.5095 3.17263 24.5095 3.17261 24.5095 3.17259C24.5095 3.17257 24.5095 3.17255 24.5095 3.17253C24.5095 3.17251 24.5095 3.1725 24.5095 3.17248C24.5095 3.17246 24.5095 3.17244 24.5095 3.17242C24.5095 3.1724 24.5095 3.17238 24.5095 3.17237C24.5095 3.17235 24.5095 3.17233 24.5095 3.17231C24.5095 3.17229 24.5095 3.17227 24.5095 3.17225C24.5095 3.17224 24.5095 3.17222 24.5095 3.1722C24.5095 3.17218 24.5095 3.17216 24.5095 3.17214C24.5095 3.17212 24.5095 3.1721 24.5095 3.17209C24.5095 3.17207 24.5095 3.17205 24.5095 3.17203C24.5095 3.17201 24.5095 3.17199 24.5095 3.17197C24.5095 3.17196 24.5095 3.17194 24.5095 3.17192C24.5095 3.1719 24.5095 3.17188 24.5095 3.17186C24.5095 3.17184 24.5095 3.17183 24.5095 3.17181C24.5095 3.17179 24.5095 3.17177 24.5095 3.17175C24.5095 3.17173 24.5095 3.17171 24.5095 3.1717C24.5095 3.17168 24.5095 3.17166 24.5095 3.17164C24.5095 3.17162 24.5095 3.1716 24.5095 3.17158C24.5095 3.17157 24.5095 3.17155 24.5095 3.17153C24.5095 3.17151 24.5095 3.17149 24.5095 3.17147C24.5095 3.17145 24.5095 3.17144 24.5095 3.17142C24.5095 3.1714 24.5095 3.17138 24.5095 3.17136C24.5095 3.17134 24.5095 3.17132 24.5095 3.17131C24.5095 3.17129 24.5095 3.17127 24.5095 3.17125C24.5095 3.17123 24.5095 3.17121 24.5095 3.17119C24.5095 3.17118 24.5095 3.17116 24.5095 3.17114C24.5095 3.17112 24.5095 3.1711 24.5095 3.17108C24.5095 3.17106 24.5095 3.17104 24.5095 3.17103C24.5095 3.17101 24.5095 3.17099 24.5095 3.17097C24.5095 3.17095 24.5095 3.17093 24.5095 3.17091C24.5095 3.1709 24.5095 3.17088 24.5095 3.17086C24.5095 3.17084 24.5095 3.17082 24.5095 3.1708C24.5095 3.17078 24.5095 3.17077 24.5095 3.17075C24.5095 3.17073 24.5095 3.17071 24.5095 3.17069C24.5095 3.17067 24.5095 3.17065 24.5095 3.17064C24.5095 3.17062 24.5095 3.1706 24.5095 3.17058C24.5095 3.17056 24.5095 3.17054 24.5095 3.17052C24.5095 3.17051 24.5095 3.17049 24.5095 3.17047C24.5095 3.17045 24.5095 3.17043 24.5095 3.17041C24.5095 3.17039 24.5095 3.17038 24.5095 3.17036C24.5095 3.17034 24.5095 3.17032 24.5095 3.1703C24.5095 3.17028 24.5095 3.17026 24.5095 3.17025C24.5095 3.17023 24.5095 3.17021 24.5095 3.17019C24.5095 3.17017 24.5095 3.17015 24.5095 3.17013C24.5095 3.17012 24.5095 3.1701 24.5095 3.17008C24.5095 3.17006 24.5095 3.17004 24.5095 3.17002C24.5095 3.17 24.5095 3.16999 24.5095 3.16997C24.5095 3.16995 24.5095 3.16993 24.5095 3.16991C24.5095 3.16989 24.5095 3.16987 24.5095 3.16986C24.5095 3.16984 24.5095 3.16982 24.5095 3.1698C24.5095 3.16978 24.5095 3.16976 24.5095 3.16974C24.5095 3.16973 24.5095 3.16971 24.5095 3.16969C24.5095 3.16967 24.5095 3.16965 24.5095 3.16963C24.5095 3.16962 24.5095 3.1696 24.5095 3.16958C24.5095 3.16956 24.5095 3.16954 24.5095 3.16952C24.5095 3.1695 24.5095 3.16949 24.5095 3.16947C24.5095 3.16945 24.5095 3.16943 24.5095 3.16941C24.5095 3.16939 24.5095 3.16937 24.5095 3.16936C24.5095 3.16934 24.5095 3.16932 24.5095 3.1693C24.5095 3.16928 24.5095 3.16926 24.5095 3.16924C24.5095 3.16923 24.5095 3.16921 24.5095 3.16919C24.5095 3.16917 24.5095 3.16915 24.5095 3.16913C24.5095 3.16911 24.5095 3.1691 24.5095 3.16908C24.5095 3.16906 24.5095 3.16904 24.5095 3.16902C24.5095 3.169 24.5095 3.16898 24.5095 3.16897C24.5095 3.16895 24.5095 3.16893 24.5095 3.16891C24.5095 3.16889 24.5095 3.16887 24.5095 3.16885C24.5095 3.16884 24.5095 3.16882 24.5095 3.1688C24.5095 3.16878 24.5095 3.16876 24.5095 3.16874C24.5095 3.16872 24.5095 3.16871 24.5095 3.16869C24.5095 3.16867 24.5095 3.16865 24.5095 3.16863C24.5095 3.16861 24.5095 3.16859 24.5095 3.16858C24.5095 3.16856 24.5095 3.16854 24.5095 3.16852C24.5095 3.1685 24.5095 3.16848 24.5095 3.16846C24.5095 3.16845 24.5095 3.16843 24.5095 3.16841C24.5095 3.16839 24.5095 3.16837 24.5095 3.16835C24.5095 3.16833 24.5095 3.16832 24.5095 3.1683C24.5095 3.16828 24.5095 3.16826 24.5095 3.16824C24.5095 3.16822 24.5095 3.1682 24.5095 3.16819C24.5095 3.16817 24.5095 3.16815 24.5095 3.16813C24.5095 3.16811 24.5095 3.16809 24.5095 3.16807C24.5095 3.16806 24.5095 3.16804 24.5095 3.16802C24.5095 3.168 24.5095 3.16798 24.5095 3.16796C24.5095 3.16794 24.5095 3.16793 24.5095 3.16791C24.5095 3.16789 24.5095 3.16787 24.5095 3.16785C24.5095 3.16783 24.5095 3.16781 24.5095 3.1678C24.5095 3.16778 24.5095 3.16776 24.5095 3.16774C24.5095 3.16772 24.5095 3.1677 24.5095 3.16769C24.5095 3.16767 24.5095 3.16765 24.5095 3.16763C24.5095 3.16761 24.5095 3.16759 24.5095 3.16757C24.5095 3.16756 24.5095 3.16754 24.5095 3.16752C24.5095 3.1675 24.5095 3.16748 24.5095 3.16746C24.5095 3.16744 24.5095 3.16743 24.5095 3.16741C24.5095 3.16739 24.5095 3.16737 24.5095 3.16735C24.5095 3.16733 24.5095 3.16731 24.5095 3.1673C24.5095 3.16728 24.5095 3.16726 24.5095 3.16724C24.5095 3.16722 24.5095 3.1672 24.5095 3.16718C24.5095 3.16717 24.5095 3.16715 24.5095 3.16713C24.5095 3.16711 24.5095 3.16709 24.5095 3.16707C24.5095 3.16705 24.5095 3.16704 24.5095 3.16702C24.5095 3.167 24.5095 3.16698 24.5095 3.16696C24.5095 3.16694 24.5095 3.16692 24.5095 3.16691C24.5095 3.16689 24.5095 3.16687 24.5095 3.16685C24.5095 3.16683 24.5095 3.16681 24.5095 3.16679C24.5095 3.16678 24.5095 3.16676 24.5095 3.16674C24.5095 3.16672 24.5095 3.1667 24.5095 3.16668C24.5095 3.16666 24.5095 3.16665 24.5095 3.16663C24.5095 3.16661 24.5095 3.16659 24.5095 3.16657C24.5095 3.16655 24.5095 3.16654 24.5095 3.16652C24.5095 3.1665 24.5095 3.16648 24.5095 3.16646C24.5095 3.16644 24.5095 3.16642 24.5095 3.16641C24.5095 3.16639 24.5095 3.16637 24.5095 3.16635C24.5095 3.16633 24.5095 3.16631 24.5095 3.16629C24.5095 3.16628 24.5095 3.16626 24.5095 3.16624C24.5095 3.16622 24.5095 3.1662 24.5095 3.16618C24.5095 3.16616 24.5095 3.16615 24.5095 3.16613C24.5095 3.16611 24.5095 3.16609 24.5095 3.16607C24.5095 3.16605 24.5095 3.16603 24.5095 3.16602C24.5095 3.166 24.5095 3.16598 24.5095 3.16596C24.5095 3.16594 24.5095 3.16592 24.5095 3.1659C24.5095 3.16589 24.5095 3.16587 24.5095 3.16585C24.5095 3.16583 24.5095 3.16581 24.5095 3.16579C24.5095 3.16577 24.5095 3.16576 24.5095 3.16574C24.5095 3.16572 24.5095 3.1657 24.5095 3.16568C24.5095 3.16566 24.5095 3.16564 24.5095 3.16563C24.5095 3.16561 24.5095 3.16559 24.5095 3.16557C24.5095 3.16555 24.5095 3.16553 24.5095 3.16551C24.5095 3.1655 24.5095 3.16548 24.5095 3.16546C24.5095 3.16544 24.5095 3.16542 24.5095 3.1654C24.5095 3.16538 24.5095 3.16537 24.5095 3.16535C24.5095 3.16533 24.5095 3.16531 24.5095 3.16529C24.5095 3.16527 24.5095 3.16525 24.5095 3.16524C24.5095 3.16522 24.5095 3.1652 24.5095 3.16518C24.5095 3.16516 24.5095 3.16514 24.5095 3.16512C24.5095 3.16511 24.5095 3.16509 24.5095 3.16507C24.5095 3.16505 24.5095 3.16503 24.5095 3.16501C24.5095 3.16499 24.5095 3.16498 24.5095 3.16496C24.5095 3.16494 24.5095 3.16492 24.5095 3.1649C24.5095 3.16488 24.5095 3.16486 24.5095 3.16485C24.5095 3.16483 24.5095 3.16481 24.5095 3.16479C24.5095 3.16477 24.5095 3.16475 24.5095 3.16473C24.5095 3.16472 24.5095 3.1647 24.5095 3.16468C24.5095 3.16466 24.5095 3.16464 24.5095 3.16462C24.5095 3.1646 24.5095 3.16459 24.5095 3.16457C24.5095 3.16455 24.5095 3.16453 24.5095 3.16451C24.5095 3.16449 24.5095 3.16447 24.5095 3.16446C24.5095 3.16444 24.5095 3.16442 24.5095 3.1644C24.5095 3.16438 24.5095 3.16436 24.5095 3.16434C24.5095 3.16433 24.5095 3.16431 24.5095 3.16429C24.5095 3.16427 24.5095 3.16425 24.5095 3.16423C24.5095 3.16421 24.5095 3.1642 24.5095 3.16418C24.5095 3.16416 24.5095 3.16414 24.5095 3.16412C24.5095 3.1641 24.5095 3.16408 24.5095 3.16407C24.5095 3.16405 24.5095 3.16403 24.5095 3.16401C24.5095 3.16399 24.5095 3.16397 24.5095 3.16395C24.5095 3.16394 24.5095 3.16392 24.5095 3.1639C24.5095 3.16388 24.5095 3.16386 24.5095 3.16384C24.5095 3.16382 24.5095 3.16381 24.5095 3.16379C24.5095 3.16377 24.5095 3.16375 24.5095 3.16373C24.5095 3.16371 24.5095 3.16369 24.5095 3.16368C24.5095 3.16366 24.5095 3.16364 24.5095 3.16362C24.5095 3.1636 24.5095 3.16358 24.5095 3.16356C24.5095 3.16355 24.5095 3.16353 24.5095 3.16351C24.5095 3.16349 24.5095 3.16347 24.5095 3.16345C24.5095 3.16343 24.5095 3.16342 24.5095 3.1634C24.5095 3.16338 24.5095 3.16336 24.5095 3.16334C24.5095 3.16332 24.5095 3.1633 24.5095 3.16329C24.5095 3.16327 24.5095 3.16325 24.5095 3.16323C24.5095 3.16321 24.5095 3.16319 24.5095 3.16317C24.5095 3.16316 24.5095 3.16314 24.5095 3.16312C24.5095 3.1631 24.5095 3.16308 24.5095 3.16306C24.5095 3.16304 24.5095 3.16303 24.5095 3.16301C24.5095 3.16299 24.5095 3.16297 24.5095 3.16295C24.5095 3.16293 24.5095 3.16291 24.5095 3.1629C24.5095 3.16288 24.5095 3.16286 24.5095 3.16284C24.5095 3.16282 24.5095 3.1628 24.5095 3.16278C24.5095 3.16277 24.5095 3.16275 24.5095 3.16273C24.5095 3.16271 24.5095 3.16269 24.5095 3.16267C24.5095 3.16265 24.5095 3.16263 24.5095 3.16262C24.5095 3.1626 24.5095 3.16258 24.5095 3.16256C24.5095 3.16254 24.5095 3.16252 24.5095 3.1625C24.5095 3.16249 24.5095 3.16247 24.5095 3.16245C24.5095 3.16243 24.5095 3.16241 24.5095 3.16239C24.5095 3.16237 24.5095 3.16236 24.5095 3.16234C24.5095 3.16232 24.5095 3.1623 24.5095 3.16228C24.5095 3.16226 24.5095 3.16224 24.5095 3.16223C24.5095 3.16221 24.5095 3.16219 24.5095 3.16217C24.5095 3.16215 24.5095 3.16213 24.5095 3.16211C24.5095 3.16209 24.5095 3.16208 24.5095 3.16206C24.5095 3.16204 24.5095 3.16202 24.5095 3.162C24.5095 3.16198 24.5095 3.16196 24.5095 3.16195C24.5095 3.16193 24.5095 3.16191 24.5095 3.16189C24.5095 3.16187 24.5095 3.16185 24.5095 3.16183C24.5095 3.16182 24.5095 3.1618 24.5095 3.16178C24.5095 3.16176 24.5095 3.16174 24.5095 3.16172C24.5095 3.1617 24.5095 3.16169 24.5095 3.16167C24.5095 3.16165 24.5095 3.16163 24.5095 3.16161C24.5095 3.16159 24.5095 3.16157 24.5095 3.16155C24.5095 3.16154 24.5095 3.16152 24.5095 3.1615C24.5095 3.16148 24.5095 3.16146 24.5095 3.16144C24.5095 3.16142 24.5095 3.16141 24.5095 3.16139C24.5095 3.16137 24.5095 3.16135 24.5095 3.16133C24.5095 3.16131 24.5095 3.16129 24.5095 3.16128C24.5095 3.16126 24.5095 3.16124 24.5095 3.16122C24.5095 3.1612 24.5095 3.16118 24.5095 3.16116C24.5095 3.16114 24.5095 3.16113 24.5095 3.16111C24.5095 3.16109 24.5095 3.16107 24.5095 3.16105C24.5095 3.16103 24.5095 3.16101 24.5095 3.161C24.5095 3.16098 24.5095 3.16096 24.5095 3.16094C24.5095 3.16092 24.5095 3.1609 24.5095 3.16088C24.5095 3.16086 24.5095 3.16085 24.5095 3.16083C24.5095 3.16081 24.5095 3.16079 24.5095 3.16077C24.5095 3.16075 24.5095 3.16073 24.5095 3.16072C24.5095 3.1607 24.5095 3.16068 24.5095 3.16066C24.5095 3.16064 24.5095 3.16062 24.5095 3.1606C24.5095 3.16058 24.5095 3.16057 24.5095 3.16055C24.5095 3.16053 24.5095 3.16051 24.5095 3.16049C24.5095 3.16047 24.5095 3.16045 24.5095 3.16044C24.5095 3.16042 24.5095 3.1604 24.5095 3.16038C24.5095 3.16036 24.5095 3.16034 24.5095 3.16032C24.5095 3.16031 24.5095 3.16029 24.5095 3.16027C24.5095 3.16025 24.5095 3.16023 24.5095 3.16021C24.5095 3.16019 24.5095 3.16017 24.5095 3.16016C24.5095 3.16014 24.5095 3.16012 24.5095 3.1601C24.5095 3.16008 24.5095 3.16006 24.5095 3.16004C24.5095 3.16002 24.5095 3.16001 24.5095 3.15999C24.5095 3.15997 24.5095 3.15995 24.5095 3.15993C24.5095 3.15991 24.5095 3.15989 24.5095 3.15988C24.5095 3.15986 24.5095 3.15984 24.5095 3.15982C24.5095 3.1598 24.5095 3.15978 24.5095 3.15976C24.5095 3.15974 24.5095 3.15973 24.5095 3.15971C24.5095 3.15969 24.5095 3.15967 24.5095 3.15965C24.5095 3.15963 24.5095 3.15961 24.5095 3.15959C24.5095 3.15958 24.5095 3.15956 24.5095 3.15954C24.5095 3.15952 24.5095 3.1595 24.5095 3.15948C24.5095 3.15946 24.5095 3.15945 24.5095 3.15943C24.5095 3.15941 24.5095 3.15939 24.5095 3.15937C24.5095 3.15935 24.5095 3.15933 24.5095 3.15931C24.5095 3.1593 24.5095 3.15928 24.5095 3.15926C24.5095 3.15924 24.5095 3.15922 24.5095 3.1592C24.5095 3.15918 24.5095 3.15916 24.5095 3.15915C24.5095 3.15913 24.5095 3.15911 24.5095 3.15909C24.5095 3.15907 24.5095 3.15905 24.5095 3.15903C24.5095 3.15901 24.5095 3.159 24.5095 3.15898C24.5095 3.15896 24.5095 3.15894 24.5095 3.15892C24.5095 3.1589 24.5095 3.15888 24.5095 3.15886C24.5095 3.15885 24.5095 3.15883 24.5095 3.15881C24.5095 3.15879 24.5095 3.15877 24.5095 3.15875C24.5095 3.15873 24.5095 3.15872 24.5095 3.1587C24.5095 3.15868 24.5095 3.15866 24.5095 3.15864C24.5095 3.15862 24.5095 3.1586 24.5095 3.15858C24.5095 3.15857 24.5095 3.15855 24.5095 3.15853C24.5095 3.15851 24.5095 3.15849 24.5095 3.15847C24.5095 3.15845 24.5095 3.15843 24.5095 3.15842C24.5095 3.1584 24.5095 3.15838 24.5095 3.15836C24.5095 3.15834 24.5095 3.15832 24.5095 3.1583C24.5095 3.15828 24.5095 3.15827 24.5095 3.15825C24.5095 3.15823 24.5095 3.15821 24.5095 3.15819C24.5095 3.15817 24.5095 3.15815 24.5095 3.15813C24.5095 3.15812 24.5095 3.1581 24.5095 3.15808C24.5095 3.15806 24.5095 3.15804 24.5095 3.15802C24.5095 3.158 24.5095 3.15798 24.5095 3.15796C24.5095 3.15795 24.5095 3.15793 24.5095 3.15791C24.5095 3.15789 24.5095 3.15787 24.5095 3.15785C24.5095 3.15783 24.5095 3.15781 24.5095 3.1578C24.5095 3.15778 24.5095 3.15776 24.5095 3.15774C24.5095 3.15772 24.5095 3.1577 24.5095 3.15768C24.5095 3.15766 24.5095 3.15765 24.5095 3.15763C24.5095 3.15761 24.5095 3.15759 24.5095 3.15757C24.5095 3.15755 24.5095 3.15753 24.5095 3.15751C24.5095 3.1575 24.5095 3.15748 24.5095 3.15746C24.5095 3.15744 24.5095 3.15742 24.5095 3.1574C24.5095 3.15738 24.5095 3.15736 24.5095 3.15735C24.5095 3.15733 24.5095 3.15731 24.5095 3.15729C24.5095 3.15727 24.5095 3.15725 24.5095 3.15723C24.5095 3.15721 24.5095 3.15719 24.5095 3.15718C24.5095 3.15716 24.5095 3.15714 24.5095 3.15712C24.5095 3.1571 24.5095 3.15708 24.5095 3.15706C24.5095 3.15704 24.5095 3.15703 24.5095 3.15701C24.5095 3.15699 24.5095 3.15697 24.5095 3.15695C24.5095 3.15693 24.5095 3.15691 24.5095 3.15689C24.5095 3.15687 24.5095 3.15686 24.5095 3.15684C24.5095 3.15682 24.5095 3.1568 24.5095 3.15678C24.5095 3.15676 24.5095 3.15674 24.5095 3.15672C24.5095 3.15671 24.5095 3.15669 24.5095 3.15667C24.5095 3.15665 24.5095 3.15663 24.5095 3.15661C24.5095 3.15659 24.5095 3.15657 24.5095 3.15655C24.5095 3.15654 24.5095 3.15652 24.5095 3.1565C24.5095 3.15648 24.5095 3.15646 24.5095 3.15644C24.5095 3.15642 24.5095 3.1564 24.5095 3.15639C24.5095 3.15637 24.5095 3.15635 24.5095 3.15633C24.5095 3.15631 24.5095 3.15629 24.5095 3.15627C24.5095 3.15625 24.5095 3.15623 24.5095 3.15622C24.5095 3.1562 24.5095 3.15618 24.5095 3.15616C24.5095 3.15614 24.5095 3.15612 24.5095 3.1561C24.5095 3.15608 24.5095 3.15606 24.5095 3.15605C24.5095 3.15603 24.5095 3.15601 24.5095 3.15599C24.5095 3.15597 24.5095 3.15595 24.5095 3.15593C24.5095 3.15591 24.5095 3.15589 24.5095 3.15588C24.5095 3.15586 24.5095 3.15584 24.5095 3.15582C24.5095 3.1558 24.5095 3.15578 24.5095 3.15576C24.5095 3.15574 24.5095 3.15573 24.5095 3.15571C24.5095 3.15569 24.5095 3.15567 24.5095 3.15565C24.5095 3.15563 24.5095 3.15561 24.5095 3.15559C24.5095 3.15557 24.5095 3.15556 24.5095 3.15554C24.5095 3.15552 24.5095 3.1555 24.5095 3.15548C24.5095 3.15546 24.5095 3.15544 24.5095 3.15542C24.5095 3.1554 24.5095 3.15538 24.5095 3.15537C24.5095 3.15535 24.5095 3.15533 24.5095 3.15531C24.5095 3.15529 24.5095 3.15527 24.5095 3.15525C24.5095 3.15523 24.5095 3.15521 24.5095 3.1552C24.5095 3.15518 24.5095 3.15516 24.5095 3.15514C24.5095 3.15512 24.5095 3.1551 24.5095 3.15508C24.5095 3.15506 24.5095 3.15504 24.5095 3.15503C24.5095 3.15501 24.5095 3.15499 24.5095 3.15497C24.5095 3.15495 24.5095 3.15493 24.5095 3.15491C24.5095 3.15489 24.5095 3.15487 24.5095 3.15486C24.5095 3.15484 24.5095 3.15482 24.5095 3.1548C24.5095 3.15478 24.5095 3.15476 24.5095 3.15474C24.5095 3.15472 24.5095 3.1547 24.5095 3.15468C24.5095 3.15467 24.5095 3.15465 24.5095 3.15463C24.5095 3.15461 24.5095 3.15459 24.5095 3.15457C24.5095 3.15455 24.5095 3.15453 24.5095 3.15451C24.5095 3.1545 24.5095 3.15448 24.5095 3.15446C24.5095 3.15444 24.5095 3.15442 24.5095 3.1544C24.5095 3.15438 24.5095 3.15436 24.5095 3.15434C24.5095 3.15432 24.5095 3.15431 24.5095 3.15429C24.5095 3.15427 24.5095 3.15425 24.5095 3.15423C24.5095 3.15421 24.5095 3.15419 24.5095 3.15417C24.5095 3.15415 24.5095 3.15413 24.5095 3.15412C24.5095 3.1541 24.5095 3.15408 24.5095 3.15406C24.5095 3.15404 24.5095 3.15402 24.5095 3.154C24.5095 3.15398 24.5095 3.15396 24.5095 3.15394C24.5095 3.15393 24.5095 3.15391 24.5095 3.15389C24.5095 3.15387 24.5095 3.15385 24.5095 3.15383C24.5095 3.15381 24.5095 3.15379 24.5095 3.15377C24.5095 3.15375 24.5095 3.15374 24.5095 3.15372C24.5095 3.1537 24.5095 3.15368 24.5095 3.15366C24.5095 3.15364 24.5095 3.15362 24.5095 3.1536C24.5095 3.15358 24.5095 3.15356 24.5095 3.15355C24.5095 3.15353 24.5095 3.15351 24.5095 3.15349C24.5095 3.15347 24.5095 3.15345 24.5095 3.15343C24.5095 3.15341 24.5095 3.15339 24.5095 3.15337C24.5095 3.15336 24.5095 3.15334 24.5095 3.15332C24.5095 3.1533 24.5095 3.15328 24.5095 3.15326C24.5095 3.15324 24.5095 3.15322 24.5095 3.1532C24.5095 3.15318 24.5095 3.15317 24.5095 3.15315C24.5095 3.15313 24.5095 3.15311 24.5095 3.15309C24.5095 3.15307 24.5095 3.15305 24.5095 3.15303H4.5095ZM17.4923 12.7266C17.5383 12.7122 17.5791 12.6991 17.6135 12.6879C17.6478 12.6767 17.6772 12.6669 17.7001 12.6592C17.7228 12.6516 17.7413 12.6453 17.7529 12.6413C17.7588 12.6393 17.7637 12.6376 17.7669 12.6365C17.7698 12.6355 17.7724 12.6346 17.7725 12.6346C17.7734 12.6343 17.7718 12.6348 17.7699 12.6355C17.7678 12.6362 17.764 12.6375 17.7591 12.6392C17.7495 12.6424 17.7331 12.6481 17.7124 12.655C17.6916 12.662 17.6642 12.6711 17.632 12.6816C17.5997 12.6922 17.5609 12.7046 17.5169 12.7184L11.5514 -6.37123C11.5053 -6.35684 11.4645 -6.34373 11.4302 -6.33252C11.3959 -6.32134 11.3665 -6.31155 11.3436 -6.30385C11.3209 -6.29622 11.3023 -6.28991 11.2907 -6.28595C11.2848 -6.28393 11.28 -6.28226 11.2768 -6.28117C11.2739 -6.28017 11.2713 -6.27928 11.2711 -6.27923C11.2703 -6.27893 11.2718 -6.27947 11.2737 -6.28012C11.2758 -6.28085 11.2797 -6.28217 11.2846 -6.28383C11.2941 -6.28709 11.3106 -6.29271 11.3313 -6.29965C11.3521 -6.30665 11.3795 -6.31577 11.4117 -6.32628C11.444 -6.33681 11.4827 -6.34926 11.5268 -6.36302L17.4923 12.7266ZM20.0812 -5.14694C19.9031 -5.26565 19.755 -5.35624 19.6649 -5.41027C19.6187 -5.43802 19.5806 -5.46036 19.5568 -5.47432C19.5445 -5.48145 19.5344 -5.48732 19.5278 -5.49115C19.5217 -5.4947 19.5163 -5.49785 19.5158 -5.49815L9.49504 11.8104C9.51136 11.8198 9.44839 11.7836 9.37498 11.7396C9.29457 11.6913 9.15597 11.6066 8.98715 11.4941L20.0812 -5.14694Z" fill="white" mask="url(#path-1-inside-1_120_329)"/>
</svg>
