<svg width="21" height="21" viewBox="0 0 21 21" fill="none" xmlns="http://www.w3.org/2000/svg">
<path d="M14.0835 20.2579C12.2119 20.2579 10.341 20.2579 8.46937 20.2579C7.61486 20.2579 7.18657 19.8306 7.18588 18.9795C7.18588 17.7916 7.18449 16.6031 7.18657 15.4152C7.18726 14.6868 7.64323 14.228 8.37804 14.2273C12.1898 14.2253 16.0015 14.2246 19.8132 14.2273C20.5314 14.228 20.9936 14.6882 20.9964 15.4008C21.0012 16.6147 20.9999 17.828 20.9971 19.0419C20.9957 19.8025 20.5404 20.2552 19.7752 20.2565C17.878 20.2593 15.9807 20.2579 14.0835 20.2579ZM14.1243 15.3315C12.261 15.3315 10.3977 15.3336 8.53372 15.3281C8.35866 15.3274 8.27909 15.3466 8.28186 15.5565C8.29432 16.6854 8.29155 17.8136 8.28394 18.9425C8.28255 19.1119 8.3303 19.1558 8.49843 19.1558C12.2251 19.1517 15.9524 19.151 19.679 19.1565C19.8575 19.1565 19.8873 19.0982 19.8866 18.9397C19.8803 17.8198 19.8783 16.6991 19.888 15.5791C19.8893 15.3823 19.8444 15.3247 19.6375 15.326C17.7998 15.3356 15.9621 15.3315 14.1243 15.3315Z" fill="#005AD2"/>
<path d="M14.0885 6.01722C12.2072 6.01722 10.3265 6.0179 8.44523 6.01722C7.61425 6.01722 7.18734 5.59406 7.18734 4.77311C7.18734 3.57564 7.18596 2.37816 7.18803 1.18138C7.18873 0.450959 7.644 0.00173508 8.38435 0.00173508C12.1899 0.00104924 15.9947 0.00104924 19.8002 0.00173508C20.5357 0.00173508 20.9951 0.453016 20.9972 1.18481C21.0013 2.39942 21.0006 3.61336 20.9972 4.82798C20.9951 5.57554 20.544 6.01653 19.7843 6.01722C17.885 6.01859 15.9864 6.01722 14.0885 6.01722ZM14.076 4.92674C15.931 4.92674 17.786 4.92262 19.641 4.93222C19.8493 4.93291 19.8908 4.87324 19.8894 4.67915C19.8804 3.55918 19.8811 2.43852 19.8887 1.31854C19.8901 1.14571 19.8521 1.08673 19.6639 1.08673C15.9455 1.09222 12.2272 1.09222 8.5082 1.08673C8.31931 1.08673 8.28264 1.14777 8.28333 1.31992C8.29025 2.43989 8.29232 3.56055 8.28194 4.68052C8.27987 4.88353 8.33522 4.93222 8.53726 4.93154C10.3833 4.92331 12.2293 4.92674 14.076 4.92674Z" fill="#005AD2"/>
<path d="M14.1029 7.12069C15.9842 7.12069 17.8648 7.12 19.7462 7.12069C20.5578 7.12137 20.9957 7.55139 20.9971 8.35039C20.9985 9.53895 20.9992 10.7282 20.9971 11.9167C20.9957 12.6952 20.5467 13.1369 19.7586 13.1369C15.9794 13.1375 12.2002 13.1375 8.42027 13.1369C7.63011 13.1369 7.18729 12.6986 7.18729 11.9161C7.18659 10.7186 7.18659 9.52112 7.18729 8.32433C7.18798 7.55619 7.62665 7.12206 8.40851 7.12137C10.3064 7.11932 12.205 7.12069 14.1029 7.12069ZM14.0946 8.21117C12.2396 8.21117 10.3846 8.21391 8.52959 8.20705C8.34831 8.20637 8.27843 8.23243 8.2812 8.43818C8.29296 9.55815 8.29296 10.6788 8.28189 11.7988C8.27981 12.0052 8.34001 12.0512 8.54066 12.0512C12.2417 12.045 15.9434 12.045 19.6444 12.0512C19.8361 12.0512 19.8908 12.008 19.8894 11.8125C19.879 10.6925 19.8783 9.57187 19.8901 8.4519C19.8921 8.2434 19.8278 8.20568 19.6341 8.20637C17.7874 8.21391 15.9406 8.21117 14.0946 8.21117Z" fill="#005AD2"/>
<path d="M3.02197 20.258C2.41794 20.258 1.8139 20.2607 1.21055 20.2573C0.462597 20.2532 0.00455203 19.7978 0.00316821 19.0536C0.000400571 17.8479 0.00109248 16.6422 0.00316821 15.4365C0.00455203 14.6766 0.460521 14.2281 1.22993 14.2267C2.438 14.2246 3.64538 14.2246 4.85346 14.2267C5.6367 14.2281 6.08644 14.6752 6.08714 15.4557C6.08921 16.6443 6.08852 17.8328 6.08714 19.0214C6.08644 19.8149 5.63739 20.2566 4.83409 20.258C4.23005 20.2586 3.62601 20.258 3.02197 20.258ZM4.97247 17.2499C4.97247 16.6683 4.96901 16.0867 4.97524 15.5051C4.97662 15.3769 4.94894 15.3282 4.80641 15.3288C3.63293 15.3343 2.45945 15.3343 1.28597 15.3288C1.1469 15.3282 1.11438 15.3707 1.11507 15.503C1.11991 16.6573 1.11991 17.8123 1.11507 18.9665C1.11438 19.1051 1.14413 19.1572 1.29704 19.1565C2.46222 19.1503 3.6267 19.1503 4.79188 19.1565C4.94133 19.1572 4.978 19.1112 4.97662 18.9693C4.96763 18.3959 4.97247 17.8232 4.97247 17.2499Z" fill="#005AD2"/>
<path d="M3.04736 6.01788C2.42602 6.01788 1.80538 6.02131 1.18404 6.0172C0.459611 6.0124 0.00710194 5.56592 0.0043343 4.84647C0.000182838 3.62362 0.000182838 2.40146 0.0043343 1.17861C0.00641003 0.449567 0.467222 0.00171459 1.20549 0.00102876C2.43017 -0.000342919 3.65554 -0.000342919 4.88023 0.00102876C5.63026 0.00171459 6.08484 0.450938 6.08692 1.19987C6.08968 2.40558 6.08968 3.61128 6.08692 4.8163C6.08484 5.56935 5.63925 6.01308 4.88507 6.01651C4.27204 6.01994 3.6597 6.01788 3.04736 6.01788ZM4.97363 3.02146C4.97363 2.43987 4.96948 1.85828 4.9764 1.27669C4.97848 1.13266 4.93835 1.08671 4.7882 1.0874C3.63202 1.09357 2.47584 1.09357 1.31966 1.0874C1.16398 1.08671 1.11208 1.12306 1.11347 1.28492C1.12039 2.43918 1.11969 3.59345 1.11347 4.7484C1.11277 4.8986 1.16121 4.92946 1.30236 4.92877C2.46684 4.92329 3.63202 4.9226 4.7965 4.92946C4.95149 4.93014 4.97848 4.87871 4.9764 4.74017C4.96879 4.16749 4.97363 3.59482 4.97363 3.02146Z" fill="#005AD2"/>
<path d="M3.06006 7.12001C3.6814 7.12001 4.30204 7.1159 4.92338 7.12138C5.61805 7.12687 6.08025 7.57129 6.08509 8.25713C6.0934 9.50536 6.09409 10.7536 6.08509 12.0018C6.08025 12.6828 5.60629 13.1355 4.91922 13.1369C3.66825 13.1396 2.41728 13.1396 1.167 13.1369C0.481313 13.1355 0.010122 12.6794 0.00597054 11.997C-0.00164047 10.7488 -0.00233238 9.50056 0.00597054 8.25233C0.0108139 7.56855 0.474394 7.12687 1.17184 7.12138C1.80079 7.11658 2.43042 7.12001 3.06006 7.12001ZM1.11649 10.1116C1.11649 10.6843 1.12133 11.2577 1.11303 11.8303C1.11095 11.9901 1.14209 12.0519 1.32337 12.0505C2.47055 12.0416 3.61843 12.0436 4.76562 12.0491C4.91507 12.0498 4.97735 12.0244 4.97665 11.8564C4.96904 10.7021 4.97043 9.54788 4.97596 8.39293C4.97665 8.2489 4.93998 8.20707 4.79191 8.20775C3.62743 8.21392 2.46225 8.21392 1.29777 8.20775C1.1497 8.20707 1.11095 8.24822 1.11303 8.39293C1.12133 8.9656 1.11649 9.53896 1.11649 10.1116Z" fill="#005AD2"/>
</svg>
